/* XPM */
static char *result[] = {
/* columns rows colors chars-per-pixel */
"68 68 76 1 ",
"  c #8BC34A",
". c #8AC34A",
"X c #9ECA4C",
"o c #E8E555",
"O c #FFEF58",
"+ c #FFEE58",
"@ c #FDED58",
"# c #FAEC57",
"$ c #FCED58",
"% c #FCED57",
"& c #E1E354",
"* c #BED650",
"= c #BBD54F",
"- c #BBD550",
"; c #D7DF53",
": c #F9EC57",
"> c #CCDB51",
", c #8FC44A",
"< c #BAD54F",
"1 c #F6EA57",
"2 c #90C54B",
"3 c #8CC34A",
"4 c #F6EB57",
"5 c #90C54A",
"6 c #A8CE4E",
"7 c #A4CC4D",
"8 c #A4CD4D",
"9 c #C9DA51",
"0 c #F8EB57",
"q c #FAEC58",
"w c #ECE756",
"e c #E6E455",
"r c #E6E555",
"t c #EBE655",
"y c #FBEC57",
"u c #FEEE58",
"i c #E9E655",
"p c #AED04E",
"a c #92C54B",
"s c #92C64B",
"d c #91C54B",
"f c #A6CD4D",
"g c #EDE756",
"h c #A8CE4D",
"j c #89C24A",
"k c #9FCA4C",
"l c #A9CE4D",
"z c #9FCB4C",
"x c #E7E555",
"c c #FBED58",
"v c #F7EB57",
"b c #AFD14E",
"n c #93C64B",
"m c #94C64B",
"M c #A7CD4D",
"N c #DCE154",
"B c #B1D14F",
"V c #AACE4E",
"C c #ABCF4E",
"Z c #C6D951",
"A c #DFE254",
"S c #E0E354",
"D c #E5E555",
"F c #CEDC53",
"G c #88C24A",
"H c #B0D14F",
"J c #F2E957",
"K c #CFDC53",
"L c #F3E957",
"P c #CEDC52",
"I c #AFD14F",
"U c #E0E254",
"Y c #B9D450",
"T c #B3D24F",
"R c #CCDB52",
"E c white",
/* pixels */
"                                                                    ",
"                                                                    ",
"                                                                    ",
"                                                                    ",
"                                                                    ",
"                                                                    ",
"                                                                    ",
"                                                                    ",
"                                                                    ",
"....................................................................",
"XXXXXXXXXXXXXXXXXXXXXXXXXXXXXXXXXXXXXXXXXXXXXXXXXXXXXXXXXXXXXXXXXXXX",
"oooooooooooooooooooooooooooooooooooooooooooooooooooooooooooooooooooo",
"OOOOOOOOOOOOOOOOOOOOOOOOOOOOOOOOOOOOOOOOOOOOOOOOOOOOOOOOOOOOOOOOOOOO",
"++++++++++++++++++++++++++++++++++++++++++++++++++++++++++++++++++++",
"++++++++++++++++++++++++++++++++++++++++++++++++++++++++++++++++++++",
"++++++++++++++++++++++++++++++++++++++++++++++++++++++++++++++++++++",
"++++++++++++++++++++++++++++++++++++++++++++++++++++++++++++++++++++",
"++++++++++++++++++++++++++++++++++++++++++++++++++++++++++++++++++++",
"++++++++++++++++++++++++++++++++++++++++++++++++++++++++++++++++++++",
"++++++++++++++++++++++++++++++++++++++++++++++++++++++++++++++++++++",
"++++++++++++++++++++++++++++++++++++++++++++++++++++++++++++++++++++",
"+++++@#########$++++++++++++++++++++++++++++++++++++++++++++++++++++",
"++++%&*=-------;#+++++++++++++++++++++++++++++++++++++++++++++++++++",
"++++:>,....... <1+++++++++++++++++++++++++++++++++++++++++++++++++++",
"++++:>2       3=4+++++++++++++++++++++++++++++++++++++++++++++++++++",
"++++:>2       3=4+++++++++++++++++++++++++++++++++++++++++++++++++++",
"++++:>2       3=4+++++++++++++++++++++++++++++++++++++++++++++++++++",
"++++:>2       3=4+++++++++++++++++++++++++++++++++++++++++++++++++++",
"++++:>2       3=4+++++++++++++++++++++++++++++++++++++++++++++++++++",
"++++:>2       3=4+++++++++++++++++++++++++++++++++++++++++++++++++++",
"++++:>2       3=4+++++++++++++++++++++++++++++++++++++++++++++++++++",
"++++:>2       3=4+++++++++++++++++++++++++++++++++++++++++++++++++++",
"++++:>5.      3<4+++++++++++++++++++++++++++++++++++++++++++++++++++",
"++++#;67777777890++++++++++++++++++++++++++++++++++++++qwerrrrrrety+",
"+++++$000000000yu++++++++++++++++++++++++++++++++++++++ipassssssdfg+",
"+++++++++++++++++++++++++++++++++++++++++++++++++++++++oh.      jkw+",
"+++++++++++++++++++++++++++++++++++++++++++++++++++++++ol.      jzw+",
"+++++++++++++++++++++++++++++++++++++++++++++++++++++++ol.      jzw+",
"+++++++++++++++++++++++++++++++++++++++++++++++++++++++ol.      jzw+",
"+++++++++++++++++++++++++++++++++++++++++++++++++++++++ol.      jzw+",
"+++++++++++++++++++++++++++++++++++++++++++++++++++++++ol.      jzw+",
"+++++++++++++++++++++++++++++++++++++++++++++++++++++++ol.      jzw+",
"+++++++++++++++++++++++++++++++++++++++++++++++++++++++ol.      jzw+",
"+++++++++++++++++++++++++++++++++++++++++++++++++++++++xh.......jkw+",
"+++++++++++++++cv44444444:u++++++++++++++++++++++++++++ibnmmmmmmsMg+",
"++++++++++++++uNBVVVVVVVCZ4++++++++++++++++++++++++++++:oASSSSSSAD#+",
"++++++++++++++uFsGjjjjjjjHJ+++++++++++++++++++++++++++++OOOOOOOOOO++",
"++++++++++++++uKm        BL+++++++++++++++++++++++++++++++++++++++++",
"++++++++++++++uKm        BL+++++++++++++++++++++++++++++++++++++++++",
"++++++++++++++uKm        BL+++++++++++++++++++++++++++++++++++++++++",
"++++++++++++++uKm        BL+++++++++++++++++++++++++++++++++++++++++",
"++++++++++++++uKm        BL+++++++++++++++++++++++++++++++++++++++++",
"++++++++++++++uKm        BL+++++++++++++++++++++++++++++++++++++++++",
"++++++++++++++uKm        BL+++++++++++++++++++++++++++++++++++++++++",
"++++++++++++++uKm        BL+++++++++++++++++++++++++++++++++++++++++",
"++++++++++++++uPsGGGGGGGjIJ+++++++++++++++++++++++++++++++++++++++++",
"++++++++++++++uUYTTTTTTTTRv+++++++++++++++++++++++++++++++++++++++++",
"++++++++++++++++OOOOOOOOO+++++++++++++++++++++++++++++++++++++++++++",
"++++++++++++++++++++++++++++++++++++++++++++++++++++++++++++++++++++",
"++++++++++++++++++++++++++++++++++++++++++++++++++++++++++++++++++++",
"++++++++++++++++++++++++++++++++++++++++++++++++++++++++++++++++++++",
"++++++++++++++++++++++++++++++++++++++++++++++++++++++++++++++++++++",
"++++++++++++++++++++++++++++++++++++++++++++++++++++++++++++++++++++",
"++++++++++++++++++++++++++++++++++++++++++++++++++++++++++++++++++++",
"++++++++++++++++++++++++++++++++++++++++++++++++++++++++++++++++++++",
"++++++++++++++++++++++++++++++++++++++++++++++++++++++++++++++++++++",
"++++++++++++++++++++++++++++++++++++++++++++++++++++++++++++++++++++",
"++++++++++++++++++++++++++++++++++++++++++++++++++++++++++++++++++++"
};
