/* XPM */
static char *result[] = {
/* columns rows colors chars-per-pixel */
"68 64 189 2 ",
"   c #C61685",
".  c #C71785",
"X  c #C71786",
"o  c #C71886",
"O  c #C81886",
"+  c #C81986",
"@  c #C91A86",
"#  c #C91A87",
"$  c #CA1A87",
"%  c #CA1B87",
"&  c #CA1C88",
"*  c #CB1C88",
"=  c #CB1D88",
"-  c #CC1D88",
";  c #CC1E88",
":  c #CC1E89",
">  c #CD1F89",
",  c #CE1F89",
"<  c #CF2189",
"1  c #CF218A",
"2  c #D0228A",
"3  c #D1238B",
"4  c #D1248B",
"5  c #D2248B",
"6  c #D72A8D",
"7  c #D72B8E",
"8  c #D92D8E",
"9  c #DA2D8E",
"0  c #DA2E8F",
"q  c #DB2E8F",
"w  c #DB2F8F",
"e  c #DB2E90",
"r  c #DB2F90",
"t  c #DA3090",
"y  c #DB3291",
"u  c #DC3090",
"i  c #DC3190",
"p  c #DE3291",
"a  c #DF3491",
"s  c #E03492",
"d  c #E03592",
"f  c #E13692",
"g  c #E13792",
"h  c #E13793",
"j  c #E23893",
"k  c #E33893",
"l  c #E33993",
"z  c #E33994",
"x  c #E43994",
"c  c #E43A94",
"v  c #E53C95",
"b  c #E63C95",
"n  c #E83E96",
"m  c #E93F96",
"M  c #E94096",
"N  c #E94197",
"B  c #EA4196",
"V  c #EA4097",
"C  c #EA4197",
"Z  c #ED4498",
"A  c #ED4599",
"S  c #EE4699",
"D  c #EF4699",
"F  c #EF4799",
"G  c #F04899",
"H  c #F1499A",
"J  c #F2499A",
"K  c #F14A9A",
"L  c #F04A9B",
"P  c #F24A9A",
"I  c #F24B9B",
"U  c #F34B9B",
"Y  c #F34C9B",
"T  c #F44C9B",
"R  c #F44D9B",
"E  c #F54D9B",
"W  c #F24C9C",
"Q  c #F14E9D",
"!  c #F44D9C",
"~  c #F54D9C",
"^  c #F44E9C",
"/  c #F54E9C",
"(  c #F54F9C",
")  c #F54F9D",
"_  c #F64E9C",
"`  c #F64F9C",
"'  c #F3509E",
"]  c #F5509C",
"[  c #F5509D",
"{  c #F5519D",
"}  c #F6519D",
"|  c #F5519E",
" . c #F6519E",
".. c #F5529E",
"X. c #F5529F",
"o. c #F5539F",
"O. c #F6529E",
"+. c #F5549F",
"@. c #E555A3",
"#. c #F354A0",
"$. c #F355A0",
"%. c #F555A0",
"&. c #F654A0",
"*. c #F655A0",
"=. c #F656A1",
"-. c #F657A1",
";. c #F658A2",
":. c #F45AA3",
">. c #F65EA5",
",. c #F65FA5",
"<. c #F663A7",
"1. c #F663A8",
"2. c #F664A8",
"3. c #F665A9",
"4. c #F76CAC",
"5. c #F772B0",
"6. c #F773B1",
"7. c #F776B2",
"8. c #F776B3",
"9. c #F87DB6",
"0. c #F87FB8",
"q. c #F880B8",
"w. c #F983BA",
"e. c #F984BA",
"r. c #F68ABE",
"t. c #F888BC",
"y. c #F889BD",
"u. c #F989BD",
"i. c #F98DBF",
"p. c #F98DC0",
"a. c #F990C0",
"s. c #F892C2",
"d. c #F994C3",
"f. c #F995C4",
"g. c #F997C4",
"h. c #F998C5",
"j. c #F99AC6",
"k. c #FA9AC7",
"l. c #FA9DC8",
"z. c #FAA0CA",
"x. c #FAA1CB",
"c. c #F9A2CB",
"v. c #FAA3CC",
"b. c #FAA6CD",
"n. c #FAA7CE",
"m. c #FAA8CE",
"M. c #FAA9CE",
"N. c #FAADD1",
"B. c #FBB4D5",
"V. c #FAB6D6",
"C. c #FCBBD9",
"Z. c #FBBFDB",
"A. c #FCC2DD",
"S. c #FCC4DE",
"D. c #FCC5DF",
"F. c #FCC9E1",
"G. c #FCCBE2",
"H. c #FCCEE3",
"J. c #FDD1E5",
"K. c #FDD3E6",
"L. c #FCD3E7",
"P. c #FDDBEA",
"I. c #FDDDEC",
"U. c #FEDFED",
"Y. c #FEDFEE",
"T. c #FEE0EE",
"R. c #FEE4F0",
"E. c #FEE7F2",
"W. c #FDE8F3",
"Q. c #FEEAF4",
"!. c #FEECF4",
"~. c #FEECF5",
"^. c #FEEDF5",
"/. c #FEEFF6",
"(. c #FEF2F8",
"). c #FEF3F8",
"_. c #FEF4F9",
"`. c #FFF4F9",
"'. c #FEF5F9",
"]. c #FFF5F9",
"[. c #FFF6FA",
"{. c #FEF7FB",
"}. c #FFF7FB",
"|. c #FFFCFD",
" X c #FFFDFE",
".X c #FFFEFE",
"XX c #FFFEFF",
"oX c white",
"OX c None",
/* pixels */
"OXOXOXOXOXOXOXOXOXOXOXOXOXOXOXOXOXOXOXOXOXOXOXOXOXOXOXOXOXOXOXOXOXOXOXOXOXOXOXOXOXOXOXOXOXOXOXOXOXOXOXOXOXOXOXOXOXOXOXOXOXOXOXOXOXOXOXOX",
"OXOXOXOXOXOXOXOXOXOXOXOXOXOXOXOXOXOXOXOXOXOXOXOXOXOXOXOXOXOXOXOXOXOXOXOXOXOXOXOXOXOXOXOXOXOXOXOXOXOXOXOXOXOXOXOXOXOXOXOXOXOXOXOXOXOXOXOX",
"OXOXOXOXOXOXOXOXOXOXOXOXOXOXOXOXOXOXOXOXOXOXOXOXOXOXOXOXOXOXOXOXOXOXOXOXOXOXOXOXOXOXOXOXOXOXOXOXOXOXOXOXOXOXOXOXOXOXOXOXOXOXOXOXOXOXOXOX",
"OXOXOXOXOXOXOXOXOXOXOXOXOXOXOXOXOXOXOXOXOXOXOXOXOXOXOXOXOXOXOXOXOXOXOXOXOXOXOXOXOXOXOXOXOXOXOXOXOXOXOXOXOXOXOXOXOXOXOXOXOXOXOXOXOXOXOXOX",
"OXOXOXOXOXOXOXOXOXOXOXOXOXOXOXOXOXOXOXOXOXOXOXOXOXOXOXOXOXOXOXOXOXOXOXOXOXOXOXOXOXOXOXOXOXOXOXOXOXOXOXOXOXOXOXOXOXOXOXOXOXOXOXOXOXOXOXOX",
"OXOXOXOXOXOXOXOXOXOXOXOXOXOXOXOXOXOXOXOXOXOXOXOXOXOXOXOXOXOXOXOXOXOXOXOXOXOXOXOXOXOXOXOXOXOXOXOXOXOXOXOXOXOXOXOXOXOXOXOXOXOXOXOXOXOXOXOX",
"OXOXOXOXOXOXOXOXOXOXOXOXOXOXOXOXOXOXOXOXOXOXOXOXOXOXOXOXOXOXOXOXOXOXOXOXOXOXOXOXOXOXOXOXOXOXOXOXOXOXOXOXOXOXOXOXOXOXOXOXOXOXOXOXOXOXOXOX",
"OXOXOXOXOXOXOXOXOXOXOXOXOXOXOXOXOXOXOXOXOXOXOXOXOXOXOXOXOXOXOXOXOXOXOXOXOXOXOXOXOXOXOXOXOXOXOXOXOXOXOXOXOXOXOXOXOXOXOXOXOXOXOXOXOXOXOXOX",
"OXOXOXOXOXOXOXOXOXOXOXOXOXOXOXOXOXOXOXOXOXOXOXOXOXOXOXOXOXOXOXOXOXOXOXOXOXOXOXOXOXOXOXOXOXOXOXOXOXOXOXOXOXOXOXOXOXOXOXOXOXOXOXOXOXOXOXOX",
"OXOXOXOXOXOXOXOXOXOXOXOXOXOXOXOXOXOXOXOXOXOXOXOXOXOXOXOXOXOXOXOXOXOXOXOXOXOXOXOXOXOXOXOXOXOXOXOXOXOXOXOXOXOXOXOXOXOXOXOXOXOXOXOXOXOXOXOX",
"OXOXOXOXOXOXOXOXOXOXOXOXOXOXOXOXOXOXOXOXOXOXOXOXOXOXOXOXOXOXOXOXOXOXOXOXOXOXOXOXOXOXOXOXOXOXOXOXOXOXOXOXOXOXOXOXOXOXOXOXOXOXOXOXOXOXOXOX",
"OXOXOXOXOXOXOXOXOXOXOXOXOXOXOXOXOXOXOXOXOXOXOXOXOXOXOXOXOXOXOXOXOXOXOXOXOXOXOXOXOXOXOXOXOXOXOXOXOXOXOXOXOXOXOXOXOXOXOXOXOXOXOXOXOXOXOXOX",
"OXOXOXOXOXOXOXOXOXOXOXOXOXOXOXOXOXOXOXOXOXOXOXOXOXOXOXOXOXOX/ / / / / / ~ ~ ~ ~ ~ ~ ~ ~ ~ ~ / OXOXOXOXOXOXOXOXOXOXOXOXOXOXOXOXOXOXOXOXOX",
"OXOXOXOXOXOXOXOXOXOXOXOXOXOXOXOXOXOXOXOXOXOXOXOXOXOXOXOXOX/ / / / / / | +.%.%.%.%.%.%.%.+.X.) / OXOXOXOXOXOXOXOXOXOXOXOXOXOXOXOXOXOXOXOX",
"OXOXOXOXOXOXOXOXOXOXOXOXOXOXOXOXOXOXOXOXOXOXOXOXOXOXOXOX[ / / / / / ..8.c.M.m.m.m.m.n.n.b.p.;.E ) OXOXOXOXOXOXOXOXOXOXOXOXOXOXOXOXOXOXOX",
"OXOXOXOXOXOXOXOXOXOXOXOXOXOXOXOXOXOXOXOXOXOXOXOXOXOXOX[ / / / / / ~ %.f.T.^.!.!.!./.].[._.F.4.%.[ / OXOXOXOXOXOXOXOXOXOXOXOXOXOXOXOXOXOX",
"OXOXOXOXOXOXOXOXOXOXOXOXOXOXOXOXOXOXOXOXOXOXOXOXOXOX/ / / / / / / / ..6.k.x.z.z.v.S.'.oXXXW.V.a.,./ / OXOXOXOXOXOXOXOXOXOXOXOXOXOXOXOXOX",
"OXOXOXOXOXOXOXOXOXOXOXOXOXOXOXOXOXOXOXOXOXOXOXOXOX/ / / / / / ! Y U Y ' #.$.$.$.:.s.R.}.[.[.).D.6.*.[ ( OXOXOXOXOXOXOXOXOXOXOXOXOXOXOXOX",
"OXOXOXOXOXOXOXOXOXOXOXOXOXOXOXOXOXOXOXOXOXOXOXOX) / / / / / U v r 0 0 0 9 8 8 8 t @.r.g.h.B.(.Q.A.l.<.E ( OXOXOXOXOXOXOXOXOXOXOXOXOXOXOX",
"OXOXOXOXOXOXOXOXOXOXOXOXOXOXOXOXOXOXOXOXOXOXOX| / / / / / / H p , @ O O O O + # : y Q &.=.q.I.`.[.K.9.;.| / OXOXOXOXOXOXOXOXOXOXOXOXOXOX",
"OXOXOXOXOXOXOXOXOXOXOXOXOXOXOXOXOXOXOXOXOXOXOX| / / / / / / Y N a 4         X 3 a n I / ( 2.d.C.^.~.Z.j.1./ OXOXOXOXOXOXOXOXOXOXOXOXOXOX",
"OXOXOXOXOXOXOXOXOXOXOXOXOXOXOXOXOXOXOXOXOXOXOX| / / / / / / / ! G i & % % # - w G R / / / [ -.u.T. X{.L.6./ OXOXOXOXOXOXOXOXOXOXOXOXOXOX",
"OXOXOXOXOXOXOXOXOXOXOXOXOXOXOXOXOXOXOXOXOXOXOX| / / / / / / / / T C h g g f j B T / / / / / [ w.Y.oX.XP.7./ OXOXOXOXOXOXOXOXOXOXOXOXOXOX",
"OXOXOXOXOXOXOXOXOXOXOXOXOXOXOXOXOXOXOXOXOXOXOX| / / ~ U H H H H K I Y Y Y Y Y I H H H H K P [ w.Y.|.(.H.5./ OXOXOXOXOXOXOXOXOXOXOXOXOXOX",
"OXOXOXOXOXOXOXOXOXOXOXOXOXOXOXOXOXOXOXOXOXOXOX| / / J x q 0 0 0 u m / / / / ! C u 0 0 0 0 g W e.U.E.N.t.,./ OXOXOXOXOXOXOXOXOXOXOXOXOXOX",
"OXOXOXOXOXOXOXOXOXOXOXOXOXOXOXOXOXOXOXOXOXOXOX| / / G r ; $ + O * d ! / / Y G d * O + # - 7 L 0.J.G.7.o.[ / OXOXOXOXOXOXOXOXOXOXOXOXOXOX",
"OXOXOXOXOXOXOXOXOXOXOXOXOXOXOXOXOXOXOXOXOXOXOX| / / I n p 2 .   # s ! / Y M u 5 o     1 p b W 3.i.y.>./ / / OXOXOXOXOXOXOXOXOXOXOXOXOXOX",
"OXOXOXOXOXOXOXOXOXOXOXOXOXOXOXOXOXOXOXOXOXOXOX| / / / ! D w > = < j ! / I j 3 % . + * 0 F ! / [ o.o.) / / / OXOXOXOXOXOXOXOXOXOXOXOXOXOX",
"OXOXOXOXOXOXOXOXOXOXOXOXOXOXOXOXOXOXOXOXOXOXOXOXOX/ / / Y C z k c Z / / R Z l 6 @ 3 s V Y / / / / / / / / / OXOXOXOXOXOXOXOXOXOXOXOXOXOX",
"OXOXOXOXOXOXOXOXOXOXOXOXOXOXOXOXOXOXOXOXOXOXOXOXOX/ / / / ! Y Y Y ! / / / ! P k 2 e S ! / / / / / / / / / / OXOXOXOXOXOXOXOXOXOXOXOXOXOX",
"OXOXOXOXOXOXOXOXOXOXOXOXOXOXOXOXOXOXOXOXOXOXOXOX) / / / / / / / / / / / / / ! A c C Y / / / / / / / / ( ) OXOXOXOXOXOXOXOXOXOXOXOXOXOXOX",
"OXOXOXOXOXOXOXOXOXOXOXOXOXOXOXOXOXOXOXOXOXOXOX[ / / ( ( ( / / / / / ( ( ( / / ! T ^ ( ( ( ( / / / / ( [ OXOXOXOXOXOXOXOXOXOXOXOXOXOXOXOX",
"OXOXOXOXOXOXOXOXOXOXOXOXOXOXOXOXOXOXOXOXOXOX( ( / [ OXOXOX/ / / / ( OXOXOX( / / / ( OXOXOX{ ) / / / [ OXOXOXOXOXOXOXOXOXOXOXOXOXOXOXOXOX",
"OXOXOXOXOXOXOXOXOXOXOXOXOXOXOXOXOXOXOXOXOX( / / / OXOXOXOX/ / / / OXOXOXOXOX/ / / / OXOXOXOX[ / / / OXOXOXOXOXOXOXOXOXOXOXOXOXOXOXOXOXOX",
"OXOXOXOXOXOXOXOXOXOXOXOXOXOXOXOXOXOXOXOX/ / ( { OXOXOXOX/ / / / OXOXOXOXOXOX/ / / / OXOXOXOX[ / / / OXOXOXOXOXOXOXOXOXOXOXOXOXOXOXOXOXOX",
"OXOXOXOXOXOXOXOXOXOXOXOXOXOXOXOXOXOXOX/ / / ( OXOXOXOX) / / / OXOXOXOXOXOX( / / / / OXOXOXOX[ / / / OXOXOXOXOXOXOXOXOXOXOXOXOXOXOXOXOXOX",
"OXOXOXOXOXOXOXOXOXOXOXOXOXOXOXOXOX{ [ / / OXOXOXOXOX[ ( / ) OXOXOXOX[ [ [ ( / / OXOXOXOXOXOX[ / / / OXOXOXOXOXOXOXOXOXOXOXOXOXOXOXOXOXOX",
"OXOXOXOXOXOXOXOXOXOXOXOXOXOXOXOXOX( ( ( / OXOXOXOX/ ( ( [ OXOXOXOX[ ( ( ( ( / OXOXOXOXOXOXOX) / / / OXOXOXOXOXOXOXOXOXOXOXOXOXOXOXOXOXOX",
"OXOXOXOXOXOXOXOXOXOXOXOXOXOXOX` _ / ( OXOXOXOX} / / / / OXOXOXOX/ / / ( OXOXOXOXOXOXOXOX` ( / / OXOXOXOXOXOXOXOXOXOXOXOXOXOXOXOXOXOXOXOX",
"OXOXOXOXOXOXOXOXOXOXOXOXOXOXOX/ / / ( OXOXOXOX| / / / OXOXOXOX/ / / / OXOXOXOXOXOXOXOXOX( / / / OXOXOXOXOXOXOXOXOXOXOXOXOXOXOXOXOXOXOXOX",
"OXOXOXOXOXOXOXOXOXOXOXOXOXOXOXOXOXOXOXOXOXOXOX| / / OXOXOXOX/ / / / OXOXOXOXOXOXOXOX( / / ( OXOXOXOXOXOXOXOXOXOXOXOXOXOXOXOXOXOXOXOXOXOX",
"OXOXOXOXOXOXOXOXOXOXOXOXOXOXOXOXOXOXOXOXOXOXOX| / OXOXOXOX/ / / / OXOXOXOXOXOXOXOXOX/ / / ) OXOXOXOXOXOXOXOXOXOXOXOXOXOXOXOXOXOXOXOXOXOX",
"OXOXOXOXOXOXOXOXOXOXOXOXOXOXOXOXOXOXOXOXOX..O.OXOXOXOXOXOX/ / / / OXOXOXOXOXOXOX .( / / OXOXOXOXOXOXOXOXOXOXOXOXOXOXOXOXOXOXOXOXOXOXOXOX",
"OXOXOXOXOXOXOXOXOXOXOXOXOXOXOXOXOXOXOXOXOX] [ OXOXOXOXOXOX/ / / / OXOXOXOXOXOX[ ( / ( / OXOXOXOXOXOXOXOXOXOXOXOXOXOXOXOXOXOXOXOXOXOXOXOX",
"OXOXOXOXOXOXOXOXOXOXOXOXOXOXOXOXOXOXOXOXOXOXOXOXOXOXOXOXOX/ / / / OXOXOXOXOX/ / / ( OXOXOXOXOXOXOXOXOXOXOXOXOXOXOXOXOXOXOXOXOXOXOXOXOXOX",
"OXOXOXOXOXOXOXOXOXOXOXOXOXOXOXOXOXOXOXOXOXOXOXOXOXOXOXOXOX/ / / / OXOXOXOXOX/ / / / OXOXOXOXOXOXOXOXOXOXOXOXOXOXOXOXOXOXOXOXOXOXOXOXOXOX",
"OXOXOXOXOXOXOXOXOXOXOXOXOXOXOXOXOXOXOXOXOXOXOXOXOXOXOXOXOX/ / / / OXOXOXOXOXOXOXOXOXOXOXOXOXOXOXOXOXOXOXOXOXOXOXOXOXOXOXOXOXOXOXOXOXOXOX",
"OXOXOXOXOXOXOXOXOXOXOXOXOXOXOXOXOXOXOXOXOXOXOXOXOXOXOXOXOX/ / ( ( OXOXOXOXOXOXOXOXOXOXOXOXOXOXOXOXOXOXOXOXOXOXOXOXOXOXOXOXOXOXOXOXOXOXOX",
"OXOXOXOXOXOXOXOXOXOXOXOXOXOXOXOXOXOXOXOXOXOXOXOXOXOXOX[ ) / / ( OXOXOXOXOXOXOXOXOXOXOXOXOXOXOXOXOXOXOXOXOXOXOXOXOXOXOXOXOXOXOXOXOXOXOXOX",
"OXOXOXOXOXOXOXOXOXOXOXOXOXOXOXOXOXOXOXOXOXOXOXOXOXOXOX) / / / OXOXOXOXOXOXOXOXOXOXOXOXOXOXOXOXOXOXOXOXOXOXOXOXOXOXOXOXOXOXOXOXOXOXOXOXOX",
"OXOXOXOXOXOXOXOXOXOXOXOXOXOXOXOXOXOXOXOXOXOXOXOXOXOXOXOXOXOXOXOXOXOXOXOXOXOXOXOXOXOXOXOXOXOXOXOXOXOXOXOXOXOXOXOXOXOXOXOXOXOXOXOXOXOXOXOX",
"OXOXOXOXOXOXOXOXOXOXOXOXOXOXOXOXOXOXOXOXOXOXOXOXOXOXOXOXOXOXOXOXOXOXOXOXOXOXOXOXOXOXOXOXOXOXOXOXOXOXOXOXOXOXOXOXOXOXOXOXOXOXOXOXOXOXOXOX",
"OXOXOXOXOXOXOXOXOXOXOXOXOXOXOXOXOXOXOXOXOXOXOXOXOXOXOXOXOXOXOXOXOXOXOXOXOXOXOXOXOXOXOXOXOXOXOXOXOXOXOXOXOXOXOXOXOXOXOXOXOXOXOXOXOXOXOXOX",
"OXOXOXOXOXOXOXOXOXOXOXOXOXOXOXOXOXOXOXOXOXOXOXOXOXOXOXOXOXOXOXOXOXOXOXOXOXOXOXOXOXOXOXOXOXOXOXOXOXOXOXOXOXOXOXOXOXOXOXOXOXOXOXOXOXOXOXOX",
"OXOXOXOXOXOXOXOXOXOXOXOXOXOXOXOXOXOXOXOXOXOXOXOXOXOXOXOXOXOXOXOXOXOXOXOXOXOXOXOXOXOXOXOXOXOXOXOXOXOXOXOXOXOXOXOXOXOXOXOXOXOXOXOXOXOXOXOX",
"OXOXOXOXOXOXOXOXOXOXOXOXOXOXOXOXOXOXOXOXOXOXOXOXOXOXOXOXOXOXOXOXOXOXOXOXOXOXOXOXOXOXOXOXOXOXOXOXOXOXOXOXOXOXOXOXOXOXOXOXOXOXOXOXOXOXOXOX",
"OXOXOXOXOXOXOXOXOXOXOXOXOXOXOXOXOXOXOXOXOXOXOXOXOXOXOXOXOXOXOXOXOXOXOXOXOXOXOXOXOXOXOXOXOXOXOXOXOXOXOXOXOXOXOXOXOXOXOXOXOXOXOXOXOXOXOXOX",
"OXOXOXOXOXOXOXOXOXOXOXOXOXOXOXOXOXOXOXOXOXOXOXOXOXOXOXOXOXOXOXOXOXOXOXOXOXOXOXOXOXOXOXOXOXOXOXOXOXOXOXOXOXOXOXOXOXOXOXOXOXOXOXOXOXOXOXOX",
"OXOXOXOXOXOXOXOXOXOXOXOXOXOXOXOXOXOXOXOXOXOXOXOXOXOXOXOXOXOXOXOXOXOXOXOXOXOXOXOXOXOXOXOXOXOXOXOXOXOXOXOXOXOXOXOXOXOXOXOXOXOXOXOXOXOXOXOX",
"OXOXOXOXOXOXOXOXOXOXOXOXOXOXOXOXOXOXOXOXOXOXOXOXOXOXOXOXOXOXOXOXOXOXOXOXOXOXOXOXOXOXOXOXOXOXOXOXOXOXOXOXOXOXOXOXOXOXOXOXOXOXOXOXOXOXOXOX",
"OXOXOXOXOXOXOXOXOXOXOXOXOXOXOXOXOXOXOXOXOXOXOXOXOXOXOXOXOXOXOXOXOXOXOXOXOXOXOXOXOXOXOXOXOXOXOXOXOXOXOXOXOXOXOXOXOXOXOXOXOXOXOXOXOXOXOXOX",
"OXOXOXOXOXOXOXOXOXOXOXOXOXOXOXOXOXOXOXOXOXOXOXOXOXOXOXOXOXOXOXOXOXOXOXOXOXOXOXOXOXOXOXOXOXOXOXOXOXOXOXOXOXOXOXOXOXOXOXOXOXOXOXOXOXOXOXOX",
"OXOXOXOXOXOXOXOXOXOXOXOXOXOXOXOXOXOXOXOXOXOXOXOXOXOXOXOXOXOXOXOXOXOXOXOXOXOXOXOXOXOXOXOXOXOXOXOXOXOXOXOXOXOXOXOXOXOXOXOXOXOXOXOXOXOXOXOX",
"OXOXOXOXOXOXOXOXOXOXOXOXOXOXOXOXOXOXOXOXOXOXOXOXOXOXOXOXOXOXOXOXOXOXOXOXOXOXOXOXOXOXOXOXOXOXOXOXOXOXOXOXOXOXOXOXOXOXOXOXOXOXOXOXOXOXOXOX"
};
