/* XPM */
static char *result[] = {
/* columns rows colors chars-per-pixel */
"68 68 210 2 ",
"   c #3F250B",
".  c #39260B",
"X  c #3F2D11",
"o  c #13192E",
"O  c #0C253C",
"+  c #13232D",
"@  c #21363F",
"#  c #432A05",
"$  c #572B08",
"%  c #5D3C0E",
"&  c #563405",
"*  c #402713",
"=  c #402B12",
"-  c #5F3912",
";  c #473213",
":  c #653C01",
">  c #6C3B02",
",  c #623E0C",
"<  c #6C3406",
"1  c #613814",
"2  c #403E2F",
"3  c #524818",
"4  c #6C4000",
"5  c #794A07",
"6  c #79541A",
"7  c #704A18",
"8  c #5F651C",
"9  c #756212",
"0  c #696016",
"q  c #584A2A",
"w  c #47443B",
"e  c #77572E",
"r  c #4B702C",
"t  c #657727",
"y  c #0C2F4B",
"u  c #162445",
"i  c #1B2853",
"p  c #0B3A5B",
"a  c #133A57",
"s  c #263D48",
"d  c #143C67",
"f  c #2C397E",
"g  c #004F5A",
"h  c #05425E",
"j  c #37474A",
"k  c #314953",
"l  c #314E5B",
"z  c #094665",
"x  c #184769",
"c  c #19507A",
"v  c #2A536B",
"b  c #3C5A63",
"n  c #265576",
"m  c #355B78",
"M  c #324F68",
"N  c #3A6073",
"B  c #26607F",
"V  c #4C5857",
"C  c #434B4D",
"Z  c #666145",
"A  c #4A5C65",
"S  c #52697C",
"D  c #8F5D06",
"F  c #895407",
"G  c #925504",
"H  c #855D1D",
"J  c #835816",
"K  c #935D14",
"L  c #945618",
"P  c #914D14",
"I  c #A95B08",
"U  c #B25A0D",
"Y  c #AA5417",
"T  c #B95815",
"R  c #85640F",
"E  c #98680D",
"W  c #936417",
"Q  c #926A18",
"!  c #A56708",
"~  c #B36A04",
"^  c #B66B08",
"/  c #B67107",
"(  c #A76413",
")  c #B77011",
"_  c #90522E",
"`  c #9F6B24",
"'  c #A46224",
"]  c #C75E13",
"[  c #CE6A0C",
"{  c #C66F08",
"}  c #D96C0E",
"|  c #D26B0B",
" . c #CC7902",
".. c #C77603",
"X. c #D47C01",
"o. c #DA7B06",
"O. c #D8740A",
"+. c #D66A12",
"@. c #C57918",
"#. c #E56C0E",
"$. c #E27E05",
"%. c #E2740B",
"&. c #EA760B",
"*. c #F3740F",
"=. c #F57B0B",
"-. c #FF7D0E",
";. c #F07D07",
":. c #F56D13",
">. c #FE6E16",
",. c #FF641B",
"<. c #FC6719",
"1. c #E97512",
"2. c #FF7413",
"3. c #FF7910",
"4. c #F67311",
"5. c #E96514",
"6. c #89674B",
"7. c #698D34",
"8. c #678A33",
"9. c #6B9A3B",
"0. c #709536",
"q. c #73A23E",
"w. c #5CB44E",
"e. c #4EB052",
"r. c #53B253",
"t. c #5DB554",
"y. c #5BB55C",
"u. c #57B45B",
"i. c #4DAF50",
"p. c #63B64E",
"a. c #67B84D",
"s. c #6CB94D",
"d. c #6EB248",
"f. c #74BC4C",
"g. c #7BBE4C",
"h. c #7BB546",
"j. c #63B752",
"k. c #6CB953",
"l. c #65B854",
"z. c #74BC53",
"x. c #78BE58",
"c. c #6CA743",
"v. c #66B961",
"b. c #7DC054",
"n. c #7FC04B",
"m. c #79C16B",
"M. c #8B9B2F",
"N. c #DB8301",
"B. c #D68101",
"V. c #E38402",
"C. c #EA8304",
"Z. c #EC8B01",
"A. c #E68A01",
"S. c #F48506",
"D. c #FA8607",
"F. c #F68C03",
"G. c #FF8D06",
"H. c #F58109",
"J. c #FF830B",
"K. c #FF8908",
"L. c #F49100",
"P. c #FF9402",
"I. c #FF9800",
"U. c #EB9104",
"Y. c #80BE4B",
"T. c #81B846",
"R. c #84C14B",
"E. c #8BC34A",
"W. c #82C155",
"Q. c #86C679",
"!. c #84C56E",
"~. c #165C8C",
"^. c #155586",
"/. c #155790",
"(. c #255B87",
"). c #1D6495",
"_. c #356385",
"`. c #276798",
"'. c #356A93",
"]. c #306B93",
"[. c #1C69A5",
"{. c #1778AF",
"}. c #246BA2",
"|. c #466883",
" X c #637B8F",
".X c #637E93",
"XX c #1B79C4",
"oX c #748695",
"OX c #0E87C8",
"+X c #0D8ED5",
"@X c #0B9DDF",
"#X c #0B97D7",
"$X c #1090D5",
"%X c #00B5CD",
"&X c #08ABDD",
"*X c #01BBD5",
"=X c #04B6DD",
"-X c #09B1DD",
";X c #01B6D8",
":X c #09A6E5",
">X c #0BAEE1",
",X c #14A6E6",
"<X c #05B2E2",
"1X c #869098",
"2X c #AFB4B7",
"3X c #AEB3B8",
"4X c #89C985",
"5X c #B6BBC0",
"6X c #D3D3D3",
"7X c None",
/* pixels */
"7X7X7X7X7X7X7X7X7X7X7X7X7X7X7X7X7X7X7X7X7X7X7X7X7X7X7X7X7X7X7X7Xj.7X7X7X7X7X7X7X7X7X7X7X7X7X7X7X7X7X7X7X7X7X7X7X7X7X7X7X7X7X7X7X7X7X7X7X",
"7X7X7X7X7X7X7X7X7X7X7X7X7X7X7X7X7X7X7X7X7X7X7X7X7X7X7X7X7X7X7Xz.g.g.k.7X7X7X7X7X7X7X7X7X7X7X7X7X7X7X7X7X7X7X7X7X7X7X7X7X7X7X7X7X7X7X7X7X",
"7X7X7X7X7X7X7X7X7X7X7X7X7X7X7X7X7X7X7X7X7X7X7X7X7X7X7X7X7X7Xz.R.E.R.R.z.7X7X7X7X7X7X7X7X7X7X7X7X7X7X7X7X7X7X7X7X7X7X7X7X7X7X7X7X7X7X7X7X",
"7X7X7X7X7X7X7X7X7X7X7X7X7X7X7X7X7X7X7X7X7X7X7X7X7X7X7X7X7Xf.R.E.E.E.E.R.k.7X7X7X7X7X7X7X7X7X7X7X7X7X7X7X7X7X7X7X7X7X7X7X7X7X7X7X7X7X7X7X",
"7X7X7X7X7X7X7X7X7X7X7X7X7X7X7X7X7X7X7X7X7X7X7X7X7X7X7X7Xs.n.E.E.E.E.E.E.g.a.7X7X7X7X7X7X7X7X7X7X7X7X7X7X7X7X7X7X7X7X7X7X7X7X7X7X7X7X7X7X",
"7X7X7X7X7X7X7X7X7X7X7X7X7X7X7X7X7X7X7X7X7X7X7X7X7X7X7Xz.R.R.E.E.E.E.E.E.R.x.z.7X7X7X7X7X7X7X7X7X7X7X7X7X7X7X7X7X7X7X7X7X7X7X7X7X7X7X7X7X",
"7X7X7X7X7X7X7X7X7X7X7X7X7X7X7X7X7X7X7X7X7X7X7X7X7X7Xk.R.E.E.E.E.E.E.E.E.E.R.g.k.7X7X7X7X7X7X7X7X7X7X7X7X7X7X7X7X7X7X7X7X7X7X7X7X7X7X7X7X",
"7X7X7X7X7X7X7X7X7X7X7X7X7X7X7X7X7X7X7X7X7X7Xu.7X7Xl.g.R.E.E.E.E.E.E.E.E.E.E.R.f.7X7X7Xu.7X7X7X7X7X7X7X7X7X7X7X7X7X7X7X7X7X7X7X7X7X7X7X7X",
"7X7X7X7X7X7X7X7X7X7X7X7X7X7X7X7X7X7X7Xe.r.y.l.r.w.a.E.E.E.E.E.E.E.E.E.E.E.E.E.g.j.t.t.l.y.e.7X7X7X7X7X7X7X7X7X7X7X7X7X7X7X7X7X7X7X7X7X7X",
"7X7X7X7X7X7X7X7X7X7X7X7X7X7X7X7X7X7X7Xi.e.t.g.f.p.s.R.E.E.E.E.E.E.E.E.E.E.E.E.R.p.k.g.k.r.e.7X7X7X7X7X7X7X7X7X7X7X7X7X7X7X7X7X7X7X7X7X7X",
"7X7X7X7X7X7X7X7X7X7X7X7X7X7X7X7X7X7X7Xw.w.w.g.R.f.a.E.E.E.E.E.E.E.E.E.E.E.E.E.R.s.Y.R.f.w.w.7X7X7X7X7X7X7X7X7X7X7X7X7X7X7X7X7X7X7X7X7X7X",
"7X7X7X7X7X7X7X7X7X7X7X7X7X7X7X7X7X7X7Xs.g.s.g.E.g.a.E.E.E.E.E.E.E.E.E.E.E.E.E.Y.s.Y.R.g.s.g.s.7X7X7X7X7X7X7X7X7X7X7X7X7X7X7X7X7X7X7X7X7X",
"7X7X7X7X7X7X7X7X7X7X7X7X7X7X7X7X7X7Xt.z.Y.f.f.Y.f.s.Y.E.E.E.E.E.E.E.E.E.E.E.E.R.s.g.n.f.f.n.z.7X7X7X7X7X7X7X7X7X7X7X7X7X7X7X7X7X7X7X7X7X",
"7X7X7X7X7X7X7X7X7X7X7X7X7X7X7X7X7X7Xj.f.R.R.s.f.f.g.E.E.E.E.E.E.E.E.E.E.E.E.E.E.f.s.f.a.R.R.s.7X7X7X7X7X7X7X7X7X7X7X7X7X7X7X7X7X7X7X7X7X",
"7X7X7X7X7X7X7X7X7X7X7X7X7X7X7X7X7X7Xt.f.E.R.f.s.a.R.E.E.E.E.E.E.E.E.E.E.E.E.E.E.n.w.s.f.E.R.s.7X7X7X7X7X7X7X7X7X7X7X7X7X7X7X7X7X7X7X7X7X",
"7X7X7X7X7X7X7X7X7X7X7X7X7X7X7X7X7X7Xj.f.R.E.g.w.a.R.E.E.E.E.E.E.E.E.E.E.E.E.E.E.g.w.a.R.E.R.s.7X7X7X7X7X7X7X7X7X7X7X7X7X7X7X7X7X7X7X7X7X",
"7X7X7X7X7X7X7X7X7X7X7X7X7X7X7X7X7X7X7Xf.R.E.g.w.p.Y.E.E.E.E.E.E.E.E.E.E.E.E.E.E.n.w.p.R.E.g.s.7X7X7X7X7X7X7X7X7X7X7X7X7X7X7X7X7X7X7X7X7X",
"7X7X7X7X7X7X7X7X7X7X7X7X7X7X7Xr.y.7X7Xp.g.R.R.s.a.E.E.E.E.E.E.E.E.E.E.E.E.E.E.E.g.w.f.E.R.f.t.7X7Xu.r.7X7X7X7X7X7X7X7X7X7X7X7X7X7X7X7X7X",
"7X7X7X7X7X7X7X7X7X7X7X7X7X7X7Xt.l.7X7Xw.f.E.E.g.a.R.E.E.E.E.E.E.E.E.E.E.E.E.E.E.g.a.R.E.R.s.7X7X7Xl.r.7X7X7X7X7X7X7X7X7X7X7X7X7X7X7X7X7X",
"7X7X7X7X7X7X7X7X7X7X7X7X7X7X7Xp.f.a.7Xw.g.E.E.g.a.R.E.E.E.E.E.E.E.E.E.E.E.E.E.E.g.a.R.E.R.s.7X7Xk.s.w.7X7X7X7X7X7X7X7X7X7X7X7X7X7X7X7X7X",
"7X7X7X7X7X7X7X7X7X7X7X7X7X7X7Xp.f.z.j.v.x.E.E.R.f.g.R.E.E.E.E.E.E.E.E.E.E.E.E.R.f.f.R.E.W.b.v.j.f.f.7X7X7X7X7X7X7X7X7X7X7X7X7X7X7X7X7X7X",
"7X7X7X7X7X7X7X7X7X7X7X7X7X7X7X7Xs.z.x.4X!.R.E.R.f.s.R.E.E.E.E.E.E.E.E.E.E.E.E.R.a.R.E.R.W.4X4Xx.g.p.7X7X7X7X7X7X7X7X7X7X7X7X7X7X7X7X7X7X",
"7X7X7X7X7X7X7X7X7X7X7X7X7X7X7X7Xa.Y.W.Q.m.b.E.R.b.f.g.E.E.E.E.E.E.E.E.E.E.E.R.g.f.R.E.E.b.m.Q.W.g.p.7X7X7X7X7X7X7X7X7X7X7X7X7X7X7X7X7X7X",
"7X7X7X7X7X7X7X7X7X7X7X7X7X7X7X7Xs.R.E.x.s.g.E.E.R.g.s.E.E.E.E.E.E.E.E.E.E.E.g.s.g.E.E.R.b.k.R.E.g.a.7X7X7X7X7X7X7X7X7X7X7X7X7X7X7X7X7X7X",
"7X7X7X7X7X7X7X7X7X7X7X7X7X7X7X7Xk.R.E.R.f.f.R.E.E.R.f.f.E.E.E.E.E.E.E.E.E.R.f.f.R.E.E.R.g.f.E.E.R.p.7X7X7X7X7X7X7X7X7X7X7X7X7X7X7X7X7X7X",
"7X7X7X7X7X7X7X7X7X7X7X7X7X7X7X7Xl.g.E.E.n.n.g.R.E.E.n.f.g.R.E.E.E.E.E.E.E.g.f.Y.E.R.R.f.g.R.E.R.f.j.7X7X7X7X7X7X7X7X7X7X7X7X7X7X7X7X7X7X",
"7X7X7X7X7X7X7X7X7X7X7X7X7X7X7X7X7Xk.g.R.E.R.n.f.E.E.R.f.f.R.E.E.E.E.E.h.q.f.g.R.E.R.f.g.R.E.R.f.7X7X7X7X7X7X7X7X7X7X7X7X7X7X7X7X7X7X7X7X",
"7X7X7X7X7X7X7X7X7X7X7X7X7X7X7X7X7X7Xj.f.R.R.n.s.n.E.E.g.d.9.7.7.7.7.8.t 8.d.R.E.R.g.f.R.E.R.s.7X7X7X7X7X7X7X7X7X7X7X7X7X7X7X7X7X7X7X7X7X",
"7X7X7X7X7X7X7X7X7X7X7X7X7X7X7X7X7X7X7Xk.g.E.E.R.d.c.q.7.t J D D D F P F 0 t 0.q.c.s.R.E.R.g.l.7X7X7X7X7X7X7X7X7X7X7X7X7X7X7X7X7X7X7X7X7X",
"7X7X7X7X7X7X7X7X7X7X7X7X7X7X7X7X7X7X7X7Xz.g.T.9.t 8 0 Q / V.L.L.F.=.=.Z.B.! R 0 8 8.q.Y.g.k.7X7X7X7X7X7X7X7X7X7X7X7X7X7X7X7X7X7X7X7X7X7X",
"7X7X7X7X7X7X7X7X7X7X7X7X7X7X7X7X7X7X7X7X7X7XM.Q ! { X.A.I.I.I.P.J.J.G.I.I.L.N.B...R 3 r r 7X7X7X7X7X7X7X7X7X7X7X7X7X7X7X7X7X7X7X7X7X7X7X",
"7X7X7X7X7X7X7X7X7X7X7X7X7X7X7X7X7X7X7X7X7X .U.U.F.J.J.J.P.P.G.J.J.K.J.I.I.I.I.I.D.O.! ! D 7X7X7X7X7X7X7X7X7X7X7X7X7X7X7X7X7X7X7X7X7X7X7X",
"7X7X7X7X7X7X7X7X7X7X7X7X7X7X7X7X7X7X7X4 / Z.P.G.P.P.K.J.J.J.-.K.P.K.J.P.I.I.I.K.3.K.L.L.N.! 7X7X7X7X7X7X7X7X7X7X7X7X7X7X7X7X7X7X7X7X7X7X",
"7X7X7X7X7X7X7X7X7X7X7X7X7X7X7X7X7X7XF ..L.I.K.-.P.I.I.P.-.2.3.K.P.I.I.I.I.I.G.K.J.G.I.I.P.A.~ 5 7X7X7X7X7X7X7X7X7X7X7X7X7X7X7X7X7X7X7X7X",
"7X7X7X7X7X7X7X7X7X7X7X7X7X7X7X7X7X5 X.I.I.I.P.K.P.I.I.G.J.3.K.J.K.P.I.I.P.K.J.K.K.3.P.I.I.I.L./ 4 7X7X7Xy /.d 7X7X7X7X7X7X7X7X7X7X7X7X7X",
"7X7X7X7X7X7X7X7X7X7X7X7X7X7X7X7X% ! S.P.P.I.I.P.P.P.K.J.K.P.P.K.J.J.K.G.K.2.J.P.K.2.P.I.I.P.P.$.G 7X7X7Xd XX^.7X7X7X7X7X7X7X7X7X7X7X7X7X",
"7X7X7X7X7X7X7X7X7X7X7X7X7X7X7X7XF $.-.-.K.P.I.P.K.3.J.K.P.I.P.P.P.J.3.J.3.3.G.I.P.K.P.I.P.P.J.=.^ # 7X7Xp [.x 7X7X7X7X7X7X7X7X7X7X7X7X7X",
"7X7X7X7X7X7X7X7X7X7X7X7X7X7X7X, { S.G.K.J.J.J.J.J.K.G.P.I.G.J.K.P.P.K.3.3.3.G.I.I.I.I.I.G.J.K.V.5 @ d y O d u 7X7X7X7X7X7X7X7X7X7X7X7X7X",
"7X7X7X7X7X7X7X7X7X7X7X7X7X7X7X: O.-.P.P.K.>.<.3.P.I.I.I.I.P.K.G.P.K.J.J.J.3.J.G.I.I.I.K.J.K.P.B.q /.XX/.i f i 7X7X7X7X7X7X7X7X7X7X7X7X7X",
"7X7X7X7X7X7X7X7X7X7X7X7X7X7X7X: $.K.P.G.J.-.-.-.G.P.I.I.I.I.P.P.K.J.K.P.I.P.K.J.K.K.K.3.K.P.K.O.7 s a y o u o 7X7X7X7X7X7X7X7X7X7X7X7X7X",
"7X7X7X7X7X7X7X7X7X7X7X7X7X7X7XG C.J.-.3.K.P.P.K.3.3.K.I.I.I.P.K.J.G.I.I.I.I.I.K.2.,.2.P.P.P.3.J.A...: 7X7X7X7X7X7X7X7X7X7X7X7X7X7X7X7X7X",
"7X7X7X7X7X7X7X7X7X7X7X7X7X7X$ #.-.-.K.P.G.K.P.P.P.K.J.K.P.K.J.J.P.P.G.K.P.I.I.P.3.3.3.J.P.G.K.G.P.I. .# 7X7X7X7X7X7X7X7X7X7X7X7X7X7X7X7X",
"7X7X7X7X7X7X7X7X7X7X7X7X7X7X$ 5.J.F.N. .{ ]  .F.I.I.G.-.2.2.-.P.I.P.J.3.P.I.P.K.3.P.P.J.3.J.P.P.I.I. .* 7X7X7X7X7X7X7X7X7X7X7X7X7X7X7X7X",
"7X7X7X7X7X7X7X7X7X7X7X7X7X7X$ &.-.@.Z b l M V ` A.P.K.3.2.<.3.K.P.P.K.K.P.P.K.J.K.P.P.G.K.3.3.J.K.J.[   7X7X7X7X7X7X7X7X7X7X7X7X7X7X7X7X",
"7X7X7X7X7X7X7X7X7X7X7X7X7X7X& C.1.6.].'._._.}.m K H.J.J.K.J.J.J.J.G.P.P.P.J.J.K.I.P.J.P.P.P.K.J.3.2.[ * 7X7X7X7X7X7X7X7X7X7X7X7X7X7X7X7X",
"7X7X7X7X7X7X7X7X7X7X7X7X7X7X& N.) C (.oX2X3X_.].1 &.G.P.G.G.P.G.K.J.K.K.J.J.P.I.I.K.3.K.I.P.K.J.J.K.[   7X7X7X7X7X7X7X7X7X7X7X7X7X7X7X7X",
"7X7X7X7X7X7X7X7X7X7X7X7X7X7X& N.W k (.1X6X2X|.`.3 C.P.P.J.J.P.P.P.J.>.2.3.P.I.I.I.P.K.P.P.K.J.K.P.I. .# 7X7X7X7X7X7X7X7X7X7X7X7X7X7X7X7X",
"7X7X7X7X7X7X7X7X7X7X7X7X7X7X5 A.) j }.'.|.|.}._.6 U.P.P.J.K.P.P.K.-.J.K.J.J.K.P.I.I.P.P.J.J.G.P.P.P.o., 7X7X7X7X7X7X7X7X7X7X7X7X7X7X7X7X",
"7X7X7X7X7X7X7X7X7X7X7X7X7X% ..L.V.` A n n n N e O.G.P.P.P.G.P.J.J.K.K.I.G.J.3.J.K.G.K.J.J.P.I.G.-.G.Z.! = 7X7X7X7X7X7X7X7X7X7X7X7X7X7X7X",
"7X7X7X7X7X7X7X7X7X7X7X7X7X, O.K.-.1.] L L K ! V.J.J.J.P.G.J.J.J.K.K.3.G.I.I.G.J.>.2.3.J.P.I.I.G.-.K.L.~ = 7X7X7X7X7X7X7X7X7X7X7X7X7X7X7X",
"7X7X7X7X7X7X7X7X7X7X7X7X7X- } 3.3.J.K.K.-.F.P.I.P.J.J.3.J.J.J.P.P.K.J.P.I.I.G.J.2.2.J.J.K.P.I.I.G.P.L.~ = 7X7X7X7X7X7X7X7X7X7X7X7X7X7X7X",
"7X7X7X7X7X7X7X7X7X7X7X7X7X- } K.P.P.P.P.-.G.P.P.P.J.J.3.3.J.P.P.I.I.P.P.P.K.J.J.J.K.P.K.J.J.K.P.I.I.L.~ = 7X7X7X7X7X7X7X7X7X7X7X7X7X7X7X",
"7X7X7X7X7X7X7X7X7X7X7X7X7X1 O.3.J.G.P.P.K.P.P.K.J.3.K.G.G.J.J.K.I.P.G.K.J.J.J.G.K.=.X. .| | &.3.K.K.;.U * 7X7X7X7X7X7X7X7X7X7X7X7X7X7X7X",
"7X7X7X7X7X7X7X7X7X7X7X7X7X% N.G.K.J.G.I.P.K.J.-.G.G.J.J.P.P.G.J.J.J.3.J.G.P.P.I.S._ C k k j 6 O.>.,.<.Y * 7X7X7X7X7X7X7X7X7X7X7X7X7X7X7X",
"7X7X7X7X7X7X7X7X7X7X7X7X7X3 N.I.P.K.3.3.3.3.J.P.P.P.J.J.I.I.I.J.,.,.>.J.G.P.I.C.H m }.(.(.[.).e +.3.*.U * 7X7X7X7X7X7X7X7X7X7X7X7X7X7X7X",
"7X7X7X7X7X7X7X7X7X7X7X7X7X% B.I.P.K.3.3.2.K.G.P.I.I.P.P.I.P.K.=.H.D.D.3.2.3.J. .w `.|.3X3X.X^.j ) L.F.~ = 7X7X7X7X7X7X7X7X7X7X7X7X7X7X7X",
"7X7X7X7X7X7X7X7X7X7X7X7X7X, o.-.-.-.J.P.K.J.3.J.P.I.P.P.P.O.Y L W K E ^ V.D.J.| w `.S 6X6XoXc j ) D.:.^ = 7X7X7X7X7X7X7X7X7X7X7X7X7X7X7X",
"7X7X7X7X7X7X7X7X7X7X7X7X7X1 } J.K.G.K.K.P.P.P.J.J.G.G.J.+._ m `.).).).b 6 / F.o.q `.'..X X'.`.C ) G.;.~ = 7X7X7X7X7X7X7X7X7X7X7X7X7X7X7X",
"7X7X7X7X7X7X7X7X7X7X7X7X7X1 O.P.I.P.-.J.P.I.I.P.J.3.>.#._ B $X:X>X:X:XOXk D L.L.! j c x x n A ' %.J.=.~ = 7X7X7X7X7X7X7X7X7X7X7X7X7X7X7X",
"7X7X7X7X7X7X7X7X7X7X7X7X7X% o.I.I.P.K.G.I.I.P.G.-.3.&.I w [.:X=X*X*X<X#X(.J V.G.&.P H H H L ) L.G.J.=.^ = 7X7X7X7X7X7X7X7X7X7X7X7X7X7X7X",
"7X7X7X7X7X7X7X7X7X7X7X7X7X1 } K.G.P.P.P.P.K.K.-.-.K.V.6 x OX>X=X*X=X=X&X{.V T :.J.S.Z.Z.Z.;.H.P.P.P.=.U * 7X7X7X7X7X7X7X7X7X7X7X7X7X7X7X",
"7X7X7X7X7X7X7X7X7X7X7X7X7X% | -.-.K.K.J.J.-.-.J.-.P.V.6 ~.@X<X>X&X>X-X>X#Xv Y :.3.K.P.P.P.K.K.I.P.K.*.Y = 7X7X7X7X7X7X7X7X7X7X7X7X7X7X7X",
"7X7X7X7X7X7X7X7X7X7X7X7X7X; G H.-.>.>.2.J.G.P.K.2.P.V.6 ~.&X-X-X,X,X=X<X+Xv ( H.K.J.3.J.G.P.G.K.J.J.o.5 7X7X7X7X7X7X7X7X7X7X7X7X7X7X7X7X",
"7X7X7X7X7X7X7X7X7X7X7X7X7X7X$ &.J.K.J.J.K.G.P.K.3.G.$.6 ~.@X<X-X-X-X-X<X+Xv ( *.K.P.K.J.J.3.3.>.3.K.X.# 7X7X7X7X7X7X7X7X7X7X7X7X7X7X7X7X",
"7X7X7X7X7X7X7X7X7X7X7X7X7X7X& C.P.P.K.K.J.-.K.K.3.K.O.6 /.@X<X*X*X*X*X<X+Xv ( *.K.P.P.P.J.3.2.2.3.J.|   7X7X7X7X7X7X7X7X7X7X7X7X7X7X7X7X",
"7X7X7X7X7X7X7X7X7X7X7X7X7X7X&  .I.P.J.K.P.K.3.2.2.3.%.6 /.@X<X*X*X*X*X<X$Xv ( S.P.P.K.J.J.3.K.P.P.;.U = 7X7X7X7X7X7X7X7X7X7X7X7X7X7X7X7X",
"7X7X7X7X7X7X7X7X7X7X7X7X7X7X7X5 N.L.F.F.L.L.=.:.:.4.O.6 ^.#X;X%X%X%X%X-XOXv E Z.F.H.=.H.F.=.H.L.L...& 7X7X7X7X7X7X7X7X7X7X7X7X7X7X7X7X7X",
"7X7X7X7X7X7X7X7X7X7X7X7X7X7X7X# : 4 4 > 4 > < > < < $ . O h g g g g g g p + # 4 > < > > 4 4 > 4 > : 7X7X7X7X7X7X7X7X7X7X7X7X7X7X7X7X7X7X"
};
