/* XPM */
static char *result[] = {
/* columns rows colors chars-per-pixel */
"68 68 208 2 ",
"   c #000101",
".  c #090500",
"X  c #000708",
"o  c #070A09",
"O  c #1E1101",
"+  c #0B0F1D",
"@  c #2A1B03",
"#  c #261D15",
"$  c #292319",
"%  c #041925",
"&  c #071E32",
"*  c #062639",
"=  c #432801",
"-  c #5D3502",
";  c #5A3909",
":  c #533A18",
">  c #52300B",
",  c #602A0A",
"<  c #6D3506",
"1  c #633B02",
"2  c #6D3D02",
"3  c #623D0D",
"4  c #633508",
"5  c #703C0B",
"6  c #653912",
"7  c #643714",
"8  c #5C4213",
"9  c #6C4101",
"0  c #66410D",
"q  c #7C4B04",
"w  c #714308",
"e  c #7B4B07",
"r  c #7D4E17",
"t  c #715F15",
"y  c #6B5B12",
"u  c #766B1B",
"i  c #565836",
"p  c #555437",
"a  c #7B5C25",
"s  c #7A572C",
"d  c #625631",
"f  c #795C3E",
"g  c #5C7B2D",
"h  c #667D2A",
"j  c #747822",
"k  c #6F682E",
"l  c #0B2D48",
"z  c #182648",
"x  c #043242",
"c  c #06354A",
"v  c #182D59",
"b  c #133650",
"n  c #202958",
"m  c #123962",
"M  c #233570",
"N  c #314A54",
"B  c #144675",
"V  c #1C5279",
"C  c #154669",
"Z  c #244A68",
"A  c #395B6D",
"S  c #33556C",
"D  c #285575",
"F  c #355C7A",
"G  c #3B6174",
"H  c #4C4F42",
"J  c #5E5A49",
"K  c #4F514D",
"L  c #645A45",
"P  c #655B55",
"I  c #666146",
"U  c #803D08",
"Y  c #864F04",
"T  c #8A560A",
"R  c #9D5B03",
"E  c #9C5908",
"W  c #894E12",
"Q  c #A75B08",
"!  c #B1590F",
"~  c #9C6B0C",
"^  c #876D17",
"/  c #9B6719",
"(  c #827118",
")  c #A76505",
"_  c #B46A02",
"`  c #B96D06",
"'  c #A67109",
"]  c #BB7405",
"[  c #B7681A",
"{  c #A06617",
"}  c #875E21",
"|  c #9A5A23",
" . c #804E2E",
".. c #816634",
"X. c #94672E",
"o. c #D05D12",
"O. c #C56C05",
"+. c #CC6C0A",
"@. c #CB670B",
"#. c #D36B0A",
"$. c #DB6E0E",
"%. c #C67601",
"&. c #CC7305",
"*. c #CD7B02",
"=. c #CB7A0A",
"-. c #D37505",
";. c #DA7C04",
":. c #DB720A",
">. c #D47C0A",
",. c #DB7A0A",
"<. c #D07D01",
"1. c #C86813",
"2. c #C77D12",
"3. c #D67014",
"4. c #D16A10",
"5. c #EC750D",
"6. c #EC7B0A",
"7. c #E77A08",
"8. c #F47D0B",
"9. c #FE7D0E",
"0. c #F2750E",
"q. c #E76713",
"w. c #FF6D17",
"e. c #FB6917",
"r. c #FF7413",
"t. c #FF7910",
"y. c #F37211",
"u. c #E47313",
"i. c #D0782D",
"p. c #8D6B47",
"a. c #649339",
"s. c #759E3A",
"d. c #6B872E",
"f. c #5DB54F",
"g. c #53B152",
"h. c #5FB554",
"j. c #56B358",
"k. c #4DB051",
"l. c #7AAA40",
"z. c #76AC42",
"x. c #63B64E",
"c. c #6CB94D",
"v. c #67B84E",
"b. c #7DB445",
"n. c #74BC4C",
"m. c #7BBE4C",
"M. c #75B549",
"N. c #64B752",
"B. c #6AB954",
"V. c #66B958",
"C. c #73BC52",
"Z. c #74BE5C",
"A. c #65A241",
"S. c #7FC04C",
"D. c #7CC266",
"F. c #7BC270",
"G. c #B28D17",
"H. c #CC870A",
"J. c #DC8301",
"K. c #E48303",
"L. c #EB8504",
"P. c #EB8B01",
"I. c #E88704",
"U. c #F48506",
"Y. c #F48D02",
"T. c #FF8D06",
"R. c #F58209",
"E. c #FF840B",
"W. c #FF8908",
"Q. c #F78809",
"!. c #F59101",
"~. c #FF9402",
"^. c #FF9800",
"/. c #EF8518",
"(. c #B48351",
"). c #82BF4B",
"_. c #83BA47",
"`. c #84C14B",
"'. c #8BC34A",
"]. c #83C259",
"[. c #82C368",
"{. c #87C77E",
"}. c #14588F",
"|. c #285C87",
" X c #077C97",
".X c #137C9B",
"XX c #18698C",
"oX c #2C6289",
"OX c #356487",
"+X c #2B6898",
"@X c #396D96",
"#X c #1768A8",
"$X c #097DA6",
"%X c #567994",
"&X c #0C8299",
"*X c #31888C",
"=X c #0484A1",
"-X c #6C8497",
";X c #768B9C",
":X c #658A87",
">X c #778FA2",
",X c #939A9F",
"<X c #909CA5",
"1X c #9AA6B0",
"2X c #A3ABB1",
"3X c #8AC881",
"4X c #D6D7D6",
"5X c None",
/* pixels */
"5X5X5X5X5X5X5X5X5X5X5X5X5X5X5X5X5X5X5X5X5X5X5X5X5X5X5X5X5X5X5X5X5X5X5X5X5X5X5X5X5X5X5X5X5X5X5X5X5X5X5X5X5X5X5X5X5X5X5X5X5X5X5X5X5X5X5X5X",
"5X5X5X5X5X5X5X5X5X5X5X5X5X5X5X5X5X5X5X5X5X5X5X5X5X5X5X5X5X5X5X5XB.5X5X5X5X5X5X5X5X5X5X5X5X5X5X5X5X5X5X5X5X5X5X5X5X5X5X5X5X5X5X5X5X5X5X5X",
"5X5X5X5X5X5X5X5X5X5X5X5X5X5X5X5X5X5X5X5X5X5X5X5X5X5X5X5X5X5XB.m.).m.B.5X5X5X5X5X5X5X5X5X5X5X5X5X5X5X5X5X5X5X5X5X5X5X5X5X5X5X5X5X5X5X5X5X",
"5X5X5X5X5X5X5X5X5X5X5X5X5X5X5X5X5X5X5X5X5X5X5X5X5X5X5X5X5XC.`.'.'.'.].n.5X5X5X5X5X5X5X5X5X5X5X5X5X5X5X5X5X5X5X5X5X5X5X5X5X5X5X5X5X5X5X5X",
"5X5X5X5X5X5X5X5X5X5X5X5X5X5X5X5X5X5X5X5X5X5X5X5X5X5X5X5XB.m.'.'.'.'.'.S.x.5X5X5X5X5X5X5X5X5X5X5X5X5X5X5X5X5X5X5X5X5X5X5X5X5X5X5X5X5X5X5X",
"5X5X5X5X5X5X5X5X5X5X5X5X5X5X5X5X5X5X5X5X5X5X5X5X5X5X5XB.m.'.'.'.'.'.'.`.m.B.5X5X5X5X5X5X5X5X5X5X5X5X5X5X5X5X5X5X5X5X5X5X5X5X5X5X5X5X5X5X",
"5X5X5X5X5X5X5X5X5X5X5X5X5X5X5X5X5X5X5X5X5X5X5X5X5X5XC.S.`.'.'.'.'.'.'.'.`.m.C.5X5X5X5X5X5X5X5X5X5X5X5X5X5X5X5X5X5X5X5X5X5X5X5X5X5X5X5X5X",
"5X5X5X5X5X5X5X5X5X5X5X5X5X5X5X5X5X5X5X5X5X5X5X5X5XN.m.`.'.'.'.'.'.'.'.'.'.`.m.N.5X5X5X5X5X5X5X5X5X5X5X5X5X5X5X5X5X5X5X5X5X5X5X5X5X5X5X5X",
"5X5X5X5X5X5X5X5X5X5X5X5X5X5X5X5X5X5X5X5X5X5Xj.5X5Xn.'.'.'.'.'.'.'.'.'.'.'.'.`.B.5X5Xj.5X5X5X5X5X5X5X5X5X5X5X5X5X5X5X5X5X5X5X5X5X5X5X5X5X",
"5X5X5X5X5X5X5X5X5X5X5X5X5X5X5X5X5X5X5Xk.g.V.N.N.f.m.'.'.'.'.'.'.'.'.'.'.'.'.`.n.N.N.N.V.g.k.5X5X5X5X5X5X5X5X5X5X5X5X5X5X5X5X5X5X5X5X5X5X",
"5X5X5X5X5X5X5X5X5X5X5X5X5X5X5X5X5X5X5Xg.g.N.m.m.c.n.'.'.'.'.'.'.'.'.'.'.'.'.'.n.c.m.m.N.g.g.5X5X5X5X5X5X5X5X5X5X5X5X5X5X5X5X5X5X5X5X5X5X",
"5X5X5X5X5X5X5X5X5X5X5X5X5X5X5X5X5X5X5XN.x.v.m.`.n.n.'.'.'.'.'.'.'.'.'.'.'.'.'.n.m.`.m.v.x.x.5X5X5X5X5X5X5X5X5X5X5X5X5X5X5X5X5X5X5X5X5X5X",
"5X5X5X5X5X5X5X5X5X5X5X5X5X5X5X5X5X5XN.n.m.c.m.).n.n.`.'.'.'.'.'.'.'.'.'.'.'.'.n.n.`.m.c.m.n.V.5X5X5X5X5X5X5X5X5X5X5X5X5X5X5X5X5X5X5X5X5X",
"5X5X5X5X5X5X5X5X5X5X5X5X5X5X5X5X5X5XN.n.).m.n.m.n.n.'.'.'.'.'.'.'.'.'.'.'.'.'.S.n.m.n.n.`.m.V.5X5X5X5X5X5X5X5X5X5X5X5X5X5X5X5X5X5X5X5X5X",
"5X5X5X5X5X5X5X5X5X5X5X5X5X5X5X5X5X5XN.n.`.S.n.c.c.`.'.'.'.'.'.'.'.'.'.'.'.'.'.'.c.c.n.m.`.m.V.5X5X5X5X5X5X5X5X5X5X5X5X5X5X5X5X5X5X5X5X5X",
"5X5X5X5X5X5X5X5X5X5X5X5X5X5X5X5X5X5XN.n.'.`.n.x.c.`.'.'.'.'.'.'.'.'.'.'.'.'.'.'.c.f.n.).`.m.V.5X5X5X5X5X5X5X5X5X5X5X5X5X5X5X5X5X5X5X5X5X",
"5X5X5X5X5X5X5X5X5X5X5X5X5X5X5X5X5X5XN.n.'.'.n.h.c.`.'.'.'.'.'.'.'.'.'.'.'.'.'.`.v.f.n.'.`.m.V.5X5X5X5X5X5X5X5X5X5X5X5X5X5X5X5X5X5X5X5X5X",
"5X5X5X5X5X5X5X5X5X5X5X5X5X5X5Xj.5X5X5Xn.).`.n.f.c.`.'.'.'.'.'.'.'.'.'.'.'.'.'.`.v.f.n.`.`.n.5X5X5Xj.5X5X5X5X5X5X5X5X5X5X5X5X5X5X5X5X5X5X",
"5X5X5X5X5X5X5X5X5X5X5X5X5X5X5Xg.h.5X5Xx.m.`.`.c.c.`.'.'.'.'.'.'.'.'.'.'.'.'.'.`.c.c.`.'.m.x.5X5Xh.g.5X5X5X5X5X5X5X5X5X5X5X5X5X5X5X5X5X5X",
"5X5X5X5X5X5X5X5X5X5X5X5X5X5X5Xx.B.5X5Xx.m.'.'.n.c.`.'.'.'.'.'.'.'.'.'.'.'.'.'.`.c.c.'.'.n.x.5X5XB.f.5X5X5X5X5X5X5X5X5X5X5X5X5X5X5X5X5X5X",
"5X5X5X5X5X5X5X5X5X5X5X5X5X5X5Xx.n.B.5XN.S.'.'.m.c.`.'.'.'.'.'.'.'.'.'.'.'.'.'.S.c.n.'.'.m.V.5XB.n.f.5X5X5X5X5X5X5X5X5X5X5X5X5X5X5X5X5X5X",
"5X5X5X5X5X5X5X5X5X5X5X5X5X5X5Xx.n.n.V.D.S.`.'.S.n.m.'.'.'.'.'.'.'.'.'.'.'.'.'.m.n.`.'.'.[.F.V.C.n.5X5X5X5X5X5X5X5X5X5X5X5X5X5X5X5X5X5X5X",
"5X5X5X5X5X5X5X5X5X5X5X5X5X5X5X5Xc.m.D.{.D.].'.`.n.n.'.'.'.'.'.'.'.'.'.'.'.'.`.n.S.'.'.`.[.3X[.m.c.5X5X5X5X5X5X5X5X5X5X5X5X5X5X5X5X5X5X5X",
"5X5X5X5X5X5X5X5X5X5X5X5X5X5X5X5Xc.`.].D.Z.S.'.'.`.n.m.'.'.'.'.'.'.'.'.'.'.`.S.c.S.'.'.S.S.D.].`.c.5X5X5X5X5X5X5X5X5X5X5X5X5X5X5X5X5X5X5X",
"5X5X5X5X5X5X5X5X5X5X5X5X5X5X5X5Xc.`.'.m.n.S.`.'.`.m.n.`.'.'.'.'.'.'.'.'.'.).n.n.'.'.`.m.n.m.'.`.n.5X5X5X5X5X5X5X5X5X5X5X5X5X5X5X5X5X5X5X",
"5X5X5X5X5X5X5X5X5X5X5X5X5X5X5X5XB.`.'.`.m.n.`.`.'.`.n.n.`.'.'.'.'.'.'.'.'.m.n.`.'.`.`.n.m.`.'.`.B.5X5X5X5X5X5X5X5X5X5X5X5X5X5X5X5X5X5X5X",
"5X5X5X5X5X5X5X5X5X5X5X5X5X5X5X5X5XC.`.'.`.S.n.S.'.'.m.n.S.`.'.'.'._.'._.b.n.m.'.'.`.m.m.`.'.`.n.5X5X5X5X5X5X5X5X5X5X5X5X5X5X5X5X5X5X5X5X",
"5X5X5X5X5X5X5X5X5X5X5X5X5X5X5X5X5X5Xn.S.'.`.n.n.`.'.`.m.M.z.l.z._._.s.d.A.m.`.'.`.n.n.`.'.).n.5X5X5X5X5X5X5X5X5X5X5X5X5X5X5X5X5X5X5X5X5X",
"5X5X5X5X5X5X5X5X5X5X5X5X5X5X5X5X5X5X5Xn.`.'.`.m.n.b.l.s.d.j u u u u t y g s.b.b.M.m.).'.`.n.5X5X5X5X5X5X5X5X5X5X5X5X5X5X5X5X5X5X5X5X5X5X",
"5X5X5X5X5X5X5X5X5X5X5X5X5X5X5X5X5X5X5XB.m.).).z.a.g j ^ ~ ] *.*.&.+.1.] ~ ( h d.a.l._.).m.5X5X5X5X5X5X5X5X5X5X5X5X5X5X5X5X5X5X5X5X5X5X5X",
"5X5X5X5X5X5X5X5X5X5X5X5X5X5X5X5X5X5X5X5X5XM.s.( ^ ~ _ H.P.^.^.~.E.E.T.!.P.*.' ~ ( h g a.5X5X5X5X5X5X5X5X5X5X5X5X5X5X5X5X5X5X5X5X5X5X5X5X",
"5X5X5X5X5X5X5X5X5X5X5X5X5X5X5X5X5X5X5X5X5XG.H.H.7.6.U.Y.^.^.T.E.E.E.~.^.^.~.!.P.-.E t t 5X5X5X5X5X5X5X5X5X5X5X5X5X5X5X5X5X5X5X5X5X5X5X5X",
"5X5X5X5X5X5X5X5X5X5X5X5X5X5X5X5X5X5X5X5X_ I.~.!.T.W.E.E.W.W.E.E.~.E.W.^.^.^.^.W.E.K.J.<.) 5X5X5X5X5X5X5X5X5X5X5X5X5X5X5X5X5X5X5X5X5X5X5X",
"5X5X5X5X5X5X5X5X5X5X5X5X5X5X5X5X5X5Xq _ K.!.W.E.^.~.~.W.t.r.E.~.~.T.~.^.^.~.~.E.W.T.~.!.K._ Y 5X5X5X5X5X5X5X5X5X5X5X5X5X5X5X5X5X5X5X5X5X",
"5X5X5X5X5X5X5X5X5X5X5X5X5X5X5X5X5Xe ] P.^.^.W.W.^.^.~.T.9.9.E.W.~.~.^.~.~.W.E.E.E.T.^.^.^.P.] e 5X5X5X& B m 5X5X5X5X5X5X5X5X5X5X5X5X5X5X",
"5X5X5X5X5X5X5X5X5X5X5X5X5X5X5X5X3 ) L.~.^.^.^.^.^.~.~.E.W.T.T.E.W.T.~.~.W.E.E.T.t.E.^.^.^.^.L.) 4 5X5Xc #X}.& 5X5X5X5X5X5X5X5X5X5X5X5X5X",
"5X5X5X5X5X5X5X5X5X5X5X5X5X5X5X5XY -.E.E.T.^.^.^.W.E.E.T.~.~.~.T.E.E.W.E.t.E.T.~.E.E.^.^.~.~.E.+.w 5X5Xl #X}.& 5X5X5X5X5X5X5X5X5X5X5X5X5X",
"5X5X5X5X5X5X5X5X5X5X5X5X5X5X5X3 ` U.W.E.E.W.T.E.E.E.T.^.^.W.W.~.~.W.E.t.t.E.~.^.~.~.^.~.T.Q.Q.` 8 z l * B m % 5X5X5X5X5X5X5X5X5X5X5X5X5X",
"5X5X5X5X5X5X5X5X5X5X5X5X5X5X5X9 :.E.~.T.E.r.r.9.T.~.~.^.^.W.E.~.~.T.E.t.t.E.T.~.~.^.~.W.E.W.Y.T N #X}.b M n + 5X5X5X5X5X5X5X5X5X5X5X5X5X",
"5X5X5X5X5X5X5X5X5X5X5X5X5X5X5X9 ;.E.~.~.E.t.r.E.T.^.^.^.^.~.~.^.W.E.T.~.T.W.E.W.~.~.W.E.T.T.U.T N V B l n z + 5X5X5X5X5X5X5X5X5X5X5X5X5X",
"5X5X5X5X5X5X5X5X5X5X5X5X5X5X5XY 7.T.E.9.E.~.T.E.9.E.~.^.^.^.~.E.E.T.~.^.^.~.T.E.r.r.E.T.^.W.E.>.) 8 $ 5X5X5X5X5X5X5X5X5X5X5X5X5X5X5X5X5X",
"5X5X5X5X5X5X5X5X5X5X5X5X5X5X, #.8.9.E.T.T.T.~.~.E.E.E.~.~.T.E.E.~.~.T.~.^.^.^.W.r.w.E.T.T.T.E.T.!.*.w 5X5X5X5X5X5X5X5X5X5X5X5X5X5X5X5X5X",
"5X5X5X5X5X5X5X5X5X5X5X5X5X5X, q.E.T.K.J.:.$.L.!.^.~.W.9.t.t.E.~.^.T.t.W.^.^.~.E.E.T.E.E.E.W.T.^.^.I.w 5X5X5X5X5X5X5X5X5X5X5X5X5X5X5X5X5X",
"5X5X5X5X5X5X5X5X5X5X5X5X5X5X4 5.9.2...I J L ..2.!.^.E.r.w.w.E.~.^.~.E.W.^.T.W.W.T.^.T.E.t.E.W.W.T.6.5 5X5X5X5X5X5X5X5X5X5X5X5X5X5X5X5X5X",
"5X5X5X5X5X5X5X5X5X5X5X5X5X5X4 L.u.p.OX|.F |.OXL ] R.E.E.E.9.9.E.T.~.~.~.T.W.W.T.^.T.T.~.T.T.t.E.t.5.5 5X5X5X5X5X5X5X5X5X5X5X5X5X5X5X5X5X",
"5X5X5X5X5X5X5X5X5X5X5X5X5X5X- J.[ K +X-X<X>X@XS W 7.T.T.T.T.T.E.E.W.T.T.E.W.T.^.~.E.E.~.^.T.E.E.E.5.5 5X5X5X5X5X5X5X5X5X5X5X5X5X5X5X5X5X",
"5X5X5X5X5X5X5X5X5X5X5X5X5X5X; J./ Z oX<X4X2X@XD r K.^.T.E.T.^.~.W.t.t.t.E.~.^.^.^.W.W.~.T.W.W.T.~.L.w 5X5X5X5X5X5X5X5X5X5X5X5X5X5X5X5X5X",
"5X5X5X5X5X5X5X5X5X5X5X5X5X5Xq K.{ N +X%X;X%X+XA T L.^.T.E.~.^.^.E.E.E.t.E.W.~.~.^.~.~.T.W.W.T.~.~.Y.Y 5X5X5X5X5X5X5X5X5X5X5X5X5X5X5X5X5X",
"5X5X5X5X5X5X5X5X5X5X5X5X5X; ` !.>...F |.Z F G f >.Y.^.~.T.~.~.E.E.E.T.~.E.E.E.W.T.~.T.E.E.~.^.E.W.Y.` ; 5X5X5X5X5X5X5X5X5X5X5X5X5X5X5X5X",
"5X5X5X5X5X5X5X5X5X5X5X5X# 3 ;.W.8.3.| ..s a / >.E.E.T.~.T.E.E.E.T.E.E.^.~.~.E.t.r.t.E.W.^.^.~.E.E.~.=.0 5X5X5X5X5X5X5X5X5X5X5X5X5X5X5X5X",
"5X5X5X5X5X5X5X5X5X5X5X5X# 7 $.t.t.E.R.6.6.L.Y.~.W.E.9.9.E.9.E.~.~.E.W.^.^.^.W.9.r.t.E.W.T.^.^.T.T.!.*.0 5X5X5X5X5X5X5X5X5X5X5X5X5X5X5X5X",
"5X5X5X5X5X5X5X5X5X5X5X5X# 7 $.W.T.~.~.W.9.T.^.^.~.E.9.t.9.E.~.^.~.~.~.~.~.E.E.E.E.W.T.E.E.W.~.^.^.^.*.0 5X5X5X5X5X5X5X5X5X5X5X5X5X5X5X5X",
"5X5X5X5X5X5X5X5X5X5X5X5X# 7 :.9.W.~.~.~.W.~.~.W.E.9.E.T.E.E.W.~.^.^.T.E.t.E.W.T.E.6.;.;.:.5.8.E.T.T.+.6 5X5X5X5X5X5X5X5X5X5X5X5X5X5X5X5X",
"5X5X5X5X5X5X5X5X5X5X5X5X# 0 J.Q.E.E.~.~.~.W.E.E.T.W.E.T.~.~.E.E.E.E.E.E.T.~.^.T.4. .H H K s 1.0.w.e.o.6 5X5X5X5X5X5X5X5X5X5X5X5X5X5X5X5X",
"5X5X5X5X5X5X5X5X5X5X5X5X# 0 J.~.~.E.E.t.t.t.E.~.^.T.E.E.^.^.T.9.e.e.r.W.~.~.~.=.L |.oX}.|.oXL [ y.r.1.6 5X5X5X5X5X5X5X5X5X5X5X5X5X5X5X5X",
"5X5X5X5X5X5X5X5X5X5X5X5X# 0 J.^.~.W.t.t.t.E.T.~.^.^.T.~.^.~.E.9.t.E.E.t.t.E.U./ A +X-X2X;XoXZ } I.Q.&.6 5X5X5X5X5X5X5X5X5X5X5X5X5X5X5X5X",
"5X5X5X5X5X5X5X5X5X5X5X5X# 6 ;.E.E.E.E.T.W.E.E.W.~.^.^.^.Q.3.! E R R _ -.U.E.8.| OX@X,X4X2XG Z } K.9.+.0 5X5X5X5X5X5X5X5X5X5X5X5X5X5X5X5X",
"5X5X5X5X5X5X5X5X5X5X5X5X# 7 :.E.W.W.E.T.~.~.T.E.E.T.T./.(.P # O O O @ ; R J.Y./ F +X%X-X%X+XZ } K.E.&.0 5X5X5X5X5X5X5X5X5X5X5X5X5X5X5X5X",
"5X5X5X5X5X5X5X5X5X5X5X5X$ 6 ,.~.^.W.9.E.~.^.~.T.9.r.r.i.:XXX&         o - %.!.=.p Z V Z D A I 1.8.E.&.0 5X5X5X5X5X5X5X5X5X5X5X5X5X5X5X5X",
"5X5X5X5X5X5X5X5X5X5X5X5X# 6 ;.^.^.^.W.T.^.^.~.W.9.9.q.X.*X X*           = _ Y.U.! r a a } / u.T.E.t.#.6 5X5X5X5X5X5X5X5X5X5X5X5X5X5X5X5X",
"5X5X5X5X5X5X5X5X5X5X5X5X# 7 :.W.~.~.~.^.~.T.E.9.E.T.%.d .X X*           O U q.y.8.I.I.I.7.6.T.^.~.Q.@.6 5X5X5X5X5X5X5X5X5X5X5X5X5X5X5X5X",
"5X5X5X5X5X5X5X5X5X5X5X5X$ ; #.t.E.E.E.E.E.9.E.9.9.T.*.i .X$Xx X         . , o.r.E.T.!.^.T.W.~.^.T.9.@.7 5X5X5X5X5X5X5X5X5X5X5X5X5X5X5X5X",
"5X5X5X5X5X5X5X5X5X5X5X5X5X: E U.t.r.r.r.E.T.T.E.9.T.%.i .X$Xx X         . - -.E.E.E.E.W.~.T.T.E.E.U.E : 5X5X5X5X5X5X5X5X5X5X5X5X5X5X5X5X",
"5X5X5X5X5X5X5X5X5X5X5X5X5X5X4 5.E.E.E.E.E.~.~.E.9.T.O.p .X$Xx           . - #.E.T.T.E.E.t.E.r.r.E.U.w 5X5X5X5X5X5X5X5X5X5X5X5X5X5X5X5X5X",
"5X5X5X5X5X5X5X5X5X5X5X5X5X5X4 L.^.~.W.E.E.E.E.E.9.E.@.p  X=Xx           . - #.9.T.^.~.E.9.r.r.t.9.6.5 5X5X5X5X5X5X5X5X5X5X5X5X5X5X5X5X5X",
"5X5X5X5X5X5X5X5X5X5X5X5X5X5X1 <.~.~.E.W.T.E.9.r.r.t.O.i &X&Xx X         . - -.T.^.T.E.E.9.E.T.^.Q.@.6 5X5X5X5X5X5X5X5X5X5X5X5X5X5X5X5X5X",
"5X5X5X5X5X5X5X5X5X5X5X5X5X5X5XY J.!.Y.Y.!.Y.8.e.y.y.` p  X&Xx         X . - *.!.T.8.R.U.Q.8.T.!.;.Y 5X5X5X5X5X5X5X5X5X5X5X5X5X5X5X5X5X5X",
"5X5X5X5X5X5X5X5X5X5X5X5X5X5X5X= 1 9 9 9 9 2 < 2 < < > $ * c % X X X X o o @ - 1 < < 2 9 9 1 9 1 1 = 5X5X5X5X5X5X5X5X5X5X5X5X5X5X5X5X5X5X"
};
