/* XPM */
static char *result[] = {
/* columns rows colors chars-per-pixel */
"61 67 224 2 ",
"   c #010101",
".  c #090604",
"X  c #0A0903",
"o  c #0B0A0B",
"O  c #030509",
"+  c #100F04",
"@  c #110C09",
"#  c #141205",
"$  c #19110F",
"%  c #191708",
"&  c #0B0E13",
"*  c #131312",
"=  c #1A1A19",
"-  c #1C1612",
";  c #111116",
":  c #221714",
">  c #251A14",
",  c #340505",
"<  c #26230B",
"1  c #2A260B",
"2  c #2D290B",
"3  c #322D0D",
"4  c #37330F",
"5  c #282319",
"6  c #32231D",
"7  c #2C3205",
"8  c #071B2C",
"9  c #252524",
"0  c #2D2D2D",
"q  c #3A2822",
"w  c #38352E",
"e  c #353432",
"r  c #3D3B31",
"t  c #3D3D3D",
"y  c #04233D",
"u  c #433E12",
"i  c #4B352D",
"p  c #4A342C",
"a  c #543B31",
"s  c #583E34",
"d  c #45352E",
"f  c #591B17",
"g  c #4A4513",
"h  c #544D17",
"j  c #5B5316",
"k  c #5A5717",
"l  c #464F06",
"z  c #655D1A",
"x  c #635B17",
"c  c #6A611B",
"v  c #72691E",
"b  c #70671D",
"n  c #7B711E",
"m  c #564639",
"M  c #514D32",
"N  c #65473B",
"B  c #71593A",
"V  c #736B21",
"C  c #7C7323",
"Z  c #756E38",
"A  c #7B7236",
"S  c #6B642B",
"D  c #0D304E",
"F  c #134872",
"G  c #444444",
"H  c #4C4C4A",
"J  c #54524E",
"K  c #545455",
"L  c #5D5D5D",
"P  c #575758",
"I  c #6E4E42",
"U  c #755245",
"Y  c #785446",
"T  c #7B5648",
"R  c #6B544B",
"E  c #79744B",
"W  c #63625B",
"Q  c #73714B",
"!  c #646464",
"~  c #6D6C6D",
"^  c #686565",
"/  c #77756E",
"(  c #737374",
")  c #7B7B7B",
"_  c #5F6064",
"`  c #A1231E",
"'  c #F90706",
"]  c #F80807",
"[  c #F50807",
"{  c #E10E0C",
"}  c #C72924",
"|  c #D43E3D",
" . c #D41D19",
".. c #94453A",
"X. c #847A24",
"o. c #827937",
"O. c #81675D",
"+. c #837E54",
"@. c #837862",
"#. c #D94B4A",
"$. c #E15353",
"%. c #F76564",
"&. c #F4706F",
"*. c #889213",
"=. c #8D8325",
"-. c #968A26",
";. c #958A29",
":. c #9A8E2A",
">. c #938826",
",. c #9E9229",
"<. c #9D9026",
"1. c #8E853A",
"2. c #A19528",
"3. c #A79A2A",
"4. c #AB9E2B",
"5. c #A09327",
"6. c #A69A36",
"7. c #AEA12C",
"8. c #B8AA2E",
"9. c #BAAC39",
"0. c #B5A835",
"q. c #BEB039",
"w. c #C4B432",
"e. c #CEBE33",
"r. c #C3B53A",
"t. c #C5B62F",
"y. c #C9D51A",
"u. c #CEE810",
"i. c #D3C234",
"p. c #D8C736",
"a. c #D9C935",
"s. c #DACA3A",
"d. c #CFC038",
"f. c #E3D136",
"g. c #EEDB3A",
"h. c #E6D53A",
"j. c #F2DF3B",
"k. c #E1CF36",
"l. c #F5E23C",
"z. c #F9E63C",
"x. c #FEEB3C",
"c. c #FEE937",
"v. c #FFF03F",
"b. c #948D56",
"n. c #8F8851",
"m. c #A49C59",
"M. c #B8AE58",
"N. c #8E8D76",
"B. c #BBB57A",
"V. c #B2AB70",
"C. c #C5B845",
"Z. c #C5BD73",
"A. c #C2BB7A",
"S. c #D9CC5A",
"D. c #DED15B",
"F. c #D2C44B",
"G. c #ECDC49",
"H. c #E4D658",
"J. c #F0DE42",
"K. c #F5E346",
"L. c #F9E642",
"P. c #FDEA44",
"I. c #F7E549",
"U. c #FFF242",
"Y. c #FEED57",
"T. c #D5C965",
"R. c #CBC274",
"E. c #D4CA6D",
"W. c #FAED75",
"Q. c #FEF17B",
"!. c #FEEF63",
"~. c #17568A",
"^. c #1D6BA9",
"/. c #486F8E",
"(. c #637A8C",
"). c #1B7FCF",
"_. c #7590A5",
"`. c #268BDC",
"'. c #2A97ED",
"]. c #74A2C7",
"[. c #76B8EC",
"{. c #848484",
"}. c #8C8C8C",
"|. c #878988",
" X c #9B998A",
".X c #939494",
"XX c #999694",
"oX c #9D9C9C",
"OX c #9B9996",
"+X c #A19C98",
"@X c #A8A488",
"#X c #A3A298",
"$X c #B5B187",
"%X c #A4A4A4",
"&X c #ACACAC",
"*X c #A7A7A8",
"=X c #BABABA",
"-X c #B8B6B5",
";X c #9EA5A9",
":X c #FAA688",
">X c #C3BA9F",
",X c #D4CC86",
"<X c #FEF286",
"1X c #FDF5AA",
"2X c #FDF6A9",
"3X c #FFF9BF",
"4X c #FEF5B4",
"5X c #E6DF97",
"6X c #A9D4F5",
"7X c #93C5EB",
"8X c #C9C9C8",
"9X c #D6D6D5",
"0X c #D0D1D3",
"qX c #FDF9CE",
"wX c #D0EBFB",
"eX c #ECECEC",
"rX c #E6E5E5",
"tX c #FAFAEA",
"yX c #F4F4F4",
"uX c #FEFEFE",
"iX c #FEFBF5",
"pX c #EFF2F4",
"aX c #D6DED6",
"sX c None",
/* pixels */
"sXsXsXsXsXsXsXsXsXsXsXsX            sXsX                sXsXsXsXsX                sXsX  j K.7.    sXsXsXsXsXsXsXsXsXsXsXsX",
"sXsXsXsXsXsXsXsXsXsXsXsX9 0 2 < #   sXsX1 1 1 1 1 1 +     sXsXsX    # 2 1 1 %     sXsX  x l.8.1 1 sXsXsXsXsXsXsXsXsXsXsXsX",
"sXsXsXsXsXsXsXsXsXsX  . }.0XE.t.g       >.i.i.i.i.i.g               g i.i.i.n X         k j.j.i.>.X   sXsXsXsXsXsXsXsXsXsX",
"sXsXsXsXsXsXsXsXsXsX= 9 %XrXW.l.n < 1 1 8.v.x.x.x.v.n < 1 1 1 1 1 < n v.x.v.4.4 1 1 1 1 n j.c.x.8.3 < sXsXsXsXsXsXsXsXsXsX",
"sXsXsXsXsXsXsXsX  * ~ |.#X&XH.x.k.e.i.i.g.x.x.x.x.x.f.i.i.i.i.i.i.i.f.x.x.x.g.i.i.i.i.i.k.l.x.c.g.p.=.#   sXsXsXsXsXsXsXsX",
"sXsXsXsXsXsXsXsXo 9 N.@XOX.XD.x.x.x.x.x.x.x.x.x.x.x.x.x.x.c.x.x.c.x.x.x.x.x.c.x.x.x.x.x.x.x.x.x.x.x.2.+   sXsXsXsXsXsXsXsX",
"sXsXsXsXsXsX  = (  XD.G.A t r.x.x.c.x.x.x.x.x.x.x.x.x.x.x.x.x.c.x.x.c.x.x.v.x.x.x.x.x.x.x.c.x.x.x.v.2.+   sXsXsXsXsXsXsXsX",
"sXsXsXsXsXsX  - N.R.K.L.A w q.x.x.x.x.x.x.c.e.7.f.x.e.7.k.x.x.x.x.x.x.x.f.7.e.x.f.7.t.x.x.x.x.x.x.x.2.+   sXsXsXsXsXsXsXsX",
"sXsXsXsXsXsX  < e.L.x.l.A e q.x.x.x.x.x.x.j.V % 3.U.c % ,.x.c.x.x.c.x.z.3.% v x.7.% c l.x.x.x.x.x.v.,.#   sXsXsXsXsXsXsXsX",
"sXsXsXsXsXsX  < i.x.x.l.A e q.v.x.x.c.x.x.g.z   n w.g   >.x.x.x.x.x.x.x.,.  g q.n   k l.x.x.x.x.x.x.2.#   sXsXsXsXsXsXsXsX",
"sXsXsXsXsXsX  < e.x.x.l.A w q.x.x.x.x.x.x.j.z         X -.x.c.x.x.x.x.x.,.X         k l.x.x.x.x.x.x.2.X   sXsXsXsXsXsXsXsX",
"sXsXsXsXsXsX9 M p.x.x.l.n.J C.v.c.x.x.x.i.7.Z G G G G H M.W.Y.x.x.x.k.8.1.H G G G G n.W.Y.x.x.x.x.v.2.+   sXsXsXsXsXsXsXsX",
"sXsXsXsX  o {.@XG.v.x.c.V.OXH.v.x.x.x.P.k # .XyXpXeXeXeXeXtXW.x.x.v.3.X W rXeXeXeXeXpXtX2XP.x.x.x.v.2.#   sXsXsXsXsXsXsXsX",
"sXsXsXsXg h V.B.M.r.q.M.M.$XT.H.K.z.e.0.Q K -XuXuXuXuXuXuXyX1XW.D.8.1.H }.uXuXuXuXuXuXuXqX<X!.x.x.x.2.X   sXsXsXsXsXsXsXsX",
"sXsX  1 t.h.L.F.S M M M q.K.B.@XD.L.c # oXeXyXuXuXuXuXuXuXuXiXtX X% W eXpXuXuXuXuXuXuXuXiXtX4Xx.c.v.2.#   sXsXsXsXsXsXsXsX",
"sXsX  1 i.v.v.h.M 0 e r 9.x.V.}.F.z.j   *XuXuXuXuXuXwXwX0X8XeXuX.XO L uXuXuXpXwXaX8X9XuXuXuX3Xx.x.v.,.+   sXsXsXsXsXsXsXsX",
"sXsX  1 i.x.x.s.M e r r q.x.Z d 0.z.j   *XuXuXuXuXuX[.'.F   oXuX.X. L uXuXuX6X'.^.. L yXuXuX3Xx.x.v.2.#   sXsXsXsXsXsXsXsX",
"sXsX  < M.G.z.G.Q H K J C.x.Z r 0.z.j   *XuXuXuXuXuX].^.D   ( =X~   L uXuXiX6X).F   G -X9XuX3Xx.x.x.2.X   sXsXsXsXsXsXsXsX",
"sXsX  = N.$XK.G.@X.X.XXXS.x.Z r 0.z.k   &XuXuXuXuXuX_       o & o   L uXuXuXoX;     O o ~ pX4Xx.c.v.2.#   sXsXsXsXsXsXsXsX",
"sXsX  = _ / J.K.R.$XB.B.G.P.Z r 0.K.k   ( =XrXuXuXuX(.y &   8 D 8   L uXuXuX&XD 8   O D (.pXqXc.x.v.,.+   sXsXsXsXsXsXsXsX",
"sXsXsXsX& 5 h.x.L.K.K.K.x.x.Z M 0.z.k   * 9 %XuXuXuX[.`.D O ~.`.F   _ uXuXuX6X`.~.  D `.[.pXqXc.x.x.2.+   sXsXsXsXsXsXsXsX",
"sXsXsXsX  + f.x.x.x.x.x.x.x.n.W C.x.2.c c b N..X9XuX6X[._.^ ].7X/.O e .X.X.X(.~.D   8 ~./.|.V.z.c.v.2.#   sXsXsXsXsXsXsXsX",
"sXsXsXsX  # h.x.x.x.x.L.x.P.$X#XT.x.x.z.P.g.x   ;XuXuXuXuXuXuXuX.Xo     O                   h x.x.v.2.X   sXsXsXsXsXsXsXsX",
"sXsXsXsXsX# X.,.h.j.0.6.6.6.M.R.E.T.G.x.x.z.4.c @.}.}.}.}.}.}.}.@.V b V b b V b b b b V g   h x.x.x.2.#   sXsXsXsXsXsXsXsX",
"sXsXsXsXsXsX. 2 i.f.M d r r q.I.A.#XH.P.x.x.l.g.j O O O O   O O c g.l.L.x.L.x.L.x.L.z.P.:.  g x.x.v.,.#   sXsXsXsXsXsXsXsX",
"sXsXsXsXsXsX  < e.J.E ! L ! C.x.m./ C.x.x.x.x.x.2.z z z z c z z 3.z.p.;.;.;.;.;.;.;.;.;.X.c :.x.x.x.2.#   sXsXsXsXsXsXsXsX",
"sXsXsXsXsXsX  < e.I.$X;X+XoXD.l.o.e 9.P.x.x.x.x.x.U.x.x.x.U.x.x.v.v.,.                  z l.x.x.x.x.2.X   sXsXsXsXsXsXsXsX",
"sXsXsXsXsXsX  1 e.K.T.R.Z.Z.G.l.o.r 9.x.0.>.;.-.p.x.x.x.x.x.x.x.c.x.t.c z c c c u   < z 2.l.x.x.x.v.2.+   sXsXsXsXsXsXsXsX",
"sXsXsXsXsXsX  < e.P.x.x.L.x.x.j.o.r 9.x.j   . X 2.x.x.x.x.x.x.x.c.x.x.z.z.z.z.P.2.  j j.z.x.x.c.x.v.2.#   sXsXsXsXsXsXsXsX",
"sXsXsXsXsXsX  < C ,.h.x.x.x.x.l.o.r 9.x.2.c c b X.=.p.x.x.x.x.x.x.x.x.c.x.x.x.v.3.  j l.x.x.x.x.x.x.2.X   sXsXsXsXsXsXsXsX",
"sXsXsXsXsXsXsXsXX 2 i.x.x.x.x.j.o.w 0.x.l.l.l.g.k   3.U.v.x.U.U.U.U.U.P.x.U.v.v.4.  j l.x.x.x.x.c.v.2.#   sXsXsXsXsXsXsXsX",
"sXsXsXsXsXsXsXsX  < d.c.x.x.x.l.b.W C.x.x.x.x.x.:.z X.:.:.:.:.:.:.;.:.:.,.:.,.,.z   j l.x.c.x.x.x.v.,.+   sXsXsXsXsXsXsXsX",
"sXsXsXsXsXsXsXsX  1 d.P.P.x.x.K.A.#XD.x.x.x.x.x.x.U.k                               j l.x.x.x.x.x.x.2.+   sXsXsXsXsXsXsXsX",
"sXsXsXsXsXsXsXsX  5 R.<X<X<XY.c.S.Z.E.T.J.c.x.x.x.x.<.k 1   t ! ! ! t   9 ! ! ! G   j l.x.x.x.c.x.x.2.+   sXsXsXsXsXsXsXsX",
"sXsXsXsXsXsXsXsX  9 8XuXuXiXQ.c.P.L.A.#XD.x.x.x.x.x.x.g.z   oXuXuXuXoX  L yXuXuX*X  j l.c.x.x.x.x.v.2.X   sXsXsXsXsXsXsXsX",
"sXsX          9 {.&XeXuXuXuXW.c.x.L.b.L C.x.x.c.x.x.x.z.w.;.E W ! ! E :.+.! ! ! Q <.8.x.x.x.x.x.x.x.2.#   sXsXsXsXsXsXsXsX",
"sXsXX X o O O 0 0XuXyXyXuXuXQ.c.x.l.A e 9.x.x.x.x.x.x.x.x.x.x .     x U.2.X     j x.x.x.x.x.x.x.x.x.2.#   sXsXsXsXsXsXsXsX",
"  < X.1.N..X.X%XeXeX|.( 8XuXqX2X!.l.A w 9.x.x.x.x.x.c.x.x.z.8.>.>.=.8.x.a.>.=.=.8.x.x.x.x.x.x.x.x.v.2.X             sXsXsX",
"  1 i.!.qXuXuXuXuX9X0 . *XuXuXtX<Xz.A w 9.x.x.x.c.z.x.x.x.x.x.x.x.x.x.x.x.x.x.x.x.x.x.x.x.x.x.x.x.x.2.%   . . X .   X sXsX",
"  1 i.G.@.^ ! ^ ^ ! 9 sXP ~ R.<XY.l.A w 9.x.x.x.x.x.x.x.x.x.x.x.x.x.x.x.x.x.x.x.x.x.x.c.z.x.x.x.x.x.a.<.-.-.-.-.-.-.X.<   ",
"  1 i.p.2         . sXsX    7.x.x.l.o.w 9.v.x.x.x.x.x.x.x.x.x.x.x.x.x.x.x.x.x.x.x.x.z.c.x.x.x.x.x.x.x.x.x.z.x.x.x.x.d.1   ",
"  1 p.a.2   sXsXsXsXsXsX    7.P.x.P.m.@.C.P.x.x.x.x.x.x.z.x.<X4X5XA.,X4X<Xx.z.x.x.x.x.x.x.x.x.x.x.x.x.x.x.x.x.x.x.v.i.1   ",
"  1 i.a.2   sXsXsXsXsXsX    4.U.P.I.$X#XT.z.L.P.P.P.P.P.P.I.4XiX0X+X=XuX4XI.P.P.P.P.P.P.P.U.L.l.l.P.I.L.l.l.l.l.z.x.i.1   ",
"  1 i.a.2   sXsXsXsXsXsX    V.4X1X1XaX9Xb.V Z.2X1X1X1X1X1X1X:X&.%.$.$.&.:X1X1X1X1X1X1X1X2X4XR.b b.1XR.V V V b b =.h.i.1   ",
"  1 p.a.2   sXsXsXsXsXsX    &XuXuXuXuXuXP . OXuXuXuXuXuXuXuX%.' ' ' ' ' %.iXuXuXuXuXuXuXuXuX&X  K iX+X&         1 p.p.1   ",
"  2 i.a.2         sXsXsX    &XiXuXuXuXuX=X.X) ~ 8XuXuXuXuXuX%.' ' ' ' [ %.iXuXuXuXuXuXuX8X( ( .X|.~ P sXsXsXsX  2 p.i.1   ",
"  1 i.a.4 % % % .   sXsX    +XiXyXyXyXyXyXrX~ * %XyXyXyXyXyX%.' ' ' ' [ %.yXyXyXyXyXyXyXoX= P yX%Xo   sXsXsXsX  2 a.i.1   ",
"  1 i.l.w.8.8.-.<   sXsX    _.=X=X=X=X=X=X-X}.( +X=X=X=X-X-X$.' ' ' ' ' #.-X-X-X=X=X=X=XoX( |.=X) .   sXsXsXsX  2 a.i.1   ",
"  1 i.x.x.v.v.a.3   sXsX    ^ OXXXXXXXXXXXXXOXOXOXXXXXXXXXXX| ' ] ] ] ] | XXXXXXXXXXXXXXXX+XOXXX^ .   sXsXsXsX  2 a.i.1   ",
"  1 i.x.x.x.x.p.2   sXsX    H O.O.O.O.O.O.O.O.O.O.O.O.O.O.O.} ' ] ] ] ] } O.O.O.O.O.O.O.O.O.O.O.m O             2 a.p.1   ",
"  1 d.x.x.z.L.i.3   sXsX    a ..Y Y U U U U Y Y Y U Y Y U Y } [ ] ' ] ] } Y U U U Y Y Y Y Y Y Y a             . 3 a.i.1   ",
"sXsX4 4 4 4 4 4 sXsXsXsX    m T Y U q $ $ : a Y Y Y Y U q $ , , ` ]  ...f $ $ $ q Y Y Y Y T m $ @       < 4.t.w.i.l.i.1   ",
"sXsX            sXsXsXsX    a Y Y U 6 . . + i Y Y Y Y U q .     f { } U i @ . . 6 Y Y Y Y I i           3 a.x.v.x.v.i.1   ",
"sXsXsXsXsXsXsXsXsXsXsXsX    a Y Y Y N a a m N Y Y Y Y U N a :   , ` ..U I a a a N U Y Y s > $           3 i.x.x.x.x.i.1   ",
"sXsXsXsXsXsXsXsXsXsXsXsX    i U I I U I U U Y Y Y Y U Y I I 6   6 I R I I Y T Y Y Y Y Y p               4 p.P.P.L.P.d.1   ",
"sXsXsXsXsXsXsXsXsXsXsXsXsXsX- : : : : : : : a Y Y Y Y U p $ $ sX* : : : d Y Y Y Y Y Y T p O           sXsXsXsXsXsXsXsXsXsX",
"sXsXsXsXsXsXsXsXsXsXsXsXsXsX              . p Y T B Y U q   sXsXsX      6 U Y U Y Z U Y i O           sXsXsXsXsXsXsXsXsXsX",
"sXsXsXsXsXsXsXsXsXsXsXsXsXsXsXsXsXsXsXsXsXsX* - *.y.k $ * sXsXsXsXsXsXsXsXsXq $ k y.*.: $ sXsXsXsXsXsXsXsXsXsXsXsXsXsXsXsX",
"sXsXsXsXsXsXsXsXsXsXsXsXsXsXsXsXsXsXsXsXsXsX= - *.u.l   sXsXsXsXsXsXsXsXsXsXsX& l u.*..   sXsXsXsXsXsXsXsXsXsXsXsXsXsXsXsX",
"sXsXsXsXsXsXsXsXsXsXsXsXsXsXsXsXsXsXsXsXsXo ) &XQ l %   sXsXsXsXsXsXsXsXsX  P &XN.l 7     sXsXsXsXsXsXsXsXsXsXsXsXsXsXsXsX",
"sXsXsXsXsXsXsXsXsXsXsXsXsXsXsXsXsXsXsXsX  o }.rXL o X   sXsXsXsXsXsXsXsXsX  L rXoX& O     sXsXsXsXsXsXsXsXsXsXsXsXsXsXsXsX",
"sXsXsXsXsXsXsXsXsXsXsXsXsXsXsXsXsXsXsXsX    o = ! .Xe       sXsXsXsXsXsXsX  o o t .XL .       sXsXsXsXsXsXsXsXsXsXsXsXsXsX",
"sXsXsXsXsXsXsXsXsXsXsXsXsXsXsXsXsXsXsXsX      O H N.G = o   sXsXsXsXsXsXsX      0 {.L 9 *     sXsXsXsXsXsXsXsXsXsXsXsXsXsX",
"sXsXsXsXsXsXsXsXsXsXsXsXsXsXsXsXsXsXsXsX        & * R _.e       sXsXsXsXsX      o = t {.K X     . sXsXsXsXsXsXsXsXsXsXsXsX",
"sXsXsXsXsXsXsXsXsXsXsXsXsXsXsXsXsXsXsXsX            K {.e         sXsXsXsX          0 {.H o       sXsXsXsXsXsXsXsXsXsXsXsX",
"sXsXsXsXsXsXsXsXsXsXsXsXsXsXsXsXsXsXsXsX            * = o         sXsXsXsX          o = *         sXsXsXsXsXsXsXsXsXsXsXsX",
"sXsXsXsXsXsXsXsXsXsXsXsXsXsXsXsXsXsXsXsX                          sXsXsXsX                        sXsXsXsXsXsXsXsXsXsXsXsX"
};
