/* XPM */
static char *result[] = {
/* columns rows colors chars-per-pixel */
"68 68 237 2 ",
"   c #221E1F",
".  c #2C211B",
"X  c #27201E",
"o  c #3A291F",
"O  c #221F20",
"+  c #252223",
"@  c #2C2A2B",
"#  c #282527",
"$  c #372821",
"%  c #383738",
"&  c #32322E",
"*  c #432F20",
"=  c #463526",
"-  c #563926",
";  c #5F2D30",
":  c #682E34",
">  c #6D3036",
",  c #663637",
"<  c #723137",
"1  c #723138",
"2  c #623927",
"3  c #5F3A1F",
"4  c #78451F",
"5  c #5C4228",
"6  c #46422A",
"7  c #694626",
"8  c #774A25",
"9  c #7A532B",
"0  c #6B4A35",
"q  c #705735",
"w  c #6D673A",
"e  c #7A753E",
"r  c #716C3D",
"t  c #6D3E42",
"y  c #2C5463",
"u  c #545758",
"i  c #46494B",
"p  c #745251",
"a  c #77695A",
"s  c #76734B",
"d  c #5D6F68",
"f  c #6F7273",
"g  c #595D60",
"h  c #9D2B24",
"j  c #8D3624",
"k  c #B72725",
"l  c #9D1D21",
"z  c #E71B24",
"x  c #D12129",
"c  c #894C1F",
"v  c #85491F",
"b  c #824A21",
"n  c #894C20",
"m  c #88592B",
"M  c #90532E",
"N  c #97632D",
"B  c #966935",
"V  c #8B763B",
"C  c #A4692E",
"Z  c #B9772F",
"A  c #A46C32",
"S  c #A86B36",
"D  c #AE7131",
"F  c #A1713E",
"G  c #B47532",
"H  c #BA7730",
"J  c #BA7830",
"K  c #B77832",
"L  c #B36C33",
"P  c #B05635",
"I  c #C77035",
"U  c #B33C43",
"Y  c #995659",
"T  c #867A46",
"R  c #997647",
"E  c #977553",
"W  c #836669",
"Q  c #A67872",
"!  c #A17E5A",
"~  c #778F6E",
"^  c #ADAB0B",
"/  c #A7A513",
"(  c #B6BB16",
")  c #B8BB16",
"_  c #B8B81A",
"`  c #B0AD11",
"'  c #888D38",
"]  c #8B923B",
"[  c #8A9037",
"{  c #959B3D",
"}  c #929225",
"|  c #BAB828",
" . c #989924",
".. c #C2BE37",
"X. c #BEC01D",
"o. c #C6C628",
"O. c #C5C23B",
"+. c #D4D239",
"@. c #D2CF37",
"#. c #8B8645",
"$. c #948C47",
"%. c #8C9442",
"&. c #9A944B",
"*. c #999A47",
"=. c #9A9651",
"-. c #8D8A59",
";. c #A39C4C",
":. c #A5974B",
">. c #A49B56",
",. c #B18E53",
"<. c #9EA144",
"1. c #ABAB4D",
"2. c #A6A64A",
"3. c #B3B44C",
"4. c #BCBC4D",
"5. c #ABA452",
"6. c #AAA756",
"7. c #B2AB53",
"8. c #B4AE5C",
"9. c #BBB456",
"0. c #BCB65A",
"q. c #B9B757",
"w. c #AFAF4D",
"e. c #828166",
"r. c #9A9965",
"t. c #999777",
"y. c #948770",
"u. c #A5966A",
"i. c #B8B666",
"p. c #A8A575",
"a. c #B0AB6A",
"s. c #9BA468",
"d. c #C2BC5B",
"f. c #C3BA56",
"g. c #E3A851",
"h. c #C2BC65",
"j. c #C0BC73",
"k. c #BBC16F",
"l. c #C8C449",
"z. c #DBD742",
"x. c #C5C452",
"c. c #CBC35C",
"v. c #CAC75A",
"b. c #D2CD55",
"n. c #D2CC5D",
"m. c #D5D15A",
"M. c #DAD65A",
"N. c #E3DD4C",
"B. c #EBC75D",
"V. c #E1DC5F",
"C. c #EBE456",
"Z. c #F1E95E",
"A. c #E4E04E",
"S. c #CBC866",
"D. c #D3CC62",
"F. c #D3CD67",
"G. c #DBD463",
"H. c #D9D467",
"J. c #DDD975",
"K. c #D9D573",
"L. c #D3CE76",
"P. c #E3DC65",
"I. c #E5DA68",
"U. c #F2D864",
"Y. c #E3DE75",
"T. c #E3DE7B",
"R. c #F2D36F",
"E. c #EBE465",
"W. c #EBE36A",
"Q. c #EBE567",
"!. c #F3EC64",
"~. c #F4EC6B",
"^. c #F8ED6C",
"/. c #F1E76E",
"(. c #FCF26C",
"). c #F9F066",
"_. c #E7E27D",
"`. c #E5E077",
"'. c #F9EB73",
"]. c #FAF070",
"[. c #337993",
"{. c #35829C",
"}. c #6D8691",
"|. c #5594AB",
" X c #4492AE",
".X c #6F98A8",
"XX c #66A5BC",
"oX c #3EABCF",
"OX c #45ABCE",
"+X c #42BCE5",
"@X c #41C5F1",
"#X c #44C3ED",
"$X c #989589",
"%X c #9D9C97",
"&X c #898F91",
"*X c #A9978F",
"=X c #B8B595",
"-X c #AAB08F",
";X c #93A8AF",
":X c #A9A9AA",
">X c #B9B8AA",
",X c #BAB9B6",
"<X c #AAB1B5",
"1X c #E49EA2",
"2X c #C7B3AB",
"3X c #E7A1A3",
"4X c #F4A9AC",
"5X c #D9999B",
"6X c #B4C487",
"7X c #F5D283",
"8X c #C7C6B8",
"9X c #CDCDAE",
"0X c #C9CA9C",
"qX c #B3BECA",
"wX c #D9BFC2",
"eX c #B1C4C4",
"rX c #AED7E6",
"tX c #B6E2F7",
"yX c #B6E3F8",
"uX c #B8E2F6",
"iX c #B6E0EF",
"pX c #CACAC8",
"aX c #D4CCCC",
"sX c #D3D2CC",
"dX c #D8D8D7",
"fX c #CCD2D5",
"gX c #E6E6DE",
"hX c #E4E4CE",
"jX c #E4E3E2",
"kX c #EAEAE8",
"lX c #F2F3EF",
"zX c #F5F4F4",
"xX c #FDFDFD",
"cX c #F9F9F4",
"vX c #F0EFEF",
"bX c #DFE1DF",
"nX c None",
/* pixels */
"nXnXnXnXnXnXnXnXnXnXnXnXnXnXnXnXnXnXnXnXnXnXnXnXnXnXnXnXnXnXnXnXnXnXnXnXnXnXnXnXnXnXnXnXnXnXnXnXnXnXnXnXnXnXnXnXnXnXnXnXnXnXnXnXnXnXnXnX",
"nXnXnXnXnXnXnXnXnXnXnXnXnXnXnXnXnXnXnXnXnXnXnXnXnXnXnXnXnXnXnXnXnXnXnXnXnXnXnXnXnXnXnXnXnXnXnXnX] { w.q.nX{ { 3.v.v.nX{ <.2.<.] nXnXnXnX",
"nXnXnXnXnXnXnXnXnXnXnXnXnXnXnXnXnXnXnXnXnXnXnXnXnXnXnXnX%.3.q.1.2.%.] <.4.x.4.<.<.4.V.!.Q.E.v.3.b.~.(.(.^.Q.~.(.(.(.~.!.~.(.~.[ nXnXnXnX",
"nXnXnXnXnXnXnXnXnXnXnXnXnXnXnXnXnXnXnXnXnXnXnXnXnXnXnX<.S.m.(.).).Q.!.(.(.(.(.(.(.^.~.(.(.(.(.(.(.(.(.Q.(.(.(.(.(.(.(.).(.(.!.[ nXnXnXnX",
"nXnXnXnXnXnXnXnXnXnXnXnXnXnXnXnXnXnXnXnXnXnXnXnXnXnX3.J._.3.~.(.(.(.(.(.(.(.(.(.(.I.*.(.Q.G.(.(.~.~.(.;.P.(.~.^.(.(.+.X.@.(.M.nXnXnXnXnX",
"nXnXnXnXnXnXnXnXnXnXnXnXnXnXnXnXnXnXnXnXnXnXnX<.S.`._._._.1.m.(.Z.@.!.(.(.(.].%.~.8.e.h.&.x.(.(.0.<.n.s >.D.V I.(.!.) ) ( A.v.nXnXnXnXnX",
"nXnXnXnXnXnXnXnXnXnXnXnXnXnXnXnXnXnXnXnXnXnX<.k._._._._._.J.x.(.A.) z.(.(.(.(.6.t.dXlXkX,Xa.(.(.].s 8XjXdX2X~ ^.(.Z.) ) ) +.4.nXnXnXnXnX",
"nXnXnXnXnXnXnXnXnXnXnXnXnXnXnXnXnXnXnX~ q.`._._.7X_._._._._.m.~.).+.Z.(.(.(.(.s.cXxXxXxXxXjXi.(.i.sXxXxXxXxXkXi.(.(.+.) ) C.v.nXnXnXnXnX",
"nXnXnXnXnXnXnXnXnXnXnXnXnXnXnXnXnXnXnX] J._._._.J.| ( H._._.x.(.(.(.(.).(.(.G.,XcXxXxXxXxXxXpXH.>XxXxXxXxXxXxX8XG.(.(.A.C.(.C.nXnXnXnXnX",
"nXnXnXnXnXnXnXnXnXnXnXnXnXnXnXnXnXnXnXnXF._._._.b.^ / ( `.T.3.(.(.(.(.(.(.(.8.fX|. X<XxXxXxXxXW bX;X.XeXxXxXxXzXi.(.(.(.(.(.~.] nXnXnXnX",
"nXnXnXnXnXnXnXnXnXnXnXnXnXnXnXnXnXnXnXnXq.7X7X_.l.^ ^ ^ m._.3.V.(.(.(.(.(.(.p.|.@X@XoXeXxXxXxX:X;X+X@XOXfXxXxXxX=X(.(.).o.+.Q.[ nXnXnXnX",
"nXnXnXnXnXnXnXnXnXnXnXnXnXnXnXnXnXnXnXnX<.J._.7Xm.^ ^ ^ O._.S.x.(.^.(.(.(.].a oX{.{.@XXXxXxXxXsX X[.y oX.XxXxXxX8X^.(.(.o.z.P.' nXnXnXnX",
"nXnXnXnXnXnXnXnXnXnXnXnXnXnXnXnXnXnXnXnXnXS._._.`.( ^ ^ o.T.K.x.(.^.(.U.B.B.E  XO + oXOXjXxXxXgX X@ O [.|.xXxXxX8X/.(.(.~.(.!.nXnXnXnXnX",
"nXnXnXnXnXnXnXnXnXnXnXnXnXnXnXnXnXnXnXnXnXS._._._.b.^ ^ .._.K.v.(.(.^.U.U.].R.,.@ O {.oXdXxXxXdX X# O y }.gXkXvX8X~.(.(.(.(.(.nXnXnXnXnX",
"nXnXnXnXnXnXnXnXnXnXnXnXnXnXnXnXnXnXnXnXnXk._._._._.b...J._.F.b.(.(.(.(.U.(.B.^.S = d ~ p.p.a.r.d =.8.k.f.S.S.i.$.d.(.(.(.(.(.3.nXnXnXnX",
"nXnXnXnXnXnXnXnXnXnXnXnXnXnXnXnXnXnXnXnXnX2._._._._._.`._.7XF.b.(.(.(.(.B.U.^.^.g.'.].D.1.w.P.^.4.M.P.v.c.v.P.(.q.d.(.(.(.(.(.{ nXnXnXnX",
"nXnXnXnXnXnXnXnXnXnXnXnXnXnXnXnXnXnXnXnXnX%.K.`.`.`._._._._.K.3.(.(.^.(.].(.(.(.g.(.^.~.^.^.^.F.2.^.(.(.(.(.(.I.5.W.(.(.(.(.E.[ nXnXnXnX",
"nXnXnXnXnXnXnXnXnXnXnXnXnXnXnXnXnXnXnXnXnXnX3._...| Y._._._.T.3.^.(.U.B.U.U.B.g.f.(.(.^.(.(.^.1.D.q.Q.~.n.f.d.f.c.f.;.(.(.(.m.] nXnXnXnX",
"nXnXnXnXnXnXnXnXnXnXnXnXnXnXnXnXnXnXnXnXnXnX*._.O.^ M._._._._.d.~.(.(.^.5.j B ~.c.9.~.(.(.^.f.G.Q.q.5.x.m.W.(.(.^.^.T (.(.(.m.nXnXnXnXnX",
"nXnXnXnXnXnXnXnXnXnXnXnXnXnXnXnXnXnXnXnXnXnX*.J.`.l.`._._._._.S.^.(.^.(.0., : T ^.I.;.2.5.;.D.(.~.Q.^.(.(.(.(.(.].7.7.(.(.(.E.nXnXnXnXnX",
"nXnXnXnXnXnXnXnXnXnXnXnXnXnXnXnXnXnXnXnXnXnXnX7X_._._._._._._.k.^.(.(.(.n., < < 0 f.~.(.(.(.(.(.(.P.f.0.5.5.1.;.$.c.(.(.(.(.^.nXnXnXnXnX",
"nXnXnXnXnXnXnXnXnXnXnXnXnXnXnXnXnXnXnXnXnXnX8._._._._._.`.`._.x.(.(.(.(.U.0 < < 1 : 2 #.d./.(.(.(.(.(.].~.7.5./.(.(.(.(.(.(.~.[ nXnXnXnX",
"nXnXnXnXnXnXnXnXnXnXnXnXnXnXnXnXnXnXnXnXnXnX%.J._._.`.O.` O.T.q.(.(.(.(.(.q 1 1 1 1 1 , :X,X-Xa s >.r.>.&.7.7.m.(.(.(.(.(.(.M.[ nXnXnXnX",
"nXnXnXnXnXnXnXnXnXnXnXnXnXnXnXnXnXnXnXnXnXnXnXk._._.`.` ^ ^ m.q.Q.(.(.(.(.T < 1 1 1 1 t jXxXxXW W lXxXcXi.^.(.(.^.(.(.(.(.(.4.nXnXnXnXnX",
"nXnXnXnXnXnXnXnXnXnXnX$.5.nXnXnXnXnXnXnXnXnXnX3.7X7XJ.} / ^ | S.x.(.(.(.(.7.> < < < < : *XfXpXp p dXvXjXf.(.(.(.(.(.(.(.(.(.2.nXnXnXnXnX",
"nXnXnXnXnXnXnXnXnXnXnXH.(.e nXnXnXnXnXnXnXnXnX1.7Xk.-XgX-.` _ K.w.(.).Z.).M.; < < < < < : : : : > , a 8.I.^.(.(.(.Z.+.Z.(.^.2.nXnXnXnXnX",
"nXnXnXnXnXnXnXnXnXnXnXD.(.#.nXnXnXnXnXnXnXnXnXi.L.$XlXzX$X/ _ `.w.(.+.( o.!.0 < < < < < 1 1 1 1 1 1 $.^.(.(.^.(.(.N.( z.(.~.1.nXnXnXnXnX",
"nXnXnXnXnXnXnXnXnXnXnXr G.G.#.nXnXnXnXnXnXnXnX8.t.zXxXxX$X/ O._.3.Z.) ( ( N.:.< < < < < 1 1 1 1 1 > :.(.(.(.(.(.(.Z.o.A.(.(.<.nXnXnXnXnX",
"nXnXnXnXnX&.c.S.d.8.5.c.Q.(.(.P.nXnXnXnXnXnXnXs dXxXxXxXt.4.Y.J.4.!.) ) ( +.V.- p : : < 1 1 1 1 1 : d.(.(.(.(.(.(.(.(.(.(.M.{ nXnXnXnXnX",
"nXnXnXnXs (.].I.9.P.(.G.m.(.(.(.e nXnXnXnXnXnX,XxXxXxXxXt.T._.K.f.).) ) } V W.>.3X3XQ p p > 1 1 1 0 W.(.(.).(.).z.o.z.).(.<.nXnXnXnXnXnX",
"nXnXnXnXnX;.;.nXT (.H.n.q.f.(.D.nXnXnXnXnXnXnXfX>XjXxXxXr.7X_.J.f.).@./ w.c.9.I.Q 4X4X5X1XY 1 1 > &.(.(.(.^.(.C.X.) ( f.>.e.d nXnXnXnXnX",
"nXnXnXnXnXnXnXnXnX0.Q.P.7.8.0.q.nXnXnXnXnXnXnX-XS.t.lXjXi._._.T.4.(.).1.W.n.G.(.g.*X4X4X4X1X, 1 0 I.(.(.(.(.(.N.(  .r.,XjXzX,XnXnXnXnXnX",
"nXnXnXnXnXnXnXnXnXnX6 8.~.F.w /.nXnXnXnXnXnXnX;.H.y.,Xt.`._._.K.1.E.(.D.n.f.W.(.(.0.Q 3X4X1X, , c.(.(.(.(.(.(.l.-.sXxXxXxXxX:XnXnXnXnXnX",
"nXnXnXnXnXnXnXnXnXnXnXnXe nXnXW.&.nXnXnXnXnXnXG.6.m./ | _.s.%.q.D.x.5.;.#.G.9.&.Q.'.Q.;.T w $./.(.(.(.(.(.(.c.,XxXxXxXxXxXvXnXnXnXnXnXnX",
"nXnXnXnXnXnXnXnXnXnXnXnXnXnXnX5.d.nXnXnXnXnX2.D.6._.l.b.=.S.).(.^.~.P.!.(.(.(.~.;.'.7X'.(.(.(.'.].(.(.(.(.(.=XcXxXxXxXxXxX%XnXnXnXnXnXnX",
"nXnXnXnXnXnXnXnXnXnXnXnXnXnXnXnX^.#.nXnXnXs /.$.k.7X_._.6.#.<.s.*.#.D.E.(.(.(.~.5.(.].R.7X7X7X'.(.(.(.(.(.).-X%X>XxXxXxXpXnXnXnXnXnXnXnX",
"nXnXnXnXnXnXnXnXnXnXnXnXnXnXnXnX9.c.nXnXr V.9.nX~ 6Xi.L.7X7X7XJ.x.P.;.n.~.(.~.c.n.P.E.E.~.]./.W.m.S.F.F.F.m.&.F.p.dXxXsXu nXnXnXnXnXnXnX",
"nXnXnXnXnXnXnXnXnXnXnXnXnXnXnXnXw P.=.nXm.M.nXnX}.iXrX-Xk.6Xk.k.x.E.D.e W.W.a./.$.0X9X,.I I D p.9XgXlXcX8X=.G.p.>XkXdXu nXnXnXnXnXnXnXnX",
"nXnXnXnXnXnXnXnXnXnXnXnXnXnXnXnXnX7.E.c.~.~ nXnX}.yXyXyXuXtXuXeXs.0XhXsX=X$X,Xk.I.8XdXY z z x %XlXxXzX>Xi.H.=XvXaX:Xf nXnXnXnXnXnXnXnXnX",
"nXnXnXnXnXnXnXnXnXnXnXnXnXnXnXnXnXnXc.~.<.nXnXnX}.rXyXyXyXyXyXyX;XxXxXxXxXxXbX$XD.h.*XkXY l *XcX,XpXp.P.S.8XxXxXxXxX<XnXnXnXnXnXnXnXnXnX",
"nXnXnXnXnXnXnXnXnXnXnXnXnXnXnXnXnXnXnXnXnXnXnXnX3 9 a &XrXtXyXyX:XxXxXxXxXxXxXxX2XE.8.,XU z Q pXu.D.I.p.kXxXcXvXkXbX&XnXnXnXnXnXnXnXnXnX",
"nXnXnXnXnXnXnXnXnXnXnXnXnXnXnXnXnXnXnXnXnXnXnXnX7 v 8 v 0 a ;XrX;XxXxXxXxXzXvXkXdXy.P.>.h h R F.I.:.s y.! E E R B S 0 nXnXnXnXnXnXnXnXnX",
"nXnXnXnXnXnXnXnXnXnXnXnXnXnXnXnXnXnXnXnXnXnXnXnX4 4 . o - 4 v q W u.u.! R R F F A S B x.I.I.G.' q 9 9 N N = $ $ $ A 5 nXnXnXnXnXnXnXnXnX",
"nXnXnXnXnXnXnXnXnXnXnXnXnXnXnXnXnXnXnXnXnXnXnXnX4 c 3 *   . v 4 N Z N M m m C 7 - - - h P P k j . . . 9 N - 7 8 m L - nXnXnXnXnXnXnXnXnX",
"nXnXnXnXnXnXnXnXnXnXnXnXnXnXnXnXnXnXnXnXnXnXnXnXv c c c n 4 c 4 C N   . o * A 7 - 5 7 k z z z j A G K Z J J J J J G = nXnXnXnXnXnXnXnXnX",
"nXnXnXnXnXnXnXnXnXnXnXnXnXnXnXnXnXnXnXnXnXnXnXnX2 b c c c c c 8 D Z G G J H J J H H Z N k z h Z Z H J Z J J J J J D = nXnXnXnXnXnXnXnXnX",
"nXnXnXnXnXnXnXnXnXnXnXnXnXnXnXnXnXnXnXnXnXnXnXnXnXnX3 b c c n 4 K J Z J Z H H J H J J Z P j A Z J J J J G G G A N m nXnXnXnXnXnXnXnXnXnX",
"nXnXnXnXnXnXnXnXnXnXnXnXnXnXnXnXnXnXnXnXnXnXnXnXnXnXnXnX- 8 c 8 K J J Z H H J J K A N N b 4 7 7 7 7 8 - = nXnXnXnXnXnXnXnXnXnXnXnXnXnXnX",
"nXnXnXnXnXnXnXnXnXnXnXnXnXnXnXnXnXnXnXnXnXnXnXnXnXnXnXnXnXnX- 7 m 9 7 8 8 9 9 9 * nXnXnXnXB D K J K J q nXnXnXnXnXnXnXnXnXnXnXnXnXnXnXnX",
"nXnXnXnXnXnXnXnXnXnXnXnXnXnXnXnXnXnXnXnXnXnXnXnXnXnXnXnXnXnXnXnXnXnXm J K Z Z K C 5 nXnXnX9 A G J K D - nXnXnXnXnXnXnXnXnXnXnXnXnXnXnXnX",
"nXnXnXnXnXnXnXnXnXnXnXnXnXnXnXnXnXnXnXnXnXnXnXnXnXnXnXnXnXnXnXnXnXnX9 J Z K m F m A nXnXnXnX= V q 7 5 nXnXnXnXnXnXnXnXnXnXnXnXnXnXnXnXnX",
"nXnXnXnXnXnXnXnXnXnXnXnXnXnXnXnXnXnXnXnXnXnXnXnXnXnXnXnXnXnXnXnXnXnX= m A D A $.v.5 nXnXnXnXnXE.nXnXnXnXnXnXnXnXnXnXnXnXnXnXnXnXnXnXnXnX",
"nXnXnXnXnXnXnXnXnXnXnXnXnXnXnXnXnXnXnXnXnXnXnXnXnXnXnXnXnXnXnXnXnXnXnXnXnX= * = F.%.nXnXnXnX>.f.nXnXnXnXnXnXnXnXnXnXnXnXnXnXnXnXnXnXnXnX",
"nXnXnXnXnXnXnXnXnXnXnXnXnXnXnXnXnXnXnXnXnXnXnXnXnXnXnXnXnXnXnXnXnXnXnXnXnXnXnXnXr W.nXnXnXnXG.s nXnXnXnXnXnXnXnXnXnXnXnXnXnXnXnXnXnXnXnX",
"nXnXnXnXnXnXnXnXnXnXnXnXnXnXnXnXnXnXnXnXnXnXnXnXnXnXnXnXnXnXnXnXnXnXnXnXnXnXnXnXnX5.S.nXnX$.D.nXnXnXnXnXnXnXnXnXnXnXnXnXnXnXnXnXnXnXnXnX",
"nXnXnXnXnXnXnXnXnXnXnXnXnXnXnXnXnXnXnXnXnXnXnXnXnXnXnXnXnXnXnXnXnXnXnXnX+ + + nXnXnXD.&.nXG.#.nXnXnXnXnXnXnXnXnXnXnXnXnXnXnXnXnXnXnXnXnX",
"nXnXnXnXnXnXnXnXnXnXnXnXnXnXnXnXnXnXnXnXnXnXnXnXnXnXnXnXnXnXnXnXnXnXnX# X   & f nXnXs 0.T h.nXnXnXnXnXnXnXnXnXnXnXnXnXnXnXnXnXnXnXnXnXnX",
"nXnXnXnXnXnXnXnXnXnXnXnXnXnXnXnXnXnXnXnXnXnXnXnXnXnXnXnXnXnXnXnXnXnXnX@ +   = eXaXwXqX$X,XnXnXnXnXnXnXnXnXnXnXnXnXnXnXnXnXnXnXnXnXnXnXnX",
"nXnXnXnXnXnXnXnXnXnXnXnXnXnXnXnXnXnXnXnXnXnXnXnXnXnXnXnXnXnXnXnXnXnXnXnX# O @ nXnXnXnXnX<X&XnXnXnXnXnX# & nXnXnXnXnXnXnXnXnXnXnXnXnXnXnX",
"nXnXnXnXnXnXnXnXnXnXnXnXnXnXnXnXnXnXnXnXnXnXnXnXnXnXnXnXnXnXnXnXnXnXnXnXO + % @ nXnXnXnXf 1Xg nXnXnXO + i @ nXnXnXnXnXnXnXnXnXnXnXnXnXnX",
"nXnXnXnXnXnXnXnXnXnXnXnXnXnXnXnXnXnXnXnXnXnXnXnXnXnXnXnXnXnXnXnXnXnXnXnX# @ f # @ nXnXnXnX:XpXnXnXnX+ i &Xg nXnXnXnXnXnXnXnXnXnXnXnXnXnX",
"nXnXnXnXnXnXnXnXnXnXnXnXnXnXnXnXnXnXnXnXnXnXnXnXnXnXnXnXnXnXnXnXnXnXnXnXnXnX# nXnXnXnXnXnXnXdX%XnXnX# u &Xu nXnXnXnXnXnXnXnXnXnXnXnXnXnX",
"nXnXnXnXnXnXnXnXnXnXnXnXnXnXnXnXnXnXnXnXnXnXnXnXnXnXnXnXnXnXnXnXnXnXnXnXnXnXnXnXnXnXnXnXnXnX&XpX% nX# g f nXnXnXnXnXnXnXnXnXnXnXnXnXnXnX",
"nXnXnXnXnXnXnXnXnXnXnXnXnXnXnXnXnXnXnXnXnXnXnXnXnXnXnXnXnXnXnXnXnXnXnXnXnXnXnXnXnXnXnXnXnXnXnX& O O + f nXnXnXnXnXnXnXnXnXnXnXnXnXnXnXnX",
"nXnXnXnXnXnXnXnXnXnXnXnXnXnXnXnXnXnXnXnXnXnXnXnXnXnXnXnXnXnXnXnXnXnXnXnXnXnXnXnXnXnXnXnXnXnXnX+     % g nXnXnXnXnXnXnXnXnXnXnXnXnXnXnXnX",
"nXnXnXnXnXnXnXnXnXnXnXnXnXnXnXnXnXnXnXnXnXnXnXnXnXnXnXnXnXnXnXnXnXnXnXnXnXnXnXnXnXnXnXnXnXnXnX#   & f u nXnXnXnXnXnXnXnXnXnXnXnXnXnXnXnX",
"nXnXnXnXnXnXnXnXnXnXnXnXnXnXnXnXnXnXnXnXnXnXnXnXnXnXnXnXnXnXnXnXnXnXnXnXnXnXnXnXnXnXnXnXnXnXnXnX@ u g nXnXnXnXnXnXnXnXnXnXnXnXnXnXnXnXnX",
"nXnXnXnXnXnXnXnXnXnXnXnXnXnXnXnXnXnXnXnXnXnXnXnXnXnXnXnXnXnXnXnXnXnXnXnXnXnXnXnXnXnXnXnXnXnXnXnXnXnXnXnXnXnXnXnXnXnXnXnXnXnXnXnXnXnXnXnX"
};
