/* XPM */
static char *result[] = {
/* columns rows colors chars-per-pixel */
"68 68 202 2 ",
"   c #010101",
".  c #0C0C0C",
"X  c #080B09",
"o  c #12110C",
"O  c #19190E",
"+  c #141413",
"@  c #1B1B18",
"#  c #081618",
"$  c #261D12",
"%  c #31150B",
"&  c #262516",
"*  c #312817",
"=  c #34331C",
"-  c #39381E",
";  c #0A1F21",
":  c #2B2B2B",
">  c #262623",
",  c #393939",
"<  c #3A2E21",
"1  c #472713",
"2  c #4D351B",
"3  c #4A3219",
"4  c #52371A",
"5  c #55391B",
"6  c #5B3C1B",
"7  c #553C21",
"8  c #6A461F",
"9  c #63421F",
"0  c #4D4C25",
"q  c #474726",
"w  c #544B26",
"e  c #57552A",
"r  c #5B5935",
"t  c #404032",
"y  c #664420",
"u  c #684520",
"i  c #615F35",
"p  c #6C5729",
"a  c #64612E",
"s  c #6C6933",
"d  c #676435",
"f  c #716D36",
"g  c #767337",
"h  c #7D7A3C",
"j  c #767339",
"k  c #1A545A",
"l  c #32564F",
"z  c #376458",
"x  c #1B5B62",
"c  c #255A60",
"v  c #1F676F",
"b  c #2E7373",
"n  c #484848",
"m  c #565645",
"M  c #595957",
"N  c #777A44",
"B  c #65655C",
"V  c #6A6D44",
"C  c #416064",
"Z  c #6A6A6A",
"A  c #7A7A7A",
"S  c #645555",
"D  c #AF181E",
"F  c #A51D20",
"G  c #AA312C",
"H  c #93251E",
"J  c #CC1B21",
"K  c #F61B24",
"L  c #EE1B24",
"P  c #C4282E",
"I  c #874525",
"U  c #845625",
"Y  c #935E2A",
"T  c #A14427",
"R  c #9D662C",
"E  c #94612A",
"W  c #807B3B",
"Q  c #A56C2E",
"!  c #A96E2F",
"~  c #B47531",
"^  c #B87731",
"/  c #BC7A33",
"(  c #AC7131",
")  c #C47F34",
"_  c #8E6163",
"`  c #A05053",
"'  c #67845A",
"]  c #77857F",
"[  c #9E9E1D",
"{  c #ACAC1E",
"}  c #BBBC1C",
"|  c #B4B51D",
" . c #85823E",
".. c #89863F",
"X. c #8C883F",
"o. c #96883F",
"O. c #A8A825",
"+. c #B9B838",
"@. c #B0B02B",
"#. c #C68035",
"$. c #8E8A41",
"%. c #878446",
"&. c #928E42",
"*. c #959244",
"=. c #9B9546",
"-. c #9E9947",
";. c #9F9B4A",
":. c #979449",
">. c #8D8A54",
",. c #999556",
"<. c #A29E4A",
"1. c #A39747",
"2. c #A39E51",
"3. c #A6A24B",
"4. c #AAA54D",
"5. c #AEA94E",
"6. c #B2AC4E",
"7. c #B3AF43",
"8. c #B8B544",
"9. c #AAA653",
"0. c #B3AE50",
"q. c #B6B153",
"w. c #BBB554",
"e. c #BDB855",
"r. c #BCB75B",
"t. c #85836A",
"y. c #94816C",
"u. c #979675",
"i. c #AA957D",
"p. c #B0987F",
"a. c #A8A566",
"s. c #A7A579",
"d. c #B4B066",
"f. c #C1BE49",
"g. c #C4BE59",
"h. c #C1BC55",
"j. c #CECA55",
"k. c #C6C159",
"l. c #CAC45A",
"z. c #CFC85B",
"x. c #CAC551",
"c. c #D3CD5D",
"v. c #D2CD53",
"b. c #D6D05E",
"n. c #DAD45D",
"m. c #CAC64E",
"M. c #D5CE61",
"N. c #DCD561",
"B. c #DFD862",
"V. c #E3DC64",
"C. c #E7E066",
"Z. c #EAE366",
"A. c #ECE568",
"S. c #EFE86A",
"D. c #F3EB6A",
"F. c #FFF66E",
"G. c #247780",
"H. c #3C7E85",
"J. c #298791",
"K. c #32AFBD",
"L. c #2C97A2",
"P. c #4BB3BE",
"I. c #56ABB5",
"U. c #68B0B8",
"Y. c #38BBCA",
"T. c #44B7C4",
"R. c #39C8D8",
"E. c #3BD3E4",
"W. c #3DDCEE",
"Q. c #3CD7E9",
"!. c #3DDEF0",
"~. c #888887",
"^. c #949493",
"/. c #9C9B98",
"(. c #989882",
"). c #B39C83",
"_. c #B09D88",
"`. c #AC8D82",
"'. c #A3A39B",
"]. c #ADAC8E",
"[. c #93A7A9",
"{. c #A4A4A4",
"}. c #AAAAAA",
"|. c #B2B2B2",
" X c #BABBBA",
".X c #B8BCB9",
"XX c #B0B0A1",
"oX c #C1C1BF",
"OX c #9BBCC0",
"+X c #ADC6C8",
"@X c #CBCBCB",
"#X c #C5C4C3",
"$X c #D3D3D2",
"%X c #D5DBDC",
"&X c #DBDBDB",
"*X c #C3CFD1",
"=X c #DFE3E4",
"-X c #E3E3E3",
";X c #EBEBEB",
":X c #F4F4F4",
">X c #FFFFFF",
",X c None",
/* pixels */
",X,X,X,X,X,X,X,X,X,X,X,X,X,X,X,X,X,X,X,X,X,X,X,X,X,X,X,X,X,X,X,X,X,X,X,X,X,X,X,X,X,X,X,X,X,X,X,X,X,X,X,X,X,X,X,X,X,X,X,X,X,X,X,X,X,X,X,X",
",X,X,X,X,X,X,X,X,X,X,X,X,X,X,X,X,X,X,X,X,X,X,X,X,X,X,X,X,X,X,X,X,X,X,X,X,X,X,X,X,X,X,X,X,X,X,X,X,X,X,X,X,X$.5.* ,X,X,X,X,X,X,X,X,X,X,X,X",
",X,X,X,X,X,X,X,X,X,X,X,X,X,X,X,X,X,X,X,X,X,X,X,X,X,X,X,X,X,X,X,X,X,X,X,X,X,X,X,X,X,X,X,X,X,X,X,X,Xq j j 0.e.*. .,X,X,X,X,X,X,X,X,X,X,X,X",
",X,X,X,X,X,X,X,X,X,X,X,X,X,X,X,X,X,X,X,X,X,X,X,X,X,X,X,X,X,X,X,X,X,X,X,X,X,X,X,X,X,X,X,X,X,X,X,X<.*.q...3.l.F.F.W ,X,X,X,X,X,X,X,X,X,X,X",
",X,X,X,X,X,X,X,X,X,X* ,X,X,X,X,X0 g $.g = ,X,X,X,X,X$.3...e ,X,X,X,X..:.g q ,X,X,X,X$.l.l.h = O 4.s a ..e.l.q.F.$.,X,X,X,X,X,X,X,X,X,X,X",
",X,X,X,X,X,X,X,X,X .S.V.h.=.<.N.F.F.F.F.D.z.*.$.g.F.F.F.F.F.Z.z.n.D.F.F.F.F.V.l.z.D.F.F.F.F.S.q.:.q.V.D.q.4.F.F.s ,X,X,X,X,X,X,X,X,X,X,X",
",X,X,X,X,X,X,X,X,Xe.F.F.F.F.F.F.F.F.F.F.F.F.F.F.F.F.F.F.F.F.F.F.F.F.F.F.F.F.F.F.F.F.F.F.F.F.F.F.F.F.F.F.D.h F.n.& ,X,X,X,X,X,X,X,X,X,X,X",
",X,X,X,X,X,X,X,X,X3.F.F.F.F.V.8.7.D.F.F.F.F.F.F.F.F.F.F.F.F.F.F.F.F.F.F.F.F.F.F.F.F.F.F.F.F.F.F.F.F.F.F.b.g F.<.,X,X,X,X,X,X,X,X,X,X,X,X",
",X,X,X,X,X,X,X,X,Xq F.F.F.V.O.} } m.F.F.F.F.F.B.-.$.k.F.F.F.F.F.F.F.F.F.F.<.=.k.F.F.F.F.F.F.j.@.n.F.F.F.s 3.F.%.,X,X,X,X,X,X,X,X,X,X,X,X",
",X,X,X,X,X,X,X,X,XX N.F.F.8.} } | n.F.F.F.F.F.N.F.F.M.F.F.F.F.F.F.F.F.F.l.5.F.Z.F.F.F.F.F.C.{ } v.F.F.F.& D.F.:.,X,X,X,X,X,X,X,X,X,X,X,X",
",X,X,X,X,X,X,X,X,Xo N.F.F.m.[ O.m.F.F.F.F.F.F.F.k.D.F.F.F.F.F.F.F.F.F.F.Z.D.D.F.F.F.F.F.F.F.m.e.F.F.F.F.0 5.V.V.e ,X,X,X,X,X,X,X,X,X,X,X",
",X,X,X,X,X,X,X,X,X= D.F.F.Z.C.F.F.F.F.F.F.F.F.e.3.F.F.F.F.F.F.F.F.F.F.F.F.F.q.S.F.F.F.F.F.F.F.F.F.F.F.F.0 ,Xe S.S.0 ,X,X,X,X,X,X,X,X,X,X",
",X,X,X,X,X,X,X,X,Xe F.F.V.| 7.F.F.F.F.F.F.F.3.e k.S.F.F.F.F.F.F.F.F.F.A.9.,.%.a F.F.F.F.F.F.F.F.F.F.F.F.g ,X,Xr Z.n.& ,X,X,X,X,X,X,X,X,X",
",X,X,X,X,X,X,X,X,X* D.F.S.m.D.F.F.F.F.F.Z.V z .X%X XXXd.S.F.F.F.F.N.' b U.+X>X.X:.F.F.F.F.F.F.F.F.F.F.F.q ,X,X,Xd Z.w.,X,X,X,X,X,X,X,X,X",
",X,X,X,X,X,X,X,X,XX z.F.F.F.F.F.F.F.Z.<.z K.!.P.-X>X>X;Xs.B.F.F.e.b Q.W.W.Y.&X>X}.%.N.F.F.F.F.F.F.F.F.D.O ,X,X,X,X%.D.r ,X,X,X,X,X,X,X,X",
",X,X,X,X,X,X,X,X,X,X..F.F.F.F.F.v.X.l J.L.K.!.E.+X>X>X>X>X(.A.M.z E.G.L.W.W.[.>X>X&X~.,.r.S.F.F.F.F.F.q.> ,X,X,X,X,Xw.b.& ,X,X,X,X,X,X,X",
",X,X,X,X,X,X,X,X,X,Xa F.F.F.F.F.V.V Y.v   ; Q.!.OX>X>X>X>X>Xa.j R.k   # Q.!.[.>X>X>X>X:Xu.D.F.F.F.F.F. .,X,X,X,X,X,Xd F.q ,X,X,X,X,X,X,X",
",X,X,X,X,X,X,X,X,X,Xj F.F.F.F.F.D.b R.X   k W.R.*X>X>X>X>X>X^.l E.#   k W.R.@X>X>X>X>X>X.XC.F.F.F.F.F.:.,X,X,X,X,X,Xr F.0 ,X,X,X,X,X,X,X",
",X,X,X,X,X,X,X,X,X,X4.F.F.F.F.F.b.b E.k x R.W.U.:X>X>X>X>X>X.Xc W.b v R.W.U.>X>X>X>X>X>X$Xb.F.F.F.F.F.g.,X,X,X,X,X,Xh.N.@ ,X,X,X,X,X,X,X",
",X,X,X,X,X,X,X,X,X,Xw.F.F.F.F.F.b.H.!.!.!.!.P.%X>X>X>X>X>X>X.XC !.!.!.!.P.%X>X>X>X>X>X>X@XN.F.F.F.F.F.B.,X,X,X,X,XN D.e ,X,X,X,X,X,X,X,X",
",X,X,X,X,X,X,X,X,X,Xh F.F.F.F.F.D.] P.E.R.U.%X>X>X>X>X>X>X~.m 0 v Y.Y.U.%X>X>X>X>X>X>X>XXXD.F.F.F.F.F.4.,X,X,X,Xr C.-.,X,X,X,X,X,X,X,X,X",
",X,X,X,X,X,X,X,X,X,X= Z.F.F.F.F.F.s.;X+X%X>X>X>X>X>X>X>X~.X.F.F.:.^.:X>X>X>X>X>X>X>X>X;Xa.F.F.F.F.F.F.q ,X,X,Xq B.w.o ,X,X,X,X,X,X,X,X,X",
",X,X,X,X,X,X,X,X,X,X,Xl.F.F.S.0 F.N.'.>X>X>X>X>X>X>X>X>Xm F.F.F.D.B >X>X>X>X>X>X>X>X>Xu.D.A.e D.F.F.D.+ : ,X= V.e.O ,X,X,X,X,X,X,X,X,X,X",
",X,X,X,X,X,X,X,X,X,X,XN.V.s F.F.F.F.M.(.>X>X>X>X>X>X>X>Xi F.F.F.F.d $X>X>X>X>X>X>X&Xu.D.F.F.D.F.j l.F.M ;X}.h 3.& ,X,X,X,X,X,X,X,X,X,X,X",
",X,X,X,X,X,X,X,X,X,Xa D.F.F.6.-.F.F.F.Z.a.'.-X>X>X=X/.a.s S.F.F.F.w.g.s./.|..X/.s.z.F.F.F.F.j A.D.F.F.u.>X>XZ . ,X,X,X,X,X,X,X,X,X,X,X,X",
",X,X,X,X,X,X,X,X,X,Xd F.F.F.F.F.F.F.F.F.F.D.j.r.r.k.D.F.Z.;.S.F.F.F.F.F.F.C.V.F.F.F.F.F.F.F.F.F.F.F.F.>.>X>X;X@ ,X,X,X,X,X,X,X,X,X,X,X,X",
",X,X,X,X,X,X,X,X,X,X- C.F.F.F.F.F.F.F.F.F.F.F.F.F.F.F.F.F.S.j.D.F.F.F.F.F.F.F.F.F.F.F.F.F.F.F.F.F.F.F.V >X>X>XM ,X,X,X,X,X,X,X,X,X,X,X,X",
",X,X,X,X,X,X,X,X,X,X,X-.F.F.F.F.F.F.F.F.F.F.F.F.F.F.F.F.F.F.F.F.F.F.F.F.F.F.F.F.F.F.F.F.F.F.F.F.F.F.z.M >X>X>XM ,X,X,X,X,X,X,X,X,X,X,X,X",
",X,X,X,X,X,X,X,X,X,X}.>.F.F.F.F.F.F.F.F.F.F.F.F.F.F.F.F.F.F.F.F.F.F.F.F.F.F.V.F.F.F.F.F.F.F.F.F.F.F.&. X-X{.n ,X,X,X,X,X,X,X,X,X,X,X,X,X",
",X,X,X,X,X,X,X,X,X}.>X].F.F.F.F.F.F.F.F.F.F.F.F.F.F.F.F.F.F.F.F.F.F.F.F.F.=.% F.F.F.F.F.F.F.F.F.F.F.>.7 ,X,X,X,X,X,X,X,X,X,X,X,X,X,X,X,X",
",X,X,X,X,X,X,X,X, :X>X$X9.F.F.n.A.F.F.F.F.F.F.F.F.F.F.F.F.F.F.F.F.F.F.F.S.1 % Z.F.F.F.F.F.C.x.b.F.F.r.,X,X,X,X,X,X,X,X,X,X,X,X,X,X,X,X,X",
",X,X,X,X,X,X,X,XZ >X>X>X'.<.D.O.f.F.F.F.F.F.F.F.F.F.F.F.F.F.F.F.F.F.F.F.F.5.( F.F.F.F.F.n.@.} { A.F.z.,X,X,X,X,X,X,X,X,X,X,X,X,X,X,X,X,X",
",X,X,X,X,X,X,X,X}.>X>X>X>XA w.O.v.F.F.F.F.Z.w.c.F.F.F.F.F.F.F.F.F.F.F.C.F.F.F.F.D.F.F.F.+.} } } B.F.l.,X,X,X,X,X,X,X,X,X,X,X,X,X,X,X,X,X",
",X,X,X,X,X,X,X+ &X>X>X>X>X>XM B.F.V.z.D.D.s e.4.a C.F.F.F.F.F.F.F.F.F.N...-.*.-.F.F.F.D.+.} } O.D.F. .,X,X,X,X,X,X,X,X,X,X,X,X,X,X,X,X,X",
",X,X,X,X,X,X,X@ -X>X>X=X#X;X:Xg V.{ } x.Z.3.F.F.S.g F.F.F.F.F.F.F.F.F.F.F.D.D.F.F.F.F.F.f.{ O.n.F.D.- ,X,X,X,X,X,X,X,X,X,X,X,X,X,X,X,X,X",
",X,X,X,X,X,X,X@ -X:XB 5.w..X~.3.k.| } +.F.n.*.&.D.;.F.F.F.F.D.c.q.z.F.F.F.F.F.F.F.F.F.w.n.Z.F.F.F.5.,X,X,X,X,X,X,X,X,X,X,X,X,X,X,X,X,X,X",
",X,X,X,X,X,X,X+ |.;X/.r.B.> 4.F.D.@.@.n.F.F.F.*.l.B.3.4.:.&.&.4.w.4.g b.F.F.F.F.F.F.A.O.j.F.F.F.F.<.,X,X,X,X,X,X,X,X,X,X,X,X,X,X,X,X,X,X",
",X,X,X,X,X,X,X,X> M , &.F.d F.F.F.D.A.F.F.F.6.q.F.F.F.F.D.N.N.V.F.F.k.&.F.F.F.F.F.F.F.V.F.F.F.F.F.-.,X,X,X,X,X,X,X,X,X,X,X,X,X,X,X,X,X,X",
",X,X,X,X,X,X,X,X,X,X,Xs F.f F.F.F.F.F.F.F.F.*.N.F.F.F.F.F.Z.%.:.s s a Z.F.F.F.F.F.F.F.F.F.F.F.F.F.W ,X,X,X,X,X,X,X,X,X,X,X,X,X,X,X,X,X,X",
",X,X,X,X,X,X,X,X,X,X,X- Z.-.0.q.,.>.9.l.b.q.5.S.F.F.F.Z.g.w w.g.1.%.d.N.V.M.;.N f 4.6.,.N r r *.h & ,X,X,X,X,X,X,X,X,X,X,X,X,X,X,X,X,X,X",
",X,X,X,X,X,X,X,X,X,X,X,Xh.V.: &X:X>X;XXXt ;.D.C.W C.F.S.r.& F J J S &XoX^.{. X^.$X$X#X&X:X>X-X@X: ,X,X,X,X,X,X,X,X,X,X,X,X,X,X,X,X,X,X,X",
",X,X,X,X,X,X,X,X,X,X,X,Xh F.j ~.{.t._ 2.C.S.:.(./.B t.t.n $X` K G =X{.=X-X|.@X>X>X>X>X>X>X>X>X>Xl ,X,X,X,X,X,X,X,X,X,X,X,X,X,X,X,X,X,X,X",
",X,X,X,X,X,X,X,X,X,X,X,X- D.F.0.0.M.D.c.%.t.*X>X>X&X|.{.%X>X`.D _ >X>X}.oX:X>X>X>X>X>X>X>X>X>X>X7 ,X,X,X,X,X,X,X,X,X,X,X,X,X,X,X,X,X,X,X",
",X,X,X,X,X,X,X,X,X,X,X,X,Xg V.N.0.N w 2 y.).s.p.).).).).)._.G K P `.).).).).).p.).).).p.p.i.i._ ,X,X,X,X,X,X,X,X,X,X,X,X,X,X,X,X,X,X,X,X",
",X,X,X,X,X,X,X,X,X,X,X,X,Xo 3 5 u E Q Q ! ~ #.#.) R R R Q 8 L K K I E E E ^ ) #.Q U U U U Y ^ Q ,X,X,X,X,X,X,X,X,X,X,X,X,X,X,X,X,X,X,X,X",
",X,X,X,X,X,X,X,X,X,X,X,X,X* #.) *         1 #.#./         F K K K D       Y ) ) 6         O ) ^ ,X,X,X,X,X,X,X,X,X,X,X,X,X,X,X,X,X,X,X,X",
",X,X,X,X,X,X,X,X,X,X,X,X,X% ) ) Q R R R R ! ) #.) R R R Q H K K K G Q Q ! / #.) ) ^ ^ ^ ) ) ) ~ ,X,X,X,X,X,X,X,X,X,X,X,X,X,X,X,X,X,X,X,X",
",X,X,X,X,X,X,X,X,X,X,X,X,X& ) ) ) ) ) ) #.) ) ) #.) ) #.#.) T J G / ) #.#.) ) #.) ) ) ) ) ) ) ~ ,X,X,X,X,X,X,X,X,X,X,X,X,X,X,X,X,X,X,X,X",
",X,X,X,X,X,X,X,X,X,X,X,X,X$ ) ) ) ) ) ) ) ) ) ) ) ) ) ) ) ) ) Y / ) ) ) ) ) ) ) ) ) ) ) ) ) #.( ,X,X,X,X,X,X,X,X,X,X,X,X,X,X,X,X,X,X,X,X",
",X,X,X,X,X,X,X,X,X,X,X,X,X,X4 2 5 7 2 6 y y y y 9 6 3 7 5 5 5 5 6 6 6 5 u u y y 8 8 6 w 7 7 2 3 ,X,X,X,X,X,X,X,X,X,X,X,X,X,X,X,X,X,X,X,X",
",X,X,X,X,X,X,X,X,X,X,X,X,X,X,X,X,X,X,XY ) ) ) ) ) ~ ,X,X,X,X,X,X,X,X,X< ) ) ) ) ) ) y ,X,X,X,X,X,X,X,X,X,X,X,X,X,X,X,X,X,X,X,X,X,X,X,X,X",
",X,X,X,X,X,X,X,X,X,X,X,X,X,X,X,X,X,X,Xp ~ ^ ) ^ ~ Y ,X,X,X,X,X,X,X,X,X$ Q ^ ) / ^ ~ 5 ,X,X,X,X,X,X,X,X,X,X,X,X,X,X,X,X,X,X,X,X,X,X,X,X,X",
",X,X,X,X,X,X,X,X,X,X,X,X,X,X,X,X,X,X,X,X,X$ W d ,X,X,X,X,X,X,X,X,X,X,X,X,X$ &.f ,X,X,X,X,X,X,X,X,X,X,X,X,X,X,X,X,X,X,X,X,X,X,X,X,X,X,X,X",
",X,X,X,X,X,X,X,X,X,X,X,X,X,X,X,X,X,X,X,X,X,XV.0.,X,X,X,X,X,X,X,X,X,X,X,X,X,XD.r.,X,X,X,X,X,X,X,X,X,X,X,X,X,X,X,X,X,X,X,X,X,X,X,X,X,X,X,X",
",X,X,X,X,X,X,X,X,X,X,X,X,X,X,X,X,X,X,X,X,X,XV.q.,X,X,X,X,X,X,X,X,X,X,X,X,X,XZ.e.,X,X,X,X,X,X,X,X,X,X,X,X,X,X,X,X,X,X,X,X,X,X,X,X,X,X,X,X",
",X,X,X,X,X,X,X,X,X,X,X,X,X,X,X,X,X,X,X,X,X,X<.N ,X,X,X,X,X,X,X,X,X,X,X,X,X,X;.%.,X,X,X,X,X,X,X,X,X,X,X,X,X,X,X,X,X,X,X,X,X,X,X,X,X,X,X,X",
",X,X,X,X,X,X,X,X,X,X,X,X,X,X,X,X,X,X,X,X,X,X|.~.,X,X,X,X,X,X,X,X,X,X,X,X,X,X}.^.,X,X,X,X,X,X,X,X,X,X,X,X,X,X,X,X,X,X,X,X,X,X,X,X,X,X,X,X",
",X,X,X,X,X,X,X,X,X,X,X,X,X,X,X,X,X,X,X,X,X,XA M ,X,X,X,X,X,X,X,X,X,X,X,X,X,XZ Z ,X,X,X,X,X,X,X,X,X,X,X,X,X,X,X,X,X,X,X,X,X,X,X,X,X,X,X,X",
",X,X,X,X,X,X,X,X,X,X,X,X,X,X,X,X,X,X,X,X,X,X^.Z ,X,X,X,X,X,X,X,X,X,X,X,X,X,X{.~.,X,X,X,X,X,X,X,X,X,X,X,X,X,X,X,X,X,X,X,X,X,X,X,X,X,X,X,X",
",X,X,X,X,X,X,X,X,X,X,X,X,X,X,X,X,X,X,X,X,X,X=X{.,X,X,X,X,X,X,X,X,X,X,X,X,X,X=X X,X,X,X,X,X,X,X,X,X,X,X,X,X,X,X,X,X,X,X,X,X,X,X,X,X,X,X,X",
",X,X,X,X,X,X,X,X,X,X,X,X,X,X,X,X,X,X,X,X,X,X-X{.,X,X,X,X,X,X,X,X,X,X,X,X,X,X;X@X,X,X,X,X,X,X,X,X,X,X,X,X,X,X,X,X,X,X,X,X,X,X,X,X,X,X,X,X",
",X,X,X,X,X,X,X,X,X,X,X,X,X,X,X,X,X,X,X,X,X: :X{.X ,X,X,X,X,X,X,X,X,X,X,X,X. -X XX ,X,X,X,X,X,X,X,X,X,X,X,X,X,X,X,X,X,X,X,X,X,X,X,X,X,X,X",
",X,X,X,X,X,X,X,X,X,X,X,X,X,X,X,X,X. . X . X M :   ,X,X,X,X,X,X,X,X,X,X,X    + .     + + X ,X,X,X,X,X,X,X,X,X,X,X,X,X,X,X,X,X,X,X,X,X,X,X",
",X,X,X,X,X,X,X,X,X,X,X,X,X,X,X,X,X  /.A           ,X,X,X,X,X,X,X,X,X,X,X,X        X $XZ   ,X,X,X,X,X,X,X,X,X,X,X,X,X,X,X,X,X,X,X,X,X,X,X",
",X,X,X,X,X,X,X,X,X,X,X,X,X,X,X,X    : n           ,X,X,X,X,X,X,X,X,X,X,X,X  @ X     @     ,X,X,X,X,X,X,X,X,X,X,X,X,X,X,X,X,X,X,X,X,X,X,X",
",X,X,X,X,X,X,X,X,X,X,X,X,X,X,X,X,X          : : X ,X,X,X,X,X,X,X,X,X,X,X,X,Xn >           ,X,X,X,X,X,X,X,X,X,X,X,X,X,X,X,X,X,X,X,X,X,X,X",
",X,X,X,X,X,X,X,X,X,X,X,X,X,X,X,X,X        X ,X,X,X,X,X,X,X,X,X,X,X,X,X,X,X,X,X,X        X ,X,X,X,X,X,X,X,X,X,X,X,X,X,X,X,X,X,X,X,X,X,X,X",
",X,X,X,X,X,X,X,X,X,X,X,X,X,X,X,X,X,X,X,X,X,X,X,X,X,X,X,X,X,X,X,X,X,X,X,X,X,X,X,X,X,X,X,X,X,X,X,X,X,X,X,X,X,X,X,X,X,X,X,X,X,X,X,X,X,X,X,X"
};
