/* XPM */
static char *result[] = {
/* columns rows colors chars-per-pixel */
"68 68 236 2 ",
"   c #221E1F",
".  c #281F1C",
"X  c #2B211D",
"o  c #35261B",
"O  c #231F20",
"+  c #252223",
"@  c #2B2A2B",
"#  c #262628",
"$  c #3A2C23",
"%  c #383739",
"&  c #1F1E1F",
"*  c #4F331F",
"=  c #633A1E",
"-  c #433223",
";  c #4D3827",
":  c #543B25",
">  c #563725",
",  c #4F3231",
"<  c #662E33",
"1  c #683236",
"2  c #723137",
"3  c #723138",
"4  c #663825",
"5  c #6C1D1F",
"6  c #7A461F",
"7  c #584329",
"8  c #534D2F",
"9  c #6A4726",
"0  c #764A24",
"q  c #7B5429",
"w  c #775838",
"e  c #674633",
"r  c #70693B",
"t  c #6C3E43",
"y  c #723E42",
"u  c #2E5F71",
"i  c #4B4E4F",
"p  c #774D51",
"a  c #6C5744",
"s  c #75714E",
"d  c #5D6164",
"f  c #676A6A",
"g  c #6C7476",
"h  c #77736B",
"j  c #615F60",
"k  c #95362B",
"l  c #B0292B",
"z  c #D01E24",
"x  c #E71A24",
"c  c #C02626",
"v  c #894C1F",
"b  c #83491F",
"n  c #834A21",
"m  c #894C20",
"M  c #8C5C2B",
"N  c #845629",
"B  c #90502D",
"V  c #97632E",
"C  c #89793D",
"Z  c #966732",
"A  c #A56B2E",
"S  c #B8762F",
"D  c #A56D32",
"F  c #A96D35",
"G  c #AB7134",
"H  c #B47532",
"J  c #BA7730",
"K  c #BA7831",
"L  c #B57833",
"P  c #B04E32",
"I  c #C77235",
"U  c #847A46",
"Y  c #94724B",
"T  c #A3784F",
"R  c #8D716D",
"E  c #9C5B5B",
"W  c #6C8D75",
"Q  c #8D8D1D",
"!  c #ADAB0B",
"~  c #A5A30F",
"^  c #B6BB16",
"/  c #B8BB16",
"(  c #B6B819",
")  c #ADAA11",
"_  c #888D3A",
"`  c #8D943D",
"'  c #8A9032",
"]  c #979A3F",
"[  c #908F2F",
"{  c #BBB929",
"}  c #C1BF36",
"|  c #BFC01D",
" . c #C8C72A",
".. c #D6D33C",
"X. c #C4C13B",
"o. c #8A8446",
"O. c #978946",
"+. c #8E9442",
"@. c #9B9849",
"#. c #979353",
"$. c #928A5B",
"%. c #A29C4D",
"&. c #A7994D",
"*. c #A49D56",
"=. c #A88949",
"-. c #9DA145",
";. c #A7A64B",
":. c #ADB04B",
">. c #B7B74B",
",. c #ABA553",
"<. c #ACA755",
"1. c #B2AB53",
"2. c #B3AB5A",
"3. c #B5B355",
"4. c #BCB455",
"5. c #BCBA53",
"6. c #BDBB5B",
"7. c #B8B45B",
"8. c #B0AA51",
"9. c #898869",
"0. c #998769",
"q. c #99976A",
"w. c #919277",
"e. c #A4966B",
"r. c #A8A669",
"t. c #B2AD65",
"y. c #B9B765",
"u. c #A9A677",
"i. c #C3BD5B",
"p. c #C0BA56",
"a. c #D9A951",
"s. c #E4B557",
"d. c #C2BC64",
"f. c #E29D50",
"g. c #BAC275",
"h. c #C9C649",
"j. c #C5C35B",
"k. c #CBC45C",
"l. c #CAC855",
"z. c #D3CC5E",
"x. c #D2CA5B",
"c. c #D6D35A",
"v. c #DAD55B",
"b. c #D8D45A",
"n. c #D6D147",
"m. c #E3DE4D",
"M. c #ECC65D",
"N. c #E3DE5B",
"B. c #ECE558",
"V. c #ECE657",
"C. c #C4C263",
"Z. c #CDCA63",
"A. c #CDCC6B",
"S. c #CBC562",
"D. c #D3CC62",
"F. c #D1CF6B",
"G. c #DBD463",
"H. c #D9D46A",
"J. c #C8C371",
"K. c #DAD774",
"L. c #D2CE75",
"P. c #E2DC64",
"I. c #E4DD68",
"U. c #EFD361",
"Y. c #F2D765",
"T. c #E3DE7C",
"R. c #E2DD74",
"E. c #F1D374",
"W. c #EBE465",
"Q. c #EBE46A",
"!. c #EAE566",
"~. c #F5ED64",
"^. c #F4EB6B",
"/. c #F9ED6C",
"(. c #F7E967",
"). c #FCF26C",
"_. c #F8F068",
"`. c #E7E27D",
"'. c #E8E27E",
"]. c #F8EA73",
"[. c #F8F170",
"{. c #33718A",
"}. c #737E80",
"|. c #398BA9",
" X c #399ABA",
".X c #7B929E",
"XX c #4798B5",
"oX c #789CA9",
"OX c #59A5BD",
"+X c #78A9B7",
"@X c #44ABCE",
"#X c #44BBE4",
"$X c #42C5F1",
"%X c #43C3EE",
"&X c #8F928E",
"*X c #B09692",
"=X c #A8A598",
"-X c #B9B698",
";X c #ADB188",
":X c #8CA4AD",
">X c #A9A9A8",
",X c #B9B7A9",
"<X c #B9B8B6",
"1X c #AFAFB0",
"2X c #809BA8",
"3X c #D39495",
"4X c #E19C9E",
"5X c #C9B1AC",
"6X c #F4A9AC",
"7X c #EDA6A8",
"8X c #C1BD9D",
"9X c #B9C682",
"0X c #A5C5B2",
"qX c #F6D382",
"wX c #C4C3BB",
"eX c #CBCBBE",
"rX c #D0D1A9",
"tX c #A6BBC6",
"yX c #B7C7CA",
"uX c #B0D9EA",
"iX c #B6E3F8",
"pX c #B7E3F6",
"aX c #C7C7C7",
"sX c #D9D7D5",
"dX c #D1D3CE",
"fX c #E1DFDD",
"gX c #E4E4DB",
"hX c #E5E5E3",
"jX c #EDEDEC",
"kX c #EAEAE5",
"lX c #F1F1EE",
"zX c #F4F4F3",
"xX c #FDFDFD",
"cX c #F8F8F4",
"vX c #DFE2E1",
"bX c None",
/* pixels */
"bXbXbXbXbXbXbXbXbXbXbXbXbXbXbXbXbXbXbXbXbXbXbXbXbXbXbXbXbXbXbXbXbXbXbXbXbXbXbXbXbXbXbXbXbXbXbXbXbXbXbXbXbXbXbXbXbXbXbXbXbXbXbXbXbXbXbXbX",
"bXbXbXbXbX+.:.-.] bXj.l.>.-.` -.bX:.@.` bXbXbXbXbXbXbXbXbXbXbXbXbXbXbXbXbXbXbXbXbXbXbXbXbXbXbXbXbXbXbXbXbXbXbXbXbXbXbXbXbXbXbXbXbXbXbXbX",
"bXbXbXbX+.P.)._.~.^.).).).[.^.~.).).~.c.>.l.G.^.!.W.h.-.-.:.j.5.;.' +.-.;.3.5.` bXbXbXbXbXbXbXbXbXbXbXbXbXbXbXbXbXbXbXbXbXbXbXbXbXbXbXbX",
"bXbXbXbX' P.)._._.).).).).).).).Q.).[._.).).).).)._.^.).).).).)._.!.^.^._.[.W.j.:.bXbXbXbXbXbXbXbXbXbXbXbXbXbXbXbXbXbXbXbXbXbXbXbXbXbXbX",
"bXbXbXbXbXl.).m.|  ._.).)._.).).o.).).^.).).I.U.).5.1._.).).).).)._.).).).[.>.K.T.:.-.bXbXbXbXbXbXbXbXbXbXbXbXbXbXbXbXbXbXbXbXbXbXbXbXbX",
"bXbXbXbXbX5.B.^ / / V.).[.r H.<.a k.5.;.).).P._ d.q.#.~.O.^.).)._._...V.).B.-.`.`.`.9XK.-.bXbXbXbXbXbXbXbXbXbXbXbXbXbXbXbXbXbXbXbXbXbXbX",
"bXbXbXbXbX>.m.^ / / V.).).$.,XsXhXwXh I.).).d.1XhXlXgX=Xo.[.).).).m.^ ..).b.F.`.`.`.`.`.K.:.bXbXbXbXbXbXbXbXbXbXbXbXbXbXbXbXbXbXbXbXbXbX",
"bXbXbXbXbXp.B.| /  ._.).d.sXxXxXxXxXgXt.).d.dXxXxXxXxXxXu.~.).).).~..._.).v.K.`.`.`.`.`.`.qXK.6.+.bXbXbXbXbXbXbXbXbXbXbXbXbXbXbXbXbXbXbX",
"bXbXbXbXbXc.).B.m._.).Q.8XxXxXxXxXxXxXeXF.,XxXxXxXxXxXcXsXi.).).).).).)._.l.K.`.R.{ ^ H.`.qX`.T.-.bXbXbXbXbXbXbXbXbXbXbXbXbXbXbXbXbXbXbX",
"bXbXbXbX_ W.)._.).).[.d.hXxXxXxXaXoXoXvXW lXxXxXxXaXXXXXyXr.).)._.).)._._.>.T.`.{ ! ! h.`.`.`.K.+.bXbXbXbXbXbXbXbXbXbXbXbXbXbXbXbXbXbXbX",
"bXbXbXbX_ v.m. ._.).).y.xXxXxXhX@X%X%X+X=XxXxXxXdX@X$X$XXXw.[.).).).).).^.:.`.P.! ! ! } `.`.`.A.bXbXbXbXbXbXbXbXbXbXbXbXbXbXbXbXbXbXbXbX",
"bXbXbXbXbXc.m.| ~.).).8XxXxXxX:X#Xu u  X1XxXxXxX+X#X|.{.#Xf Q.)./.).).).b.6.`.h.! ! ! h.`.`.`.-.bXbXbXbXbXbXbXbXbXbXbXbXbXbXbXbXbXbXbXbX",
"bXbXbXbXbXP.)._.).).).8XxXxXxX2X|.& # |.wXxXxXxX@X#X# O XXR s.U.Y./.).).x.D.`.h.! ! ! I.`.`.K.bXbXbXbXbXbXbXbXbXbXbXbXbXbXbXbXbXbXbXbXbX",
"bXbXbXbXbX~.).).).).[.8XzXkXgX2X{.& & |.yXxXxXzXOXXXO O T U.Q.Y.Y.(.).).b.F.qXh.! ! h.qX`.`.K.bXbXbXbXbXbXbXbXbXbXbXbXbXbXbXbXbXbXbXbXbX",
"bXbXbXbXbX).).).).).D.o.t.S.Z.d.C.6.*.s $.r.r.u.W .X; B (.s./.U./.).).).B.Z.`.R. .h.`.`.`.`.A.bXbXbXbXbXbXbXbXbXbXbXbXbXbXbXbXbXbXbXbXbX",
"bXbXbXbX' ^.).).).).z.8.(.W.x.k.l.G.!.2.^.Q.>.;.>.^.[.f.[.(.(.M.).).).).v.C.`.`.`.`.`.`.`.`.3.bXbXbXbXbXbXbXbXbXbXbXbXbXbXbXbXbXbXbXbXbX",
"bXbXbXbX' c._.).).).Q.1.D./.).).).).).3.4./.^.^.^.^.).s.(././.).).)._.[.h.A.`.`.`.`.`.`.'.K.+.bXbXbXbXbXbXbXbXbXbXbXbXbXbXbXbXbXbXbXbXbX",
"bXbXbXbXbXl.).).).3.3.x.i.p.p.k.Q.^.p.S.1./.).).)._.).z.a.M.U.U.M.W._.[.:.K.`.`.`.`.{ { `.C.bXbXbXbXbXbXbXbXbXbXbXbXbXbXbXbXbXbXbXbXbXbX",
"bXbXbXbXbXl.).).).o.Q.).).).(.G.k.8.1.W.W.1./.).).[.j.i./.=.q T ~.[._._.6.`.`.`.`.Q.! { `.:.bXbXbXbXbXbXbXbXbXbXbXbXbXbXbXbXbXbXbXbXbXbX",
"bXbXbXbXbXG.).).).Z.%.^.).).)._.).).W.Q._.I.@.,.,.@.G.).=.< 3 &.).).[.[.j.`.`.`.qX`.h.H.`.;.bXbXbXbXbXbXbXbXbXbXbXbXbXbXbXbXbXbXbXbXbXbX",
"bXbXbXbXbXP.).).).).D.O.&.,.8.&.4.6.G.).).).).).).^.k.w < 2 < 1.).).).).l.qX`.`.T.`.`.`.'.6.bXbXbXbXbXbXbXbXbXbXbXbXbXbXbXbXbXbXbXbXbXbX",
"bXbXbXbXbXN.).).).).).).^.3.;.Q.).).).).).).].D.O.9 < 2 2 2 1 S.).).).).5.T.`.`.`.`.`.`.'.y.bXbXbXbXbXbXbXbXbXbXbXbXbXbXbXbXbXbXbXbXbXbX",
"bXbXbXbXbXx.).).).).)._.P.1.2.@.e.*.*.U s =X1XaXp < 2 2 2 2 e ].).).).).5.`.h.^ | `.`.`.`.-.bXbXbXbXbXbXbXbXbXbXbXbXbXbXbXbXbXbXbXbXbXbX",
"bXbXbXbXbX:.).).).).).).)._.).x.kXxXxXR p xXxXcXp 2 2 2 2 2 N ).).).).[.:.H.! ! ) H.`.qXL.` bXbXbXbXbXbXbXbXbXbXbXbXbXbXbXbXbXbXbXbXbXbX",
"bXbXbXbXbX-.^.).).)._.)._.).).v.dXjXvXR t aXdX1Xt 3 3 3 2 2 O./.).).).N.6.X.! ~ [ S.'.`.5.bXbXbXbXbXbXbXbXbXbX%.@.bXbXbXbXbXbXbXbXbXbXbX",
"bXbXbXbXbXbXW.)._...V.).).)._.(.<.R , < 2 < < < 3 3 3 3 2 < p.(.B._.).>.H.{ ) _ kX=XJ.'.3.bXbXbXbXbXbXbXbXbXbX^.^.bXbXbXbXbXbXbXbXbXbXbX",
"bXbXbXbXbXbXW.).m.^ ..).).)._.).).&.3 3 2 2 2 2 2 2 3 2 2 4 !. .^  .).>.T.{ ! w.xXcX=XA.C.bXbXbXbXbXbXbXbXbXbX).H.bXbXbXbXbXbXbXbXbXbXbX",
"bXbXbXbXbXbXv._.V. .V.).).).).).).6.1 3 2 3 2 2 2 2 2 2 2 U V./ ^ ^ ~.>.K.n.! 9.xXxXxX&Xt.bXbXbXbXbXbXbXbXo.j.Q.o.bXbXbXbXbXbXbXbXbXbXbX",
"bXbXbXbXbXbXl.[.).).).).).).).).).P.< < 2 2 2 3 2 2 < 3 < i.m./ ^ ^ m.l.K.T.h.$.xXxXxXjXh bXbXbXbXbXbXbXS.).).~.k.,.2.i.Z.i.,.bXbXbXbXbX",
"bXbXbXbXbXbX-.^.).m. ..._.)._.).)./.U 3 2 2 3 y p E 4X7X$./.[ C ^ ^ B.c.A.qX`.q.xXxXxXxXdXbXbXbXbXbXbXbX).).).G.c.[.!.7.G.).).#.bXbXbXbX",
"bXbXbXbXbXbX9.#.j.{ ^ ^ m.).)._.).).1.1 2 3 p 4X4X7X6X*XG.I.1.p.Q .._.c.F.`.`.r.cXxXjX,XaXw.bXbXbXbXbXbX7.).G.;.D.G.[.O.bX@.%.bXbXbXbXbX",
"bXbXbXbXbX>XzXkXwXq.Q ( n.).).).).).^.w 2 1 3X6X7X6X3X2./.(.p./.] _.[.l.K.`.`.A.aXcX&XD.=XbXbXbXbXbXbXbX%.D.8.,.G.Q.S.bXbXbXbXbXbXbXbXbX",
"bXbXbXbXbX&XxXxXxXxXsXq.>.).).).).).).G.e < 3X6X6XR ,.)._.].3.I.5.).Q.:.L.`.qX`.q.wX=Xi.<.bXbXbXbXbXbXbXG.o.7./.C.8 bXbXbXbXbXbXbXbXbXbX",
"bXbXbXbXbXbXsXxXxXxXxXxXaX7.[.).).).).).^.&.r Y &.I.].].@.3.I.+.%.;.i.z.4.O.#.T.} ~ h.<.!.a bXbXbXbXbXbX^.r bXbXbXbXbXbXbXbXbXbXbXbXbXbX",
"bXbXbXbXbXbX&XzXxXxXxXxXcX,X_.).).).).[.].[.[./.).E.].4.I.).).).~.P.Q._._._.I.W G.X.R.6.5.6.bXbXbXbXbX8.p.bXbXbXbXbXbXbXbXbXbXbXbXbXbXbX",
"bXbXbXbXbXbXbX>XxXxXcXeX&X-X).).).).).[.].qXqXqXqX].).4.Q.).).).!.P.U ;.,.&.] ] `.`.`.Z.s ~.@.bXbXbXbX^.s bXbXbXbXbXbXbXbXbXbXbXbXbXbXbX",
"bXbXbXbXbXbXbXbX<XxXkX;XF.@.x.H.F.D.Z.l.G.].].(./.W.W.P.2.^.).^.G.8.D.v.K.T.T.'.K.y.9XW bX%.(.s bXbX3.k.bXbXbXbXbXbXbXbXbXbXbXbXbXbXbXbX",
"bXbXbXbXbXbXbXbXbXaXjX<Xu.H.@.,XcXcXkXdX-XF I I T rXrX#.Q.t.I.^.U 6.W.v.6.g.9X9Xu.uXiXoXbXbXk.P.bXbXQ.U bXbXbXbXbXbXbXbXbXbXbXbXbXbXbXbX",
"bXbXbXbXbXbXbXbXbXj >XwXzX,XF.d.-XjXcXcX>Xl x x P aXdXk.A.5X&X-XwXgXrXr.0XuXpXpXiXiXiX2XbXbXbXQ.z.G.i.bXbXbXbXbXbXbXbXbXbXbXbXbXbXbXbXbX",
"bXbXbXbXbXbXbXbXbX&XxXxXxXxXdXt.Q.r.wX<XzX<Xl k sX,Xt.I.w.sXcXxXxXcXxX1XpXpXpXpXiXiXuX.XbXbXbXo.Q.P.r bXbXbXbXbXbXbXbXbXbXbXbXbXbXbXbXbX",
"bXbXbXbXbXbXbXbXbXf gXjXzXzXxXlX;XD.G.q.<X*Xx l <Xe.Q.-XcXxXxXxXxXxXxX<XuXuXiXuX:Xf q 4 bXbXbXbXbXbXbXbXbXbXbXbXbXbXbXbXbXbXbXbXbXbXbXbX",
"bXbXbXbXbXbXbXbXbX; F Z Y Y T T 0.s o.!.P.O.k l O.Y.$.sXhXlXcXcXxXxXxXyXuXtXh e b b v 0 bXbXbXbXbXbXbXbXbXbXbXbXbXbXbXbXbXbXbXbXbXbXbXbX",
"bXbXbXbXbXbXbXbXbX; G - $ $ - N F q q q U D.Q.H.x.C A G G F Y T T 0.e.R a 0 6 = - . = 6 bXbXbXbXbXbXbXbXbXbXbXbXbXbXbXbXbXbXbXbXbXbXbXbX",
"bXbXbXbXbXbXbXbXbX- H M 0 9 : N B o X X 5 c P F l = ; : 9 D N N V V J G 6 v o X - = b b ; bXbXbXbXbXbXbXbXbXbXbXbXbXbXbXbXbXbXbXbXbXbXbX",
"bXbXbXbXbXbXbXbXbXbXG J J J J J J S S G B x x x z 6 7 : : G - $ X . M H 0 v 6 6 b v v b > bXbXbXbXbXbXbXbXbXbXbXbXbXbXbXbXbXbXbXbXbXbXbX",
"bXbXbXbXbXbXbXbXbXbXA J K K J S J J J S J k x z B J S S S J J J L H H L 6 v v v v v v 9 ; bXbXbXbXbXbXbXbXbXbXbXbXbXbXbXbXbXbXbXbXbXbXbX",
"bXbXbXbXbXbXbXbXbXbXN V A G L L J J J S J S b B S S K S J S S J J J J K 0 v v v b = - bXbXbXbXbXbXbXbXbXbXbXbXbXbXbXbXbXbXbXbXbXbXbXbXbX",
"bXbXbXbXbXbXbXbXbXbXbXbXbXbXbXbX; 0 9 9 9 9 0 0 M V G H S J J J J J J J n v n > - bXbXbXbXbXbXbXbXbXbXbXbXbXbXbXbXbXbXbXbXbXbXbXbXbXbXbX",
"bXbXbXbXbXbXbXbXbXbXbXbXbXbXbXbX: J J J L H Z bXbXbXbX$ q q q 0 9 9 q M 9 > - bXbXbXbXbXbXbXbXbXbXbXbXbXbXbXbXbXbXbXbXbXbXbXbXbXbXbXbXbX",
"bXbXbXbXbXbXbXbXbXbXbXbXbXbXbXbXbXD L L H A M bXbXbX: Z S J S J K V bXbXbXbXbXbXbXbXbXbXbXbXbXbXbXbXbXbXbXbXbXbXbXbXbXbXbXbXbXbXbXbXbXbX",
"bXbXbXbXbXbXbXbXbXbXbXbXbXbXbXbXbX7 9 e C : bXbXbXbXM M O.N H K K M bXbXbXbXbXbXbXbXbXbXbXbXbXbXbXbXbXbXbXbXbXbXbXbXbXbXbXbXbXbXbXbXbXbX",
"bXbXbXbXbXbXbXbXbXbXbXbXbXbXbXbXbXbXbXbXP.o.bXbXbXbX: 1.&.A G F Z : bXbXbXbXbXbXbXbXbXbXbXbXbXbXbXbXbXbXbXbXbXbXbXbXbXbXbXbXbXbXbXbXbXbX",
"bXbXbXbXbXbXbXbXbXbXbXbXbXbXbXbXbXbXbXbX%.7.bXbXbXbXs W.8 $ - bXbXbXbXbXbXbXbXbXbXbXbXbXbXbXbXbXbXbXbXbXbXbXbXbXbXbXbXbXbXbXbXbXbXbXbXbX",
"bXbXbXbXbXbXbXbXbXbXbXbXbXbXbXbXbXbXbXbXbXI.bXbXbXbXG.o.bXbXbXbXbXbXbXbXbXbXbXbXbXbXbXbXbXbXbXbXbXbXbXbXbXbXbXbXbXbXbXbXbXbXbXbXbXbXbXbX",
"bXbXbXbXbXbXbXbXbXbXbXbXbXbXbXbXbXbXbXbXbX6.<.bXbX2.6.bXbXbXbXbXbXbXbXbXbXbXbXbXbXbXbXbXbXbXbXbXbXbXbXbXbXbXbXbXbXbXbXbXbXbXbXbXbXbXbXbX",
"bXbXbXbXbXbXbXbXbXbXbXbXbXbXbXbXbXbXbXbXbXr I.bXo.P.bXbXbX+ + + @ bXbXbXbXbXbXbXbXbXbXbXbXbXbXbXbXbXbXbXbXbXbXbXbXbXbXbXbXbXbXbXbXbXbXbX",
"bXbXbXbXbXbXbXbXbXbXbXbXbXbXbXbXbXbXbXbXbXbX2.O.t.U bXbXh % O . + bXbXbXbXbXbXbXbXbXbXbXbXbXbXbXbXbXbXbXbXbXbXbXbXbXbXbXbXbXbXbXbXbXbXbX",
"bXbXbXbXbXbXbXbXbXbXbXbXbXbXbXbXbXbXbXbXbXbXbX>X>X1XsX5XaXi & + @ bXbXbXbXbXbXbXbXbXbXbXbXbXbXbXbXbXbXbXbXbXbXbXbXbXbXbXbXbXbXbXbXbXbXbX",
"bXbXbXbXbXbXbXbXbXbXbXbXbXbXbX@ # @ bXbXbXbXh tXbXbXbXbXbXbX. + bXbXbXbXbXbXbXbXbXbXbXbXbXbXbXbXbXbXbXbXbXbXbXbXbXbXbXbXbXbXbXbXbXbXbXbX",
"bXbXbXbXbXbXbXbXbXbXbXbXbXbX% % @ O bXbXbXbX5XR bXbXbXbX@ % # O bXbXbXbXbXbXbXbXbXbXbXbXbXbXbXbXbXbXbXbXbXbXbXbXbXbXbXbXbXbXbXbXbXbXbXbX",
"bXbXbXbXbXbXbXbXbXbXbXbXbXbXi &Xd O bXbXbX<XaXbXbXbXbXbXO f % + bXbXbXbXbXbXbXbXbXbXbXbXbXbXbXbXbXbXbXbXbXbXbXbXbXbXbXbXbXbXbXbXbXbXbXbX",
"bXbXbXbXbXbXbXbXbXbXbXbXbXbXbX2Xf O bXbX&XhXbXbXbXbXbXbXbX# # bXbXbXbXbXbXbXbXbXbXbXbXbXbXbXbXbXbXbXbXbXbXbXbXbXbXbXbXbXbXbXbXbXbXbXbXbX",
"bXbXbXbXbXbXbXbXbXbXbXbXbXbXbXf }.O bX@ >X&XbXbXbXbXbXbXbXbXbXbXbXbXbXbXbXbXbXbXbXbXbXbXbXbXbXbXbXbXbXbXbXbXbXbXbXbXbXbXbXbXbXbXbXbXbXbX",
"bXbXbXbXbXbXbXbXbXbXbXbXbXbXbXbXg @ O # @ bXbXbXbXbXbXbXbXbXbXbXbXbXbXbXbXbXbXbXbXbXbXbXbXbXbXbXbXbXbXbXbXbXbXbXbXbXbXbXbXbXbXbXbXbXbXbX",
"bXbXbXbXbXbXbXbXbXbXbXbXbXbXbXbXi %     O bXbXbXbXbXbXbXbXbXbXbXbXbXbXbXbXbXbXbXbXbXbXbXbXbXbXbXbXbXbXbXbXbXbXbXbXbXbXbXbXbXbXbXbXbXbXbX",
"bXbXbXbXbXbXbXbXbXbXbXbXbXbXbXbXi .X%   + bXbXbXbXbXbXbXbXbXbXbXbXbXbXbXbXbXbXbXbXbXbXbXbXbXbXbXbXbXbXbXbXbXbXbXbXbXbXbXbXbXbXbXbXbXbXbX",
"bXbXbXbXbXbXbXbXbXbXbXbXbXbXbXbXbXj d @ bXbXbXbXbXbXbXbXbXbXbXbXbXbXbXbXbXbXbXbXbXbXbXbXbXbXbXbXbXbXbXbXbXbXbXbXbXbXbXbXbXbXbXbXbXbXbXbX",
"bXbXbXbXbXbXbXbXbXbXbXbXbXbXbXbXbXbXbXbXbXbXbXbXbXbXbXbXbXbXbXbXbXbXbXbXbXbXbXbXbXbXbXbXbXbXbXbXbXbXbXbXbXbXbXbXbXbXbXbXbXbXbXbXbXbXbXbX"
};
