/* XPM */
static char *b3411b70711e4ab0e95ec13b1bfa24d7BdqDl49dzPE3HXPj[] = {
/* columns rows colors chars-per-pixel */
"89 84 245 2 ",
"   c None",
".  c #C61685",
"X  c #C71685",
"o  c #C71785",
"O  c #C61786",
"+  c #C71786",
"@  c #C71886",
"#  c #C81886",
"$  c #C81986",
"%  c #C81887",
"&  c #C91A87",
"*  c #CA1A87",
"=  c #CA1B87",
"-  c #CB1C87",
";  c #CB1C88",
":  c #CC1C88",
">  c #CC1D88",
",  c #CC1E88",
"<  c #CD1E88",
"1  c #CD1F89",
"2  c #CE2089",
"3  c #CF208A",
"4  c #CF218A",
"5  c #D0228A",
"6  c #D1238B",
"7  c #D3258B",
"8  c #D2258C",
"9  c #D3258C",
"0  c #D3268C",
"q  c #D4278C",
"w  c #D5278C",
"e  c #D5288C",
"r  c #D6298D",
"t  c #D7298D",
"y  c #D72A8D",
"u  c #D72B8D",
"i  c #D72B8E",
"p  c #D82A8D",
"a  c #D82C8E",
"s  c #D92C8E",
"d  c #DA2E8F",
"f  c #DA2F8F",
"g  c #DB2F8F",
"h  c #DA2E90",
"j  c #DC2F90",
"k  c #DB3090",
"l  c #DB3190",
"z  c #DC3090",
"x  c #DC3190",
"c  c #DD3190",
"v  c #DD3191",
"b  c #DE3491",
"n  c #E03491",
"m  c #E03592",
"M  c #E13692",
"N  c #E13693",
"B  c #E23793",
"V  c #E23893",
"C  c #E33993",
"Z  c #E43993",
"A  c #E33894",
"S  c #E33994",
"D  c #E53B94",
"F  c #E53C94",
"G  c #E53C95",
"H  c #E63C94",
"J  c #E63D95",
"K  c #E73D95",
"L  c #E73E95",
"P  c #E63D96",
"I  c #E83E95",
"U  c #E83F96",
"Y  c #E94096",
"T  c #E94097",
"R  c #E94197",
"E  c #EA4196",
"W  c #EA4197",
"Q  c #EB4297",
"!  c #EC4397",
"~  c #EC4398",
"^  c #EB4599",
"/  c #EC4498",
"(  c #ED4498",
")  c #ED4598",
"_  c #EE4599",
"`  c #EE4699",
"'  c #EF4899",
"]  c #F04899",
"[  c #F0489A",
"{  c #F0499A",
"}  c #F1499A",
"|  c #F14A9A",
" . c #F24A9B",
".. c #F24B9B",
"X. c #F34B9B",
"o. c #F34C9B",
"O. c #F44C9B",
"+. c #F44D9B",
"@. c #F54D9B",
"#. c #F64D9B",
"$. c #F54E9B",
"%. c #F54F9B",
"&. c #F64E9B",
"*. c #F34C9C",
"=. c #F44D9C",
"-. c #F54D9C",
";. c #F64D9C",
":. c #F54E9C",
">. c #F54F9C",
",. c #F54E9D",
"<. c #F54F9D",
"1. c #F64E9C",
"2. c #F64F9C",
"3. c #F64F9D",
"4. c #F5509C",
"5. c #F5509D",
"6. c #F5519D",
"7. c #F6509C",
"8. c #F6509D",
"9. c #F6519D",
"0. c #F5529D",
"q. c #F5509E",
"w. c #F5519E",
"e. c #F6519E",
"r. c #F5529E",
"t. c #F5539E",
"y. c #F5539F",
"u. c #F6529E",
"i. c #F6539E",
"p. c #F6539F",
"a. c #F5549E",
"s. c #F5549F",
"d. c #F5559F",
"f. c #F6549F",
"g. c #F5569F",
"h. c #F554A0",
"j. c #F555A0",
"k. c #F555A1",
"l. c #F654A0",
"z. c #F655A0",
"x. c #F556A0",
"c. c #F557A1",
"v. c #F656A0",
"b. c #F558A2",
"n. c #F559A2",
"m. c #F65DA4",
"M. c #F55EA5",
"N. c #F65EA5",
"B. c #F65FA5",
"V. c #F65FA6",
"C. c #EF68AC",
"Z. c #F661A6",
"A. c #F661A7",
"S. c #F664A8",
"D. c #F665A9",
"F. c #F667AA",
"G. c #F768AA",
"H. c #F668AB",
"J. c #F768AB",
"K. c #F769AB",
"L. c #F66AAB",
"P. c #F66BAC",
"I. c #F76BAC",
"U. c #F76DAE",
"Y. c #F76EAE",
"T. c #F76FAF",
"R. c #F770AF",
"E. c #F770B0",
"W. c #F772B0",
"Q. c #F773B0",
"!. c #F773B1",
"~. c #F775B2",
"^. c #F776B2",
"/. c #F777B3",
"(. c #F777B4",
"). c #F87CB6",
"_. c #F87EB7",
"`. c #F883BA",
"'. c #F887BB",
"]. c #F888BC",
"[. c #F889BC",
"{. c #F888BD",
"}. c #F988BD",
"|. c #F88CBE",
" X c #F995C3",
".X c #F996C3",
"XX c #F997C5",
"oX c #F998C6",
"OX c #FA99C6",
"+X c #F99AC6",
"@X c #F9A1CB",
"#X c #FAA2CB",
"$X c #FAA4CC",
"%X c #FAA5CC",
"&X c #F9ABCF",
"*X c #FAAACF",
"=X c #FAB1D3",
"-X c #FAB3D4",
";X c #FBB3D4",
":X c #FAB3D5",
">X c #FAB5D5",
",X c #FAB5D6",
"<X c #FBBAD9",
"1X c #FBC2DD",
"2X c #FBC3DD",
"3X c #FBC4DE",
"4X c #FBC5DE",
"5X c #FBC5DF",
"6X c #FCC5DE",
"7X c #FBCBE2",
"8X c #FCCDE3",
"9X c #FDCEE3",
"0X c #FCCEE4",
"qX c #FDD5E8",
"wX c #FCDAEA",
"eX c #FDDBEB",
"rX c #FDDCEB",
"tX c #FDE2EF",
"yX c #FEE2EF",
"uX c #FEE3EF",
"iX c #FDE3F0",
"pX c #FEE3F0",
"aX c #FDE4F0",
"sX c #FEEBF4",
"dX c #FEECF4",
"fX c #FEECF5",
"gX c #FEEDF5",
"hX c #FEEFF6",
"jX c #FEF0F6",
"kX c #FEF1F7",
"lX c #FEF2F8",
"zX c #FEF3F8",
"xX c #FEF4F8",
"cX c #FEF4F9",
"vX c #FFF7FA",
"bX c #FEF7FB",
"nX c #FFF9FB",
"mX c #FFF9FC",
"MX c #FFFBFD",
"NX c #FFFDFE",
"BX c #FEFEFE",
"VX c #FFFEFE",
"CX c #FFFEFF",
"ZX c #FEFFFF",
"AX c white",
/* pixels */
"                                                                    :.:.:.e.e.e.:.5.:.5.e.e.e.e.#.:.e.e.:.:.:.e.e.e.:.:.e.e.e.;.:.:.:.:.e.e.e.e.e.:.                              ",
"                                                                  :.:.:.:.:.:.;.:.:.:.:.:.:.:.:.#.:.;.#.:.:.:.:.;.#.:.:.:.:.;.;.:.:.:.:.:.:.:.:.#.#.5.                            ",
"                                                                  :.:.:.:.:.:.:.:.:.:.:.:.:.:.:.:.:.;.:.:.:.:.%.:.:.:.:.:.:.:.:.:.:.%.o.:.:.:.:.:.:.:.                            ",
"                                                                  :.:.:.:.:.:.:.:.:.:.:.:.:.:.:.:.:.:.:.:.:.:.%.:.:.:.:.:.:.:.:.:.:.%.y.:.:.:.:.:.:.:.                            ",
"                                                                  :.:.:.:.:.:.:.:.:.:.:.:.:.f.P.~.~./.~./.~.~.~.~.~.~./.~.W.~.~.~.~.~.~.~.T.z.:.:.:.5.                            ",
"                                                          z.5.l.5.:.:.:.:.:.:.:.:.:.:.:.:.:.B.$X7X3X3X3X3X3X7X3X3X7X3X3X3X7X7X6X7X3X3X3X7X-XF.:.:.:.:.l.l.5.5.                    ",
"                                                        l.:.:.:.:.:.:.:.:.:.:.:.:.:.:.:.:.:.J.8XMXCXCXCXCXCXCXCXCXCXCXCXCXCXMXCXCXCXCXCXCXtXY.:.:.:.:.:.:.:.:.                    ",
"                                                        l.:.:.:.:.:.:.:.:.:.:.:.:.:.:.:.:.:.J.0XCXCXCXCXCXCXCXCXCXCXCXCXCXCXCXCXCXCXCXCXCXtX!.5.:.:.:.:.:.:.:.                    ",
"                                                        f.:.:.:.:.:.:.:.:.:.:.:.:.:.:.:.:.:.J.0XCXCXCXCXCXCXCXCXCXCXCXCXCXCXCXCXCXCXCXCXCXaXR.:.:.%.:.:.:.:.:.                    ",
"                                                  %.%.%.%.:.:.:.:.:.:.:.:.:.:.:.:.:.:.:.:.:.n.`.oXXXoXXXXXXXXXXXXXoXoXoX=XnXCXCXCXCXCXCXCXcX2X>X>X>X}.B.:.:.:.:.:.:.%.            ",
"                                                :.:.:.:.:.:.:.:.:.:.:.:.:.:.:.:.:.:.:.:.:.:.5.n.m.m.B.n.B.m.B.B.m.B.n.A.'.xXCXCXCXCXCXCXCXCXkXkXgXkX*XF.:.:.:.:.:.:.:.5.          ",
"                                                :.:.:.:.:.:.:.:.:.:.:.:.:.:.:.:.:.:.:.:.:.:.:.:.:.%.:.:.:.%.:.:.%.%.:.l.).xXCXCXCXCXCXCXCXCXCXCXCXCX-XJ.:.:.:.:.:.:.:.5.          ",
"                                                :.:.:.:.:.:.:.:.:.:.:.:.:.:.:.:.:.:.:.:.:.:.:.:.:.:.:.:.:.:.:.:.:.:.:.z.).kXCXCXCXCXCXCXCXCXCXCXCXCX>XJ.%.%.%.%.:.:.:.5.          ",
"                                                :.:.:.:.:.:.:.:.:.:.:.:.:. .( W W W W W W W W W Q Q U Q W W W W W W W ( C.7XqXqXqXqXqXqXqXrXnXCXCXCX3X|./.~.!.B.:.:.:.5.          ",
"                                      z.5.5.:.:.:.:.:.:.:.:.:.:.:.:.:.:.:.D 4 . . @ . % . % . % % . . . . % % . . @ . % 7  .5.4.:.:.%.%.4.J.wXCXCXCXCXCXCXCXsX.X5.:.:.:.5.5.:.5.  ",
"                                      z.5.:.:.:.:.:.:.:.:.:.:.:.:.:.:.:.:.K 4 . . . . . . . . . . . . . . . . . . . . @ 8  .:.%.:.:.:.%.%.J.wXCXCXCXCXCXCXCXgX.X5.5.:.:.:.:.:.:.  ",
"                                      z.5.:.:.:.:.:.:.:.:.:.:.:.:.:.:.:.=.K 4 . . . . . . . . . . . . . . . . . . . @ @ 7  .o.:.:.:.:.:.:.P.eXCXCXCXCXCXCXCXgX.X5.%.:.%.:.:.:.:.  ",
"                                      z.5.:.:.:.:.:.:.:.:.:.:.:.:.:.:.:.=.K q 4 4 - & . . . . . . . . . . . . @ > > ; 4 u o.:.:.:.:.:.:.:.S.6XtXuXuXgXCXCXCXkX%XP.J.J.A.z.:.:.:.  ",
"                                      z.5.:.:.:.:.:.:.:.:.:.:.:.:.:.:.:.5.' K K F V p . . . . . . . . . . . . & v K F K Q =.:.:.:.:.:.:.:.z.).{.}.}.<XgXCXCXMXrX3X3X3X#XY.:.:.:.  ",
"                                      z.5.:.:.:.:.:.:.:.:.:.:.:.:.:.:.:.:.:.:.:.%. .M . . . . . . . . . . . . ; K :.o.5.=.:.:.:.:.:.:.:.:.:.:.:.:.%.oXtXCXCXCXCXCXCXCX0X).:.:.:.  ",
"                                      z.5.:.:.:.:.:.:.:.:.:.:.:.:.:.:.:.:.:.:.:.%.( M . . . . . . . . . . . . ; K :.:.:.:.:.:.:.:.:.:.:.:.:.:.:.:.:.OXpXCXCXCXCXCXCXCX8X_.:.:.:.  ",
"                                      z.5.:.:.:.:.:.:.:.:.:.:.:.:.:.:.:.:.:.:.:.:. .M & & & & - ; % & & & - & 4 Y :.:.:.:.:.:.:.:.:.:.:.:.:.:.:.%.e.oXpXCXCXCXCXCXCXCX9X_.:.:.:.  ",
"                                      z.5.:.:.:.:.:.:.:.:.:.:.:.:.:.:.:.:.:.:.:.:. .U v l l h l v l l l v l l b ^ %.:.:.:.:.:.:.:.:.:.:.:.:.:.:.%.#.XXpXCXCXCXCXCXCXCX8X_.:.:.:.  ",
"                                      z.5.:.:.:.:.:.:.:.:.:.:.:.:.:.:.:.:.:.:.:.:.:.%. .o. .%.o.o.o.o.o.o.o.o.o.=.:.:.:.:.:.:.:.:.:.:.:.:.:.:.:.:.e.XXpXCXCXCXCXCXCXCX9X_.:.:.:.  ",
"                                      z.5.:.:.:.:.:.:.:.:.:.:.:.:.:.:.:.:.:.:.:.:.:.:.:.:.:.:.:.:.:.:.:.:.:.:.:.:.:.:.:.:.:.:.:.:.:.:.:.:.:.:.:.%.#.oXaXCXCXCXCXCXCXCX8X`.%.:.:.  ",
"                                      z.5.:.:.:.:.:.:.:.:.:.:.:.:.:.:.%.:.:.:.:.:.:.:.:.:.:.:.:.:.:.:.:.:.:.:.:.:.:.:.%.:.:.:.:.:.:.:.:.:.:.:.:.:.e.oXaXCXCXCXCXCXCXCX9X).%.:.:.  ",
"                                      z.5.:.:.:.:.:.:.:.( K D D K F D F D D D D D K ^ :.:.:.:.:.:.:.:.:.:.:.:. .Q D D F D D D D D D D D D K =.:.:.e.oXuXCXCXnXwX3X3X2X#XY.:.:.:.  ",
"                                      z.5.:.:.:.:.:.:.:.V q 4 4 4 4 4 5 5 5 5 5 5 q M :.:.:.:.:.:.:.:.:.:.:.:. .f 4 4 5 5 5 5 5 5 5 5 4 5 t ( :.%.#.oXuXCXCXkX&X~.R.R.J.z.:.:.:.  ",
"                                      z.5.:.:.:.:.:.:.:.v ; . . . . . . . . . . . % v :.:.:.:.:.:.:.:.:.:.:.:.[ q . . . . . . . . . . . . 4 ~ :.:.#.XXpXCXCXgX X5.:.:.:.:.:.:.:.  ",
"                                      z.5.:.:.:.:.:.:.:.v ; . . . . . . . . . . . > v :.:.:.:.:.:.:.:.:.:.:.:. .q . . . . . . . . . . . . > ( :.:.e.oXpXCXCXgX Xl.:.:.:.:.:.:.:.  ",
"                                      z.5.:.:.:.:.:.:.:.v > . . . . . . . . . . . > l :.:.:.:.:.:.:.:.:.:.:.:. .q X . . . . . . . . . . . > ~ :.:.:.XXpXCXCXsX Xy.=.:.:.:.:.:.:.  ",
"                                      z.5.:.:.:.:.:.:.:.' Q Q Q V 7 . . . . . . . & l :.:.:.:.:.:.:. .K 5 5 5 5 & . . . . . . . . f K Q Q ^ ;.:.:.:.B.E.(.(.!.B.:.:.:.:.:.:.:.:.  ",
"                                      z.:.:.:.:.:.:.:.:.=.#. .%.! t . . . . . . . - g :.:.:.:.:.:.:. .M & X & X . . . . . . . . @ M  .=. .o.:.:.:.:.5.f.f.s.y.5.:.:.:.:.:.:.:.:.  ",
"                                      z.5.:.:.:.:.:.:.:.:.:.:.:.( p . . . . . . . - v %.:.:.:.:.:.:. .V . . . . . . . . . . . . . M  .:.:.:.:.:.:.:.:.:.:.:.=.:.:.:.:.:.:.:.:.:.  ",
"                                      z.5.5.%.:.:.:.:.:.:.:.:.:.( p & & & X . & & - v :.:.:.:.:.:.:. .S & . @ & X . . . . & & @ & M =.:.:.:.:.:.:.:.:.:.:.:.:.:.:.:.:.:.:.:.:.:.  ",
"                                        5.5.5.:.:.:.:.:.:.:.:.:. .V f f f f f f f z U :.:.:.:.:.:.:. .Q f f f t - X . & - p f f h Q o.:.:.:.:.:.:.:.:.:.:.:.:.:.:.:.:.:.:.:.:.:.  ",
"                                                %.:.:.:.:.:.:.:.:.:.:.:.%.:.:.:.:.:.:.:.:.:.:.:.:.:.:.:.:.:.%.[ q . . & 7  .%.%.:.:.:.:.:.:.:.:.:.:.:.:.:.:.:.:.:.:.:.:.:.:.:.:.  ",
"                                                :.:.:.:.:.:.:.:.:.:.:.:.%.;.:.:.:.:.:.:.:.:.:.:.:.:.:.:.:.:.%. .q . . X 7  .;.%.:.:.:.:.:.:.:.:.:.:.:.:.:.:.:.:.:.:.:.:.:.:.:.:.  ",
"                                                :.:.:.:.:.:.:.:.:.:.:.:.:.:.:.:.:.:.:.:.:.:.:.:.:.:.:.:.:.:.:.( q X . & 5  .:.:.:.:.:.:.:.:.:.:.:.:.:.:.:.:.:.:.:.:.:.:.:.:.:.:.  ",
"                                                :.:.:.:.:.:.:.:.:.:.:.:.:.:.:.:.:.:.:.:.:.:.:.:.:.:.:.:.:.:.:. .j q 8 8 j  .:.:.:.:.:.:.:.:.:.:.:.:.:.:.:.:.:.:.:.:.:.:.:.:.:.:.  ",
"                                      z.5.5.5.:.:.:.:.:.:.:.:.:.:.:.:.:.:.:.:.:.:.:.:.:.:.:.:.:.:.:.:.:.:.:.:.:.( ~ ! ~ ( :.:.:.:.:.:.:.:.:.:.:.:.:.:.:.:.:.:.:.:.:.:.5.          ",
"                                      z.5.:.:.:.:.:.:.:.:.:.:.:.:.:.:.:.:.:.:.:.:.:.:.:.:.:.:.:.:.:.:.:.:.:.:.:.:.:.:.:.:.:.:.:.:.:.:.:.:.:.:.:.:.:.:.:.:.:.:.:.:.:.5.5.          ",
"                                      z.5.:.:.:.:.:.:.:.:.:.:.:.:.:.:.:.:.:.:.:.:.:.:.:.:.:.:.:.:.:.:.:.:.:.:.:.:.:.:.:.:.:.:.:.:.:.:.:.:.:.:.:.:.:.:.:.:.:.:.:.:.%.:.5.          ",
"                                      f.5.:.:.:.5.5.5.5.5.5.5.5.:.:.:.:.:.:.:.:.:.:.:.:.5.5.5.5.5.5.5.:.:.:.:.:.:.:.:.:.:.5.5.:.5.5.5.5.5.5.:.:.:.:.:.:.:.:.:.5.5.=.y.f.          ",
"                              :.#.%.%.5.5.:.:.5.z.              5.:.:.:.:.:.:.:.:.:.:.                5.:.:.:.:.:.:.:.:.5.                f.f.:.:.:.:.:.:.:.:.5.                  ",
"                              5.:.:.:.:.:.:.:.:.                  :.:.:.:.:.:.:.:.:.:.                  :.:.:.:.:.:.:.:.5.                  c.:.:.:.:.:.:.:.:.                    ",
"                              5.:.:.:.:.:.:.:.:.                  %.:.:.:.:.:.:.:.:.:.                  :.:.:.:.:.:.:.:.:.                  z.:.:.:.:.:.:.:.:.                    ",
"                              :.:.:.:.:.:.:.:.:.                  %.:.:.:.:.:.:.:.:.:.                  :.:.:.:.:.:.:.:.e.                  z.:.:.:.:.:.:.:.:.                    ",
"                            5.:.:.:.:.5.5.5.5.                  :.:.:.:.:.:.5.:.5.                      :.:.:.:.:.:.:.:.e.                  c.=.:.:.:.:.:.:.:.                    ",
"                    :.:.:.:.:.:.:.:.:.                    5.:.:.:.:.:.:.:.:.                            :.:.:.:.:.:.:.:.e.                  z.:.:.:.:.:.:.:.:.                    ",
"                    :.:.:.:.:.:.:.:.:.                  e.5.:.:.:.:.:.:.:.5.                            :.:.:.:.:.:.:.:.e.                  z.:.:.:.:.:.:.:.:.                    ",
"                    :.:.:.:.:.:.:.:.:.                  f.5.:.:.:.:.:.:.:.:.                            :.:.:.:.:.:.:.:.e.                  z.:.:.:.:.:.:.:.:.                    ",
"                    :.:.:.:.:.:.:.:.:.                  5.5.:.:.:.:.:.:.:.:.                            5.:.:.:.:.:.:.:.%.                  z.:.:.:.:.:.:.:.:.                    ",
"            z.5.5.5.:.:.:.:.%.                  f.5.5.5.5.5.:.:.5.                    f.5.5.f.5.5.z.5.5.:.:.:.:.                            z.:.:.:.:.:.:.:.:.                    ",
"            5.5.5.:.:.:.:.:.%.                  4.:.:.5.:.:.:.:.5.                    5.5.%.:.5.5.5.:.:.:.:.:.:.                            z.:.:.:.:.:.:.:.:.                    ",
"            5.:.:.:.:.:.:.:.%.                  %.:.:.:.:.:.:.:.5.                    %.:.:.:.:.:.:.:.:.:.:.:.:.                            z.:.:.:.:.:.:.:.:.                    ",
"            :.:.:.5.5.5.5.5.5.                  :.:.:.:.:.5.5.5.5.                  5.:.:.:.%.:.5.5.5.5.5.5.5.:.                            5.:.:.:.:.5.5.5.e.                    ",
"    e.#.e.5.:.:.:.%.5.                  e.#.#.:.:.:.:.:.5.5.                  e.#.:.5.:.:.:.5.e.                                    e.#.#.e.:.:.:.:.5.5.                          ",
"  e.e.#.%.%.:.:.:.5.                  z.e.e.%.:.:.:.:.:.                    e.#.:.:.:.:.:.:.e.                                    e.e.:.#.e.%.:.:.e.5.                            ",
"  :.:.:.:.:.:.:.:.5.                  z.%.%.%.:.:.:.:.:.                    :.:.:.:.:.:.:.:.e.                                    %.%.:.%.:.%.:.#.e.:.                            ",
"  :.:.:.:.:.:.:.%.5.                  z.5.:.:.:.:.:.:.:.                    :.:.:.:.:.:.:.%.e.                                    5.%.:.:.:.:.:.#.:.:.                            ",
"  :.:.:.:.%.%.:.:.5.                  z.5.:.:.:.:.:.%.5.                  :.:.:.:.:.%.;.:.5.5.                                    5.:.:.:.5.5.:.:.:.                              ",
"                                      z.5.:.:.:.                  %.:.:.:.:.:.:.:.:.e.                                    :.:.:.:.:.:.:.:.:.                                      ",
"                                      z.5.:.:.:.                  %.:.:.:.:.:.:.;.%.#.                                    :.:.:.:.:.:.:.:.5.                                      ",
"                                      z.5.:.:.:.                  %.:.:.:.:.:.:.:.:.:.                                    :.:.:.:.:.:.:.:.:.                                      ",
"                                      n.5.:.:.:.                  #.:.:.:.:.:.:.:.:.:.                                    :.:.:.:.:.:.:.:.:.                                      ",
"                              z.f.e.e.                            %.:.:.:.:.:.:.:.:.:.                          z.f.e.z.5.:.:.:.:.%.                                              ",
"                              5.:.:.5.                            %.:.:.:.:.:.:.:.:.:.                          e.5.:.:.5.:.:.:.:.                                                ",
"                              5.:.:.:.                            %.:.:.:.:.:.:.:.:.#.                          l.:.:.:.%.#.:.:.:.                                                ",
"                              e.e.e.:.                            #.:.:.:.:.:.:.:.:.e.                          5.5.:.:.;.e.e.e.:.                                                ",
"                                                                  %.:.:.:.:.:.:.:.:.e.                  #.e.e.%.:.:.:.:.:.                                                        ",
"                                                                  %.:.:.:.:.:.:.:.:.#.                  #.:.:.%.:.:.:.:.:.                                                        ",
"                                                                  %.:.:.:.:.:.:.:.:.e.                  :.:.:.:.:.:.:.:.:.                                                        ",
"                                                                  #.:.:.:.:.:.:.:.:.;.                  :.:.:.:.:.:.:.:.5.                                                        ",
"                                                                  %.:.:.:.:.:.:.:.:.;.                  :.:.:.:.:.:.:.:.:.                                                        ",
"                                                                  %.:.:.:.:.:.:.:.:.e.                                                                                            ",
"                                                                  %.:.:.:.:.:.:.:.:.;.                                                                                            ",
"                                                                  %.:.:.:.:.:.:.:.:.e.                                                                                            ",
"                                                                  5.:.:.:.5.5.f.f.5.                                                                                              ",
"                                                          l.5.5.5.:.:.:.:.5.                                                                                                      ",
"                                                        5.5.:.:.:.:.:.:.:.5.                                                                                                      ",
"                                                        z.:.:.:.:.:.:.:.:.:.                                                                                                      ",
"                                                          :.:.:.:.:.:.:.:.5.                                                                                                      ",
"                                                                                                                                                                                  "
};
