/* XPM */
static char *_b0e6853a6c344418b8fdec5beb3f884atifQQhGvhAfIX0i[] = {
/* columns rows colors chars-per-pixel */
"43 85 183 2 ",
"   c None",
".  c #030303",
"X  c #0A0A0A",
"o  c #060903",
"O  c #170E02",
"+  c #1B1104",
"@  c #070C12",
"#  c #04111B",
"$  c #0D141C",
"%  c #251A0B",
"&  c #221502",
"*  c #381605",
"=  c #331E00",
"-  c #361C02",
";  c #281E15",
":  c #172A12",
">  c #382100",
",  c #372100",
"<  c #292014",
"1  c #2D251A",
"2  c #3E2912",
"3  c #0A1929",
"4  c #0E1B31",
"5  c #00292E",
"6  c #002830",
"7  c #09253D",
"8  c #042335",
"9  c #1E3039",
"0  c #333537",
"q  c #272820",
"w  c #442900",
"e  c #4C2D00",
"r  c #442504",
"t  c #593907",
"y  c #44331A",
"u  c #6B3E01",
"i  c #6B2D0A",
"p  c #4C3E2A",
"a  c #45373F",
"s  c #315C27",
"d  c #334B31",
"f  c #49551C",
"g  c #5D5715",
"h  c #625411",
"j  c #754A07",
"k  c #415B23",
"l  c #4C4C39",
"z  c #486526",
"x  c #51722B",
"c  c #092943",
"v  c #0C3759",
"b  c #0D3B5E",
"n  c #103551",
"m  c #1A214A",
"M  c #223949",
"N  c #393642",
"B  c #222B61",
"V  c #463B47",
"C  c #3D474E",
"Z  c #294B5F",
"A  c #0E4169",
"S  c #0E4067",
"D  c #114B7A",
"F  c #184F79",
"G  c #264C66",
"H  c #315572",
"J  c #596D7E",
"K  c #7C7E7F",
"L  c #883B0C",
"P  c #A33915",
"I  c #804C00",
"U  c #884705",
"Y  c #8A5300",
"T  c #81520A",
"R  c #925302",
"E  c #9A5B00",
"W  c #975801",
"Q  c #A75707",
"!  c #B0500D",
"~  c #A36101",
"^  c #AA6500",
"/  c #AC6803",
"(  c #B36A00",
")  c #BA6D01",
"_  c #B66007",
"`  c #BD7203",
"'  c #CC5215",
"]  c #CA5612",
"[  c #FF5F1E",
"{  c #E65B18",
"}  c #CA6F05",
"|  c #D66A0B",
" . c #C47500",
".. c #CC7A00",
"X. c #CA7502",
"o. c #D47B02",
"O. c #E6750A",
"+. c #EA7F07",
"@. c #FF7D0E",
"#. c #E96812",
"$. c #FF6D16",
"%. c #FF641B",
"&. c #FF6A18",
"*. c #FF7413",
"=. c #FF7910",
"-. c #E66E0E",
";. c #FF5722",
":. c #FF5921",
">. c #C06B33",
",. c #618934",
"<. c #689B3D",
"1. c #76A53F",
"2. c #53B14F",
"3. c #5CB44F",
"4. c #4CAF50",
"5. c #4EB051",
"6. c #57B45B",
"7. c #5AB55D",
"8. c #5AB457",
"9. c #64B64E",
"0. c #6CB94D",
"q. c #67B84D",
"w. c #74BC4C",
"e. c #7BBE4B",
"r. c #62B653",
"t. c #66B856",
"y. c #78BD51",
"u. c #73A942",
"i. c #5DB660",
"p. c #6ABB62",
"a. c #63B966",
"s. c #7DC269",
"d. c #DA8200",
"f. c #E68900",
"g. c #ED8D00",
"h. c #EE8406",
"j. c #F38C03",
"k. c #FF8D06",
"l. c #FF840B",
"z. c #FF8908",
"x. c #F59200",
"c. c #FF9402",
"v. c #FF9800",
"b. c #81B746",
"n. c #85C14A",
"m. c #8BC34A",
"M. c #83C572",
"N. c #303E8B",
"B. c #114F80",
"V. c #125082",
"C. c #16578A",
"Z. c #155E97",
"A. c #205A87",
"S. c #3F51B5",
"D. c #1768A7",
"F. c #1B74BB",
"G. c #607281",
"H. c #1B78C3",
"J. c #1B7DCA",
"K. c #1383CB",
"L. c #1E87DB",
"P. c #1A87D8",
"I. c #00BCD4",
"U. c #02B7DC",
"Y. c #01B8DB",
"T. c #1F8DE4",
"R. c #1B9EED",
"E. c #169DF3",
"W. c #0F93E0",
"Q. c #2196F3",
"!. c #14A6E6",
"~. c #02B3E3",
"^. c #0DA3F4",
"/. c #11A0F4",
"(. c #838485",
"). c #A4A5A5",
"_. c #AAAAAA",
"`. c #86C889",
"'. c #95CE97",
"]. c #A3D5A5",
"[. c #E8E9E9",
"{. c #F5F5F5",
"}. c white",
/* pixels */
"                                                                                      ",
"                                    t.y.e.i.                                          ",
"                                  7.y.m.n.y.i.                                        ",
"                                8.e.m.m.m.m.e.6.                                      ",
"                                w.m.m.m.m.m.m.0.                                      ",
"                              3.e.m.m.m.m.m.m.e.3.                                    ",
"                            t.y.m.m.m.m.m.m.m.m.w.s.                                  ",
"                          p.w.m.m.m.m.m.m.m.m.m.m.w.t.                                ",
"                          3.m.m.m.m.m.m.m.m.m.m.m.m.3.                                ",
"            4.    7.4.  r.w.m.m.m.m.m.m.m.m.m.m.m.m.e.8.  5.i.  7.5.                  ",
"            4.5.  7.4.  3.m.m.m.m.m.m.m.m.m.m.m.m.m.m.3.  5.8.  5.5.                  ",
"            4.4.7.y.e.6.3.m.m.m.m.m.m.m.m.m.m.m.m.m.m.3.7.e.y.8.5.5.                  ",
"            5.5.5.e.m.w.3.m.m.m.m.m.m.m.m.m.m.m.m.m.m.3.w.m.e.2.5.4.                  ",
"            5.w.3.e.m.e.9.m.m.m.m.m.m.m.m.m.m.m.m.m.m.9.n.m.e.3.0.5.                  ",
"          6.0.m.3.e.m.e.3.m.m.m.m.m.m.m.m.m.m.m.m.m.m.3.n.m.e.3.n.0.                  ",
"          6.0.m.0.w.m.e.9.m.m.m.m.m.m.m.m.m.m.m.m.m.m.3.n.m.w.0.m.0.                  ",
"          6.0.m.m.3.m.w.q.m.m.m.m.m.m.m.m.m.m.m.m.m.m.0.e.e.3.m.m.0.                  ",
"          6.0.m.m.3.n.3.m.m.m.m.m.m.m.m.m.m.m.m.m.m.m.n.2.e.3.m.m.0.                  ",
"          6.0.m.m.w.q.3.n.m.m.m.m.m.m.m.m.m.m.m.m.m.m.m.2.q.w.m.m.0.                  ",
"          6.0.m.m.m.4.2.n.m.m.m.m.m.m.m.m.m.m.m.m.m.m.n.2.3.n.m.m.0.                  ",
"    i.    6.0.m.m.n.4.3.m.m.m.m.m.m.m.m.m.m.m.m.m.m.m.n.4.3.m.m.m.0.      i.          ",
"    4.i.    2.e.m.n.3.3.n.m.m.m.m.m.m.m.m.m.m.m.m.m.m.n.2.3.m.m.w.3.    i.5.          ",
"    4.7.    4.w.m.m.n.3.n.m.m.m.m.m.m.m.m.m.m.m.m.m.m.n.2.n.m.m.0.4.    7.5.          ",
"    3.e.4.  5.w.m.m.m.3.n.m.m.m.m.m.m.m.m.m.m.m.m.m.m.n.2.m.m.m.0.4.  4.w.2.          ",
"    2.b.3.  5.w.m.m.m.3.m.m.m.m.m.m.m.m.m.m.m.m.m.m.m.m.2.m.m.m.w.4.  r.e.2.          ",
"    8.e.e.4.5.w.m.m.m.9.e.m.m.m.m.m.m.m.m.m.m.m.m.m.m.e.3.m.m.m.0.4.4.e.e.2.          ",
"      3.e.9.`.s.n.m.m.e.9.m.m.m.m.m.m.m.m.m.m.m.m.m.m.3.n.m.m.e.M.`.9.n.3.            ",
"      3.m.0.].'.e.m.m.e.3.m.m.m.m.m.m.m.m.m.m.m.m.m.m.9.m.m.m.e.].].w.m.3.            ",
"      3.m.n.s.a.e.m.m.m.w.0.m.m.m.m.m.m.m.m.m.m.m.m.0.w.n.m.m.e.a.s.n.m.3.            ",
"      3.m.m.n.3.e.m.m.m.e.3.m.m.m.m.m.m.m.m.m.m.m.m.3.e.m.m.m.e.r.n.m.m.3.            ",
"      3.m.m.m.9.e.m.m.m.m.w.0.m.m.m.m.m.m.m.m.m.m.0.w.m.m.m.m.e.0.m.m.m.3.            ",
"      r.m.m.m.n.3.e.m.m.m.e.q.m.m.m.m.m.m.m.m.m.m.9.e.m.m.m.e.9.n.m.m.m.r.            ",
"        r.n.m.m.m.9.e.m.m.m.0.0.m.m.m.m.m.m.m.n.0.w.m.m.m.e.9.m.m.m.n.r.              ",
"          q.n.m.m.n.2.m.m.m.w.0.m.m.m.m.m.b.e.<.0.e.m.m.m.3.n.m.m.n.q.                ",
"          7.0.m.m.m.9.e.m.m.m.w.<.,.,.,.,.,.z s w.m.m.m.e.q.m.m.m.0.                  ",
"            q.b.m.m.m.0.w.m.1.x h u u u u i j h x 1.m.w.q.m.m.m.e.9.                  ",
"              t.n.m.m.1.s k h Y o.v.v.v.z.$.v. .Y g s s b.m.m.n.q.                    ",
"                t.e.z f Y Y  .v.v.v.v.v.*.l.v.v.v.) W Y k z b.t.                      ",
"                     .} *.v.v.v.v.v.c.&.k.v.v.v.v.v.v.v.X.o : :                       ",
"              % ` j.v.v.l.&.=.v.v.c.*.z.k.*.v.v.v.v.v.c.*.....^                       ",
"              W j.v.v.v.v.k.=.l.v.*.l.v.z.&.v.v.v.v.v.*.z.v.v.x.I                     ",
"          < Y v.v.c.:.v.v.v.v.=.:.@.v.v.v.v.v.v.v.v.c.$.c.v.v.v.v.Y                   ",
"        l E v.v.v.v.$.v.v.v.v.k.*.$.l.v.v.v.v.v.v.k.*.l.l.v.v.v.v.c.Y p       @ c 3   ",
"        w v.v.v.v.v.v.v.v.v.c.*.l.v.*.l.v.v.v.v.k.*.k.c.:.v.v.v.v.v.v.w       7 E.B.. ",
"      y R z.v.v.v.v.v.v.v.c.=.l.v.v.v.*.@.l.v.z.&.l.v.c.:.v.v.v.v.v.l.Y       7 Q.V.. ",
"      w k.*.*.z.v.v.v.c.=.*.z.v.v.v.v.v.=.=.@.@.&.k.v.v.@.v.v.v.v.z.=.c.r     c Q.V.. ",
"    y ~ v.z.@.*.k.v.v.*.@.l.v.v.v.@.c.v.v.c.=.=.k.v.v.v.v.v.v.v.l.*.k.W + . . # A 7 . ",
"    = h.*.v.v.c.*.%.%.z.v.v.v.v.v.%.l.v.v.z.*.=.%.z.v.v.v.v.v.k.=.c.v.w C.F.Z.3 N.m . ",
"    = +.%.v.v.v.&.:.l.v.v.v.v.v.v.k.v.v.k.*.k.c.z.$.z.v.v.v.k.$.k.v.v.w F.Q.H.7 S.B . ",
"    = j.c.v.v.*.l.z.&.v.v.v.v.v.v.v.v.v.$.z.v.v.v.c.*.z.v.k.*.k.v.@.l.e $ 3 4 @ $ $ o ",
"    e g.c.=.:.l.v.v.v.:.&.c.v.v.v.v.k.%.v.v.v.v.v.v.v.&.:.%.v.v.v.=.l.v.j.,           ",
"  . j.l.%.=.v.c.c.v.v.c.z.$.c.v.v.k.*.c.v.v.c.v.v.v.v.z.%.&.k.v.v.@.l.v.v.x.X         ",
"  o :.*.v.v.v.v.&.k.v.v.v.k.*.l.l.*.k.v.v.z.&.v.v.v.v.$.c.k.*.l.k.v.v.v.v.v.X         ",
"  . *.l.v.d./ / ! Q x.v.v.v.l.%.:.z.v.v.v.z.&.v.v.v.z.*.v.v.k.%.$.k.v.v.c.l.X         ",
"  X z.&.d.l V.V.V.D j v.v.k.*.=.%.$.k.v.v.c.l.v.v.l.=.k.v.v.v.k.=.=.*.c.l.=.X         ",
"  . c.=.>.F.D.A A J.Z.Y j.*.@.k.l.=.*.*.v.v.v.v.l.=.c.v.v.=.v.v.v.z.=.*.%.k.X         ",
"  . c.d.V D.J )._.H T.* #.l.v.v.v.v.z.l.*.v.v.l.=.k.v.v.v.%.c.v.v.v.@.=.l.*.X         ",
"  @ c. .m B.M.}.}.C L.= h.v.v.@.l.v.v.v.l.*.z.=.c.v.v.v.v.%.c.v.v.l.=.c.v.z.X         ",
"  o c. .7 B.K {.{.C L.= g.v.v.=.=.v.v.v.z.:.%.*.v.v.v.v.v.k.v.v.@.=.v.v.v.v.X         ",
"  & k.} m J.C.# # H.L.e g.v.v.@.l.v.v.c.&.c.v.@.=.k.v.v.v.v.v.l.=.v.v.c.v.v.%         ",
"< d.v.c.` G J.H.H.F.q j.v.v.v.v.v.v.k.&.c.c.v.v.=.%.l.c.v.v.l.*.v.v.v.&.z.v. .<       ",
"< f.c.z.l.! r e e t g.$.l.z.v.v.k.l.*.v.z.&.v.v.v.v.=.:.@.@.*.v.v.v.v.&.z.v...<       ",
"; O.=.[ $.$.l.z.c.v.v.c.$.*.k.k.*.$.k.v.z.&.v.v.v.v.v.*.:.*.l.v.v.v.v.=.k.v...<       ",
"; -.=.l.v.v.v.$.l.v.v.v.v.z.%.=.k.v.v.v.c.l.v.v.v.v.l.*.=.c.@.@.v.v.v.v.v.v...<       ",
"; #.v.v.v.v.v.$.l.v.v.v.k.=.=.=.*.c.v.v.v.v.v.v.l.*.=.l.c.v.c.=.*.l.v.v.v.v...<       ",
"< O.$.=.v.v.v.z.c.v.v.$.*.z.v.k.l.*.k.v.v.v.k.$.=.l.c.c.$.v.v.c.l.=.$.k.v.v.] ;       ",
"< f.z.l.*.v.v.v.v.c.&.l.k.z.@.v.v.k.*.c.v.k.$.z.k.v.v.c.:.> , > , W z.$.%.%.} ;       ",
"< f.v.c.l.=.v.c.*.&.z.v.v.l.*.v.v.v.z.%.%.$.k.v.v.v.v.g.r J.H.H.J.G / &.:.:.' ;       ",
"< f.v.v.c.=.%.%.l.k.v.v.v.z.=.v.v.v.k.%.[ %.*.c.c.c.c.t H.F.M M A.P.M } k.k.} <       ",
"< f.v.c.c.=.=.*.l.c.v.v.v.v.v.v.v.v.*.k.c.v.l.%.[ l.k.2 L.0 [.{.(.V.v ) v.v...<       ",
"< f.l.l.&.l.v.v.*.$.l.v.v.v.v.v.z.' _ / ( (  .v.v.=.&.2 J.0 [.}.(.F v ) v.:...<       ",
"; O.$.=.c.k.k.v.v.c.*.l.v.v.k.l.] N n n n n d Q d.v.v.2 L.G )._.J D.v ) v.*...<       ",
"; #.v.v.v.=.=.v.v.v.v.*.=.l.=.' V K.E.E.E.E.K.8 j v.v.j C.P.S b D.J.a | c.v...<       ",
"< f.v.v.v.=.=.v.v.v.v.c.*.;.*.I Z.^.~.U.~.~.^.V.I v.v.g.& A S S A l | @.*.*...<       ",
"; f.v.v.v.k.z.v.v.v.v.*.*.l._ - Z.^.Y.I.I.Y.^.D I v.v.*.P E E E E ..v.v.l.@.] ;       ",
"; { v.v.v.v.v.v.v.c.&.z.k.v.Y b W.~.I.I.I.Y.U.W.G ! %.l.k.v.v.v.=.l.v.v.v.v.} <       ",
"< +.%.*.v.v.v.c.*.%.z.$.c.v.I D ^.U.!.Y.U.!.U./.D P :.z.v.v.v.v.=.=.v.v.c.&.' ;       ",
"1 ..k.l.$.=.%.&.l.k.v.%.c.v.Y D ^.U.U.R.R.U.U.E.D Q k.$.&.c.c.v.c.c.v.c.*.z._ 1       ",
"  X c.l.:.%.*.c.v.v.v.%.c.v.Y D ^.Y.U.R.!.U.U./.D ~ v.c.c.%.&.c.v.c.c.$.z.v.+         ",
"  . $.*.v.v.l.=.c.v.v.%.c.c.U D ^.Y.!.I.Y.!.U.^.D ~ %.z.v.v.z.&.=.&.;.=.c.v.X         ",
"  . v.v.v.c.k.@.@.l.v.*.k.@.L D /.U.I.I.I.I.Y./.D ~ &.z.v.v.v.c.=.$.$.$.=.l.X         ",
"  o v.v.v.=.=.v.=.*.@.@.@.@.Y D ^.Y.I.I.I.I.Y./.D ~ =.k.v.c.l.=.=.k.v.v.=.*.X         ",
"    Y x.v.z.z.v.v.v.[ ;.%.v.Y D ^.U.I.I.I.I.U.^.D ~ v.v.v.*.=.l.=.=.v.v.x.j           ",
"    = g.v.v.v.v.v.=.@.@.@.@.Y D ^.Y.I.I.I.Y.U.E.D ~ v.v.*.l.v.v.k.z.v.v.g.+           ",
"      , > > > > > * - > - * + # 8 6 5 5 5 5 6 8 # & > , * - , , > > > > ,             "
};
