/* XPM */
static char *_50ab6dfb6a14573b59de77b2707b1c8PDtA6EqHM0Uf2998[] = {
/* columns rows colors chars-per-pixel */
"43 85 187 2 ",
"   c None",
".  c #010101",
"X  c #010508",
"o  c #00090C",
"O  c #0A0A0A",
"+  c #060903",
"@  c #1A0F00",
"#  c #110C05",
"$  c #1C1100",
"%  c #17120B",
"&  c #070C12",
"*  c #03131C",
"=  c #0D141C",
"-  c #251A0B",
";  c #221502",
":  c #381605",
">  c #331E00",
",  c #381F02",
"<  c #331604",
"1  c #281E15",
"2  c #351E1A",
"3  c #172A12",
"4  c #352102",
"5  c #382100",
"6  c #292014",
"7  c #2D251A",
"8  c #3E2912",
"9  c #0A1929",
"0  c #121A30",
"q  c #09253D",
"w  c #102C34",
"e  c #333537",
"r  c #272820",
"t  c #412700",
"y  c #442900",
"u  c #4C2D00",
"i  c #472209",
"p  c #593907",
"a  c #44331A",
"s  c #6B3E01",
"d  c #6B2D0A",
"f  c #4C3E2A",
"g  c #45373F",
"h  c #315C27",
"j  c #2C5425",
"k  c #49551C",
"l  c #5D5715",
"z  c #625411",
"x  c #754A07",
"c  c #415B23",
"v  c #4C4C39",
"b  c #486526",
"n  c #51722B",
"m  c #092943",
"M  c #072A42",
"N  c #0C3759",
"B  c #083755",
"V  c #1A214A",
"C  c #223949",
"Z  c #222B61",
"A  c #4A3E4A",
"S  c #3D474E",
"D  c #39554F",
"F  c #0E4169",
"G  c #09496B",
"H  c #154D7A",
"J  c #065575",
"K  c #085377",
"L  c #264C66",
"P  c #315572",
"I  c #596D7E",
"U  c #7C7E7F",
"Y  c #883B0C",
"T  c #A33915",
"R  c #804C00",
"E  c #884705",
"W  c #8A5300",
"Q  c #81520A",
"!  c #925302",
"~  c #9A5B00",
"^  c #975801",
"/  c #A75707",
"(  c #B05F05",
")  c #B04911",
"_  c #A36101",
"`  c #AA6500",
"'  c #AC6803",
"]  c #B36A00",
"[  c #BA6D01",
"{  c #B66007",
"}  c #BD7203",
"|  c #CB5414",
" . c #FF5F1E",
".. c #E65B18",
"X. c #CA6F05",
"o. c #D66A0B",
"O. c #C47500",
"+. c #CC7A00",
"@. c #CA7502",
"#. c #D47B02",
"$. c #E6750A",
"%. c #EA7F07",
"&. c #FF7D0E",
"*. c #E96812",
"=. c #FF6D16",
"-. c #FF641B",
";. c #FF6A18",
":. c #FF7413",
">. c #FF7910",
",. c #E66E0E",
"<. c #FF5722",
"1. c #FF5921",
"2. c #C06B33",
"3. c #B77554",
"4. c #618934",
"5. c #689B3D",
"6. c #76A53F",
"7. c #53B14F",
"8. c #5CB44F",
"9. c #4CAF50",
"0. c #4EB051",
"q. c #57B45B",
"w. c #5AB55D",
"e. c #5AB457",
"r. c #6FA540",
"t. c #64B64E",
"y. c #6CB94D",
"u. c #67B84D",
"i. c #74BC4C",
"p. c #7BBE4B",
"a. c #62B653",
"s. c #68B851",
"d. c #64B859",
"f. c #78BD51",
"g. c #76AC43",
"h. c #5DB660",
"j. c #6ABB62",
"k. c #63B966",
"l. c #7DC269",
"z. c #DA8200",
"x. c #E68900",
"c. c #ED8D00",
"v. c #EE8406",
"b. c #F38C03",
"n. c #FF8D06",
"m. c #FF840B",
"M. c #FF8908",
"N. c #F59200",
"B. c #FF9402",
"V. c #FF9800",
"C. c #F38617",
"Z. c #868250",
"A. c #81B746",
"S. c #85C14A",
"D. c #8BC34A",
"F. c #83C572",
"G. c #303E8B",
"H. c #114F80",
"J. c #125082",
"K. c #16578A",
"L. c #145C95",
"P. c #205A87",
"I. c #3F51B5",
"U. c #1768A7",
"Y. c #1B74BB",
"T. c #607281",
"R. c #1B78C3",
"E. c #1B7DCA",
"W. c #1E87DB",
"Q. c #1D85D7",
"!. c #00BCD4",
"~. c #05B5DA",
"^. c #1F8DE4",
"/. c #169DF3",
"(. c #2196F3",
"). c #13A7E5",
"_. c #02B3E4",
"`. c #838485",
"'. c #A4A5A5",
"]. c #AAAAAA",
"[. c #86C889",
"{. c #8ECC90",
"}. c #9BD09D",
"|. c #A3D5A5",
" X c #E8E9E9",
".X c #F5F5F5",
"XX c white",
/* pixels */
"                                                                                      ",
"                                    d.f.i.w.                                          ",
"                                  w.f.D.D.f.h.                                        ",
"                                w.p.D.D.D.D.p.w.                                      ",
"                                i.D.D.D.D.D.D.y.                                      ",
"                              8.p.D.D.D.D.D.D.p.8.                                    ",
"                            d.i.D.D.D.D.D.D.D.D.i.j.                                  ",
"                          j.p.D.D.D.D.D.D.D.D.D.D.i.j.                                ",
"                          8.D.D.D.D.D.D.D.D.D.D.D.D.8.                                ",
"            0.    h.9.  a.i.D.D.D.D.D.D.D.D.D.D.D.D.p.e.  0.w.  q.0.                  ",
"            9.0.  q.0.  8.D.D.D.D.D.D.D.D.D.D.D.D.D.D.8.  0.w.  0.9.                  ",
"            9.9.q.f.p.q.8.D.D.D.D.D.D.D.D.D.D.D.D.D.D.8.w.p.i.q.9.9.                  ",
"            0.7.0.p.D.i.8.D.D.D.D.D.D.D.D.D.D.D.D.D.D.8.p.S.p.0.0.9.                  ",
"            0.y.8.p.D.A.a.D.D.D.D.D.D.D.D.D.D.D.D.D.D.t.S.D.p.8.y.0.                  ",
"          w.y.D.8.p.D.p.t.D.D.D.D.D.D.D.D.D.D.D.D.D.D.8.S.D.p.8.D.y.                  ",
"          q.y.D.y.i.D.p.8.D.D.D.D.D.D.D.D.D.D.D.D.D.D.8.S.S.p.u.D.y.                  ",
"          q.y.D.D.8.S.i.y.D.D.D.D.D.D.D.D.D.D.D.D.D.D.y.p.p.t.D.D.y.                  ",
"          q.y.D.D.8.S.8.S.D.D.D.D.D.D.D.D.D.D.D.D.D.D.S.7.p.8.D.D.y.                  ",
"          w.y.D.D.i.y.8.S.D.D.D.D.D.D.D.D.D.D.D.D.D.D.S.7.u.i.D.D.y.                  ",
"          w.y.D.D.S.7.7.D.D.D.D.D.D.D.D.D.D.D.D.D.D.D.D.7.8.S.D.D.y.                  ",
"    h.    q.y.D.D.S.7.8.S.D.D.D.D.D.D.D.D.D.D.D.D.D.D.S.7.8.S.D.D.y.      h.          ",
"    0.q.    7.p.D.S.7.8.D.D.D.D.D.D.D.D.D.D.D.D.D.D.D.S.7.8.S.D.i.7.    h.9.          ",
"    0.w.    0.i.D.D.S.8.S.D.D.D.D.D.D.D.D.D.D.D.D.D.D.S.7.S.D.D.y.9.    q.0.          ",
"    8.i.0.  0.i.D.D.D.8.S.D.D.D.D.D.D.D.D.D.D.D.D.D.D.S.7.D.D.D.y.0.  0.p.7.          ",
"    8.p.8.  0.i.D.D.D.8.D.D.D.D.D.D.D.D.D.D.D.D.D.D.D.D.7.D.D.D.i.9.  a.p.0.          ",
"    8.p.p.9.9.i.D.D.D.t.p.D.D.D.D.D.D.D.D.D.D.D.D.D.D.p.t.D.D.D.y.9.0.p.p.0.          ",
"      8.S.a.[.l.S.D.D.p.8.D.D.D.D.D.D.D.D.D.D.D.D.D.D.t.S.D.D.p.F.[.s.S.8.            ",
"      8.D.y.|.{.p.D.D.p.8.D.D.D.D.D.D.D.D.D.D.D.D.D.D.8.S.D.D.p.}.|.i.D.8.            ",
"      8.D.S.l.k.p.D.D.D.i.y.D.D.D.D.D.D.D.D.D.D.D.D.y.i.D.D.D.p.k.l.S.D.8.            ",
"      8.D.D.S.8.p.D.D.D.p.8.D.D.D.D.D.D.D.D.D.D.D.D.8.p.D.D.D.p.a.S.D.D.8.            ",
"      8.D.D.D.a.i.D.D.D.S.i.i.D.D.D.D.D.D.D.D.D.D.y.i.S.D.D.D.p.y.D.D.D.8.            ",
"      a.D.D.D.S.t.p.D.D.D.p.u.D.D.D.D.D.D.D.D.D.D.u.p.D.D.D.p.t.S.D.D.D.a.            ",
"        a.S.D.D.D.t.A.D.D.D.y.y.D.D.D.D.D.D.D.D.y.i.D.D.D.p.u.D.D.D.S.a.              ",
"          y.S.D.D.D.7.D.D.D.i.s.A.D.D.D.D.D.p.5.y.p.D.D.D.8.S.D.D.S.s.                ",
"          q.y.D.D.D.t.p.D.D.D.i.5.4.4.4.4.4.b j i.D.D.D.i.y.D.D.D.y.                  ",
"            t.S.D.D.D.s.i.D.6.n z x s s s d x z n g.D.i.u.D.D.D.A.a.                  ",
"              a.S.D.D.g.h c z W +.V.V.V.M.;.V.O.W l h h p.D.D.A.s.                    ",
"                s.p.c k W W O.V.V.V.V.V.:.m.V.V.V.[ ! ! k b p.s.                      ",
"                    O.@.:.V.V.V.V.V.B.;.n.V.V.V.V.V.V.V.+.+ 3 3                       ",
"              - } b.V.V.M.;.>.V.V.B.:.M.n.:.V.V.V.V.V.B.;.+.+.`                       ",
"              ^ b.V.V.V.V.n.>.m.V.:.m.V.M.;.V.V.V.V.V.:.M.V.V.N.R                     ",
"          - W V.V.B.1.V.V.V.V.>.1.&.B.V.V.V.V.V.V.V.V.;.B.V.V.V.V.!                   ",
"        v ~ V.V.V.V.;.V.V.V.V.n.:.;.m.V.V.V.V.V.V.n.:.M.M.V.V.V.V.N.W v       & m 9   ",
"        y V.V.V.V.V.V.V.V.V.B.:.M.V.:.m.V.V.V.V.n.:.M.B.1.V.V.V.V.V.V.y       q (.J.. ",
"      a ! M.V.V.V.V.V.V.V.B.:.M.V.V.V.:.&.M.V.M.;.m.V.B.1.V.V.V.V.V.M.!       q (.J.. ",
"      5 n.:.:.M.V.V.V.B.:.>.M.V.V.V.V.V.>.>.&.>.;.n.V.V.&.V.V.V.V.M.:.B.t     q (.J.. ",
"    a ` V.M.&.:.n.V.V.:.&.m.V.V.V.&.n.V.V.B.&.:.M.V.V.V.V.V.V.V.M.:.n.^ $ . X * F q . ",
"    > v.:.V.V.B.:.;.-.M.V.V.V.V.V.-.M.V.V.n.=.&.-.M.V.V.V.V.V.M.:.B.V.y K.Y.L.0 G.V . ",
"    4 %.;.V.V.V.;.<.m.V.V.V.V.V.V.n.V.V.n.:.n.B.M.:.M.V.V.V.M.:.B.V.V.t Y.(.R.q I.Z . ",
"    > b.n.V.V.:.m.n.;.V.V.V.V.V.V.V.V.V.;.M.V.V.V.B.;.M.V.n.:.n.V.&.m.u = 9 0 & = = O ",
"    u b.B.>.1.m.V.V.V. .;.B.V.V.V.V.n.-.V.V.V.V.V.V.V.;.<.-.B.V.V.:.&.V.b.4           ",
"  . b.M.-.>.V.V.n.V.V.B.M.=.B.V.V.n.:.B.V.V.B.V.V.V.V.n.-.;.n.V.V.>.M.V.V.N.O         ",
"  X 1.:.V.V.V.V.;.M.V.V.V.n.>.m.M.:.M.V.V.M.;.V.V.V.V.;.B.n.:.M.B.V.V.V.V.V.O         ",
"  + =.M.V.z.` ` ) ' N.B.V.V.m.-.<.M.V.V.V.M.-.V.V.V.M.:.V.V.n.;.;.n.V.V.V.m.O         ",
"  X M.;.z.v J.J.J.H x B.V.n.:.>.-.=.n.V.V.B.m.V.V.m.>.B.V.V.V.n.>.>.:.B.>.>.O         ",
"  + B.>.2.Y.U.F F E.L.W b.>.>.M.M.>.:.:.V.V.V.V.M.>.n.V.V.>.V.V.V.n.>.:.-.B.O         ",
"  X V.#.A U.I '.'.P ^.< *.M.V.V.V.V.M.m.:.B.V.m.:.n.V.V.V.-.B.V.V.V.&.>.m.:.O         ",
"  X V.O.m L.Z.XXXXS W.> v.V.V.&.M.V.V.V.m.:.n.:.B.V.V.V.V.-.B.V.V.&.>.B.V.n.O         ",
"  + V.O.m K.U .X.XS W.> c.V.V.>.>.V.V.B.M. .-.>.V.V.V.V.V.n.V.V.m.>.B.V.V.V.O         ",
"  ; V.@.V ^.K.* 9 Y.W.u c.V.V.>.m.V.V.B.;.B.V.>.:.B.V.V.V.V.V.m.>.V.V.B.V.V.-         ",
"1 z.V.V.} L E.R.R.Y.r b.V.V.V.V.V.V.n.;.B.B.V.B.>.-.m.B.V.B.m.:.V.V.V.;.M.V.O.6       ",
"6 x.B.M.m./ i u u p c.=.M.M.V.V.n.M.:.V.M.;.V.V.V.V.>.1.m.&.:.V.V.V.V.;.M.V.+.6       ",
"6 $.>.1.=.;.m.M.B.V.V.B.=.:.M.n.:.;.n.V.M.;.V.V.V.V.V.:.1.:.M.V.V.V.V.>.n.V.+.6       ",
"1 ,.>.m.V.V.V.;.M.V.V.V.V.M.-.>.n.V.V.V.B.m.V.V.V.V.m.>.>.B.>.>.V.V.V.V.V.V.+.6       ",
"1 *.V.V.V.V.V.:.M.V.V.V.n.:.&.>.:.n.V.V.V.V.V.V.M.:.>.>.V.V.B.:.:.m.V.V.V.V.+.6       ",
"1 $.=.:.V.V.V.M.B.V.V.;.:.M.V.n.m.:.n.V.V.V.n.=.:.m.B.B.:.V.V.B.m.>.=.n.V.V.| 1       ",
"6 x.M.m.:.V.V.V.V.V.;.M.n.M.&.V.V.n.:.B.V.M.;.M.B.V.V.B.1.5 4 5 5 ^ M.=.-.-.X.1       ",
"6 x.V.V.m.>.V.V.:.-.M.V.V.M.:.V.V.V.M.-.-.;.B.V.V.V.V.c.i E.R.R.R.L ' ;.1.1.| 1       ",
"1 x.V.V.B.>.-.-.m.n.V.V.V.M.:.V.V.V.n.-.1.-.:.B.B.V.V.p Y.Y.C C P.Q.C X.n.n.@.6       ",
"6 x.V.V.B.:.>.:.m.B.V.V.V.V.V.V.V.V.:.B.B.B.m.-.1.>.B.8 W.e  X.X`.J.N } V.B.+.6       ",
"6 x.M.&.;.m.V.V.:.=.&.V.V.V.V.V.M.| { ] ] ] O.V.V.>.;.8 Q.e  XXX`.H N [ B. .+.6       ",
"1 $.=.:.V.n.n.V.V.B.:.M.V.V.n.C.3.2 X . . + 4 ` z.V.V.8 Q.L '.].I U.N [ B.:.+.6       ",
"1 *.V.V.V.>.>.V.V.V.V.:.&.m.:.3./.q . . . . o X x V.V.x K.Q.F N U.R.A o.n.V.+.6       ",
"6 x.V.V.V.>.>.V.V.V.V.B.:.<.:.Z._.B . . . . . X R V.V.c.; F F F F v o.&.:.:.+.6       ",
"1 x.V.V.V.n.M.V.V.V.V.:.:.m.{ D !.B . . . . . X R V.V.:.T ~ ~ ~ ^ +.V.V.m.&.| 1       ",
"1 ..V.V.V.V.V.V.V.B.;.M.n.V.W G !.G . . . . . . $ ) ;.m.n.V.V.V.m.m.V.V.V.V.@.1       ",
"6 %.-.=.V.V.V.V.:.-.M.;.B.V.R K ~.J . . . . . . . T 1.M.V.V.V.V.>.>.V.V.B.;.| 1       ",
"7 +.n.m.=.>.-.-.M.n.V.-.B.V.W K ).J . . . . . . . / n.=.;.B.B.V.B.B.V.B.:.n.{ 7       ",
"  # B.M. . .:.B.V.V.V.-.B.V.W K ).J . . . . . . . _ B.B.B.-.;.B.B.B.B.;.M.V.%         ",
"  X ;.:.V.V.m.&.B.V.V.-.B.B.E K ~.J . . . . . . . _ ;.M.V.V.n.;.>.;.<.>.B.V.O         ",
"  O V.V.V.B.n.&.&.m.V.:.n.&.Y J !.J . . . . . . . / ;.M.V.V.V.B.>.=.=.=.&.m.O         ",
"  . V.V.V.>.>.V.>.:.&.&.&.&.W J !.K . . . . . . . _ >.n.V.V.m.>.>.M.V.V.&.=.O         ",
"    W N.V.M.M.V.V.V. .<.-.V.W K !.J . . . . . . . _ V.V.V.:.>.m.&.>.V.V.N.x           ",
"    > c.V.V.V.V.V.>.&.&.&.&.W J !.J . . . . . . . _ V.V.:.m.V.V.n.M.V.V.c.@           ",
"      4 5 5 5 5 4 : > 5 , : $ * q * + o o o o o X ; 5 5 : > , 5 5 5 5 5 5             "
};
