/* XPM */
static char *_706a36c0b20408ae59909d7bfd567efKvGz1cQPFEMGaDNn[] = {
/* columns rows colors chars-per-pixel */
"81 89 159 2 ",
"   c None",
".  c #010101",
"X  c #0C0000",
"o  c #0E0908",
"O  c #1D1B08",
"+  c gray7",
"@  c #1C1817",
"#  c #291D17",
"$  c #291C18",
"%  c #231915",
"&  c #36310F",
"*  c #393510",
"=  c #092136",
"-  c #272727",
";  c #3A372E",
":  c #3A382F",
">  c #363533",
",  c #393631",
"<  c #393939",
"1  c #442F27",
"2  c #50382F",
"3  c #54372E",
"4  c #4F3830",
"5  c #4A4415",
"6  c #564F16",
"7  c #564F19",
"8  c #575016",
"9  c #585016",
"0  c #565018",
"q  c #626D0C",
"w  c #5E4237",
"e  c #4B4620",
"r  c #78593A",
"t  c #77573E",
"y  c #7A7235",
"u  c #797238",
"i  c #786F22",
"p  c #0C3353",
"a  c #253D51",
"s  c #124268",
"d  c #4B4B4B",
"f  c #464646",
"g  c #565655",
"h  c #5A5955",
"j  c #555658",
"k  c #574E41",
"l  c #775447",
"z  c #785446",
"x  c #765548",
"c  c #726E48",
"v  c #696969",
"b  c #6A6A64",
"n  c gray44",
"m  c #861814",
"M  c #A60706",
"N  c #F90706",
"B  c #F60807",
"V  c #F80807",
"C  c #F40A09",
"Z  c #EF0B0A",
"A  c #C7241F",
"S  c #CB221D",
"D  c #D93B3A",
"F  c #D12A27",
"G  c #825043",
"H  c #846D64",
"J  c #F75C5B",
"K  c #F85A59",
"L  c #ED504F",
"P  c #C26969",
"I  c #D47E7E",
"U  c #7E8A28",
"Y  c #93A40D",
"T  c #92A311",
"R  c #8E8324",
"E  c #8C843D",
"W  c #988C2A",
"Q  c #A79B2E",
"!  c #A99C2C",
"~  c #A79B32",
"^  c #BBAE3A",
"/  c #C6B631",
"(  c #DDF70E",
")  c #DCF612",
"_  c #E1D037",
"`  c #FEEA3C",
"'  c #8E874E",
"]  c #928A49",
"[  c #BCB150",
"{  c #A8A058",
"}  c #8E8964",
"|  c #BFB877",
" . c #BEB77B",
".. c #BFB878",
"X. c #C4B84B",
"o. c #C7BA46",
"O. c #C0B874",
"+. c #DDD05E",
"@. c #E9D951",
"#. c #FAE746",
"$. c #FCE942",
"%. c #F9E749",
"&. c #FCE948",
"*. c #F4E348",
"=. c #FDEC53",
"-. c #D4C866",
";. c #DDD061",
":. c #FEEF68",
">. c #F8EC7E",
",. c #FDF17D",
"<. c #1A629D",
"1. c #1763A1",
"2. c #4A7AA1",
"3. c #6697BD",
"4. c #758EA1",
"5. c #2494EE",
"6. c #2295F1",
"7. c #6DB8F4",
"8. c #6EB7F1",
"9. c #70B8EF",
"0. c #8D8D8D",
"q. c #9F9E96",
"w. c #9E9D9C",
"e. c #939393",
"r. c #A09F93",
"t. c #A19C9C",
"y. c #A2A19E",
"u. c #A4A4A4",
"i. c #A9A9A9",
"p. c #A7A8A9",
"a. c #BCBCBA",
"s. c #BDBCB4",
"d. c #C0BCBC",
"f. c #FAA9A8",
"g. c #FAA9A7",
"h. c #FAC29B",
"j. c #FDF082",
"k. c #FCEF83",
"l. c #D3CFA9",
"z. c #FEF8B6",
"x. c #FDF7BC",
"c. c #AEC8DB",
"v. c #AFD7F6",
"b. c #C6C6C6",
"n. c #DDDDDD",
"m. c #FDF9D1",
"M. c #E1E1E1",
"N. c #EFEFE9",
"B. c #F4F3EC",
"V. c #FEFEF6",
"C. c #F6FFFF",
"Z. c #FEFEFA",
"A. c #FAFEFF",
"S. c #FDFDFD",
"D. c #FCFCFC",
"F. c #FEFEFE",
"G. c #FDFEFD",
"H. c #FDFDFD",
"J. c #F5F5F4",
/* pixels */
"                                . . . . . . . .       . . . . . . . . . . .           . . . . . . . . . . .       . . W $.&.. . .                                 ",
"                                . . . . . . . .       . . . . . . . . . . .           . . . . . . . . . . .       . . ! ` ` . . .                                 ",
"                                f g g 7 0 * . . .     0 8 8 9 9 9 7 7 . . .           . . . 9 9 7 7 9 O . .     . . . ! ` ` 9 9 5                                 ",
"                          . . . y.D.J.$.$.! . . . . . $.` ` ` ` ` ` $.. . . . . . . . . . . $.` ` ` $.0 . . . . . . . ! ` ` ` ` ! . .                             ",
"                          . . . p.J.N.` ` ! . . . . . ` ` ` ` ` ` ` ` . . . . . . . . . . o ` ` ` ` ` 8 . . . . o . . ! ` ` ` ` ! . .                             ",
"                      . . d v v w.a.s.$.` _ ! ! ! ! ! ` ` ` ` ` ` ` ` ! ! ! ! ! ! ! ! ! ! ! ` ` ` ` ` / ! ! ! ! ! ! ! _ ` ` ` ` _ ! ! 5 . .                       ",
"                      . . b u.w.w.w.q.` ` ` ` ` ` ` ` ` ` ` ` ` ` ` ` ` ` ` ` ` ` ` ` ` ` ` ` ` ` ` ` ` ` ` ` ` ` ` ` ` ` ` ` ` ` ` ` 7 . .                       ",
"                      . . b q.q.q.w.r.` ` ` ` ` ` ` ` ` ` ` ` ` ` ` ` ` ` ` ` ` ` ` ` ` ` ` ` ` ` ` ` ` ` ` ` ` ` ` ` ` ` ` ` ` ` ` ` 9 . .                       ",
"                . . > w.w.;.$.#.u > ; ` ` ` ` ` ` ` ` ` ` ` ` ` ` ` ` ` ` ` ` ` ` ` ` ` ` ` ` ` ` ` ` ` ` ` ` ` ` ` ` ` ` ` ` ` ` ` ` 6 . .                       ",
"                . . > q.q.+.` ` u > ; ` ` ` ` ` ` ` ` ` ` ` ` ` ` ` ` ` ` ` ` ` ` ` ` ` ` ` ` ` ` ` ` ` ` ` ` ` ` ` ` ` ` ` ` ` ` ` ` 6 . .                       ",
"                . . e +.+.*.` $.u > , ` ` ` ` ` ` ` ` ` ` / 7 9 / ` ` 9 7 R ` ` ` ` ` ` ` ` ` ` / 0 9 / ` $.9 9 R ` ` ` ` ` ` ` ` ` ` 6 . .                       ",
"                . . 7 $.` ` ` $.y > ; ` ` ` ` ` ` ` ` ` ` ! . . ! ` ` . . 7 ` ` ` ` ` ` ` ` ` ` ! . . ! ` $.. . 9 ` ` ` ` ` ` ` ` ` ` 6 . .                       ",
"                . . 7 $.` ` ` ` y , ; $.` ` ` ` ` ` ` ` ` ! . . ! $.#.. . 9 ` ` ` ` ` ` ` ` ` ` ! . . ! $.&.. . 9 ` ` ` ` ` ` ` ` ` ` 6 . .                       ",
"                . . 6 ` ` ` ` ` y , ; ` ` ` ` ` ` ` ` ` ` ! . . . . . . . 9 ` ` ` ` ` ` ` ` ` ` ! . . . . . . . 9 ` ` ` ` ` ` ` ` ` ` 6 . .                       ",
"                . . 9 ` ` ` ` ` u < * ` ` ` ` ` ` ` ` ` ` ! . . . . . . . 9 ` ` ` ` ` ` ` ` ` ` ! . . . . . . . 9 ` ` ` ` ` ` ` ` ` ` 7 . .                       ",
"                > > y ` ` ` ` $.] h h ` ` ` ` ` ` ` ` ! ~ E g j g g g g g } >.>.&.` ` ` ` ` ! ! E g g g g h g g } ,.,.` ` ` ` ` ` ` ` 7 . .                       ",
"          . . . w.w. .` ` ` ` `  .w.q.` ` ` ` ` ` ` ` . . h G.G.S.G.G.G.G.J.N.B.,.` ` ` ` $.. . g G.G.G.S.S.S.S.G.D.V.,.` ` ` ` ` ` ` 6 . .                       ",
"          . . . q.q. .#.$.$.$.$. .q.r.#.$.$.` ` $.$.%.. . h G.G.G.G.G.G.G.D.D.J.>.&.$.&.$.&.. . h G.G.G.G.G.G.G.G.G.G.j.&.$.` ` ` ` ` 6 . .                       ",
"      . o i ! ! +.+.[ y y y y y [ +.+. ...-.` ` R 7 7 i.i.b.G.G.G.G.G.G.G.G.G.G.m.z.z.' 7 7 i.i.b.G.G.G.G.G.G.G.G.G.G.m.x.z.` ` ` ` ` 6 . .                       ",
"      . . ! $.$.` ` ^ ; > > > ; ^ ` #.q.q...` ` 9 . . G.G.G.G.G.G.G.G.G.G.G.G.G.G.G.D.g . . G.G.G.G.G.G.G.G.G.G.G.G.G.G.G.V.` ` ` ` ` 6 . .                       ",
"      . . ! ` ` ` ` ^ , > > > , ^ ` $.q.q...` $.7 . . G.G.G.G.G.G.G.G.D.C.D.D.D.G.G.G.g . . G.G.G.G.G.D.C.C.S.S.G.G.G.G.G.D.` ` ` ` ` 6 . .                       ",
"      . . ! ` ` ` ` ^ ; > > > : ^ ` $., > u ` ` 7 . . G.G.G.G.G.G.G.G.6.6.<.. . i.G.G.g . . G.G.G.G.D.7.5.5.. . j G.G.G.G.D.$.` ` ` ` 6 . .                       ",
"      . . ! ` ` ` ` ^ , > > > , ^ ` $., : y ` $.7 . . G.G.G.G.G.G.G.D.5.6.<.. . i.S.S.g . . S.G.G.G.G.7.5.5.. . g G.G.G.G.V.` ` ` ` ` 7 . .                       ",
"      . . ] ;.+.` ` X.h h j j g o.` $.> , y ` ` 7 . . G.G.G.G.G.G.G.G.<.<.s . . n i.u.< . . S.G.G.G.G.3.<.<.. . < i.i.M.G.D.$.` ` ` ` 7 . .                       ",
"      . . v q.q.$.` +.q.w.w.w.q.+.` ` : , y ` $.9 . . G.G.G.G.G.G.G.G.. . . . . . . . . . . G.G.G.G.G.j . . . . . . . i.G.D.` ` ` ` ` 6 . .                       ",
"      . . v w.q.$.` +.q.q.q.q.q.+.` ` > : y ` ` 0 . . D.G.G.G.G.G.G.G.. . . . . . . . . . . G.G.G.G.D.j . . . . . . . i.G.G.$.` ` ` ` 6 . .                       ",
"          > < : ` ` *.+.+.+.+.+.*.` $.> , y ` $.9 . . g g 0.G.G.G.G.G.<.1.s . . s <.<.= . . G.G.G.G.D.3.1.<.. . = 1.<.c.G.V.` ` ` ` ` 6 . .                       ",
"          . . . $.` ` ` ` ` ` ` ` ` ` : : y ` $.7 . . . . g G.G.G.G.G.6.6.1.. . 1.6.5.p . . G.G.G.G.D.7.6.6.. . p 6.6.v.G.D.$.` ` ` ` 6 . .                       ",
"          . . . ` ` ` ` ` ` ` ` ` ` $.g h ] ` ` R 9 7 7 7 c i.i.M.G.D.8.7.3.j j 3.8.9.a . . i.i.i.i.p.2.<.<.. . = <.<.4.u.y.` ` ` ` ` 6 . .                       ",
"          . . . ` ` ` ` ` ` ` ` ` ` #.q.w. .` ` ` ` ` $.$.Q . . i.G.G.D.D.D.G.G.D.D.D.g . . . . . . . . . . . . . . . . . . $.` ` ` ` 6 . .                       ",
"          . . . #.` ` ` ` ` $.` ` ` #.q.q. .$.` ` ` ` ` ` ! . . i.G.S.S.S.S.G.G.D.D.D.g . . . . . . . . . . . . . . . . . . ` ` ` ` ` 7 . .                       ",
"                7 7 R ` ` ~ y y y y y +.+.-. ...@.` ` ` ` _ ! Q c j g g g g g g g g g E ! ! ! ! ! ! Q Q ! ! ! ! Q Q Q * . . ` ` ` ` ` 7 . .                       ",
"                . . 7 ` ` y ; , , , ; $.` ;.w.q.+.` ` ` ` ` ` $.7 . . . . . . . . . . ! ` ` ` ` ` ` ` ` ` ` ` ` ` ` $.7 . . ` ` ` ` ` 6 . .                       ",
"                . . 6 ` ` y , < > > ; ` ` ;.w.q.@.` ` ` ` ` ` ` 9 . . . . . X . . . . ! ` ` $.&.&.#.&.%.#.&.$.%.%.%.&.9 . X ` ` ` ` ` 6 . .                       ",
"                . . 7 ` `  .w.w.w.w.q.` ` ^ , , ^ $.` ` ` ` ` ` ` $.$.$.$.$.$.$.` $.` ` ` $.. . . . . . . . . . . . . ! #.$.` ` ` ` ` 6 . .                       ",
"                . . 7 $.`  .q.q.q.w.q.` $.^ , , ^ ` ` ` $.` ` $.` ` ` ` ` ` ` ` ` ` ` ` ` ` . . . . . . . . . . . . . ! ` ` ` ` ` ` ` 6 . .                       ",
"                . . 7 ` ` -.|  . .| | ` ` ^ > , ^ ` ` Q ! ! ~ ! _ ` ` ` ` ` ` ` ` ` ` ` ` ` 9 7 9 9 9 7 7 7 . . O 9 9 / ` ` ` ` ` ` ` 6 . .                       ",
"                . . 7 ` ` ` ` $.$.$.` ` ` ^ > , ^ ` $.. . . . X ! ` ` ` ` ` ` ` ` ` ` ` ` ` ` $.` $.$.` ` $.. . 9 ` ` ` ` ` ` ` ` ` ` 6 . .                       ",
"                . . 7 $.$.` ` ` ` ` ` ` $.^ : : ^ ` $.. . . . . ! ` ` ` ` ` ` ` ` ` ` ` ` ` ` ` ` ` ` ` ` ` . . 9 ` ` ` ` ` ` ` ` ` ` 7 . .                       ",
"                    & 7 9 / ` ` ` ` ` ` ` ^ , : ^ ` ` ! ! ! ! ! i 9 9 ` ` ` ` ` ` ` ` ` ` ` ` ` ` ` ` ` ` $.. . 0 ` ` ` ` ` ` ` ` ` ` 7 . .                       ",
"                      . . ! ` ` ` ` ` ` ` ^ , , ^ ` ` ` ` ` ` ` 6 . . ` ` ` ` ` ` ` ` ` ` ` ` ` ` ` ` ` ` $.. . 7 ` ` ` ` ` ` ` ` ` ` 6 . .                       ",
"                      . . ! ` ` ` ` ` ` ` ^ , , ^ ` ` ` ` ` ` ` 6 . . *.#.#.#.#.$.#.$.$.$.$.%.$.$.&.#.&.#.*.. . 7 ` ` ` ` ` ` ` ` ` ` 6 . .                       ",
"                      . . ! ` ` ` ` ` ` ` ;.w.q.+.` ` ` ` ` ` ` ` $.&.. . . . . . . . . . . . . . . . . . . . . 6 ` ` ` ` ` ` ` ` ` ` 6 . .                       ",
"                      . . ! $.` ` ` ` ` ` ;.q.q.+.$.` ` ` ` ` ` ` ` ` . . . . . . . . . . . . . . . . . . . . . 6 ` ` ` ` ` ` ` ` ` ` 7 . .                       ",
"                      . . { j.j.j.j.j.` ` @. .| -.;.+.` ` ` ` ` ` ` ` 9 8 * . . < j j g g g . . @ j h g g g . . 9 ` ` ` ` ` ` ` ` ` ` 7 . .                       ",
"                      . . i.G.G.D.G.V.` ` ` ` $. .q.q.` ` ` ` ` ` ` ` ` ` ! . . i.G.G.G.G.G.. . j G.G.G.G.D.. . 9 ` ` ` ` ` ` ` ` ` ` 0 . .                       ",
"                      . . i.G.G.G.G.V.` ` ` ` ` | q.r.` ` ` ` ` ` ` ` ` ` ! . . i.G.G.G.G.S.. . g G.G.G.G.D.. . 9 ` ` ` ` ` ` ` ` ` ` 9 . .                       ",
"      . . . . . . . j G.G.G.G.G.G.G.V.` ` ` ` $.y ; ; ` ` ` ` ` ` ` ` ` ` ` $.$.0 . . . . . &.$.~ . . . . . $.` ` ` ` ` ` ` ` ` ` ` ` 9 . .                       ",
"      . . . . . . . j S.G.G.G.G.G.G.D.` ` ` ` $.y , , ` ` ` ` ` ` ` ` ` ` ` ` ` 7 . . . . . ` ` Q . . . . . ` ` ` ` ` ` ` ` ` ` ` ` ` 6 . .                       ",
"    & 0 0 k g g g g 0.G.G.b.i.i.M.G.D.j.j.:.` ` y , ; $.` ` ` ` ` ` ` ` ` ` ` ` R 7 7 7 7 9 ` ` / 9 7 7 9 9 ` ` ` ` ` ` ` ` ` ` ` ` ` 6 . . .                     ",
". . 0 $.#.x.D.G.G.G.G.G.G.j . . i.G.G.D.V.z.` $.u , ; ` ` ` ` ` ` ` ` ` ` ` ` ` ` ` ` $.` $.` ` ` $.` ` ` ` ` ` ` ` ` ` ` ` ` ` ` ` ` 9 . . . . . . . . . .       ",
". . 7 ` ` x.D.D.G.G.G.S.S.j . . i.G.G.V.V.z.` ` u , ; $.` ` ` ` ` ` ` ` ` ` ` ` ` ` ` ` ` ` ` ` ` ` ` ` ` ` ` ` ` ` ` ` ` ` ` ` ` ` ` 9 . . . . . . . . . .       ",
". . 7 ` ` ' g g g g g j g >     d g g j.,.:.` $.u > ; ` ` ` ` ` ` ` ` ` ` ` ` ` ` ` ` ` ` ` ` ` ` ` ` ` ` ` ` ` ` ` ` ` ` ` ` ` ` ` ` / ! Q ! Q ! ! ! ! ! ! 5 . . ",
". . 7 ` ` 7 . . . . . . .       . . . ` ` ` ` ` y > ; $.` ` ` ` ` ` ` ` ` ` ` ` ` ` ` ` ` ` ` ` ` ` ` ` ` ` ` ` ` ` ` ` ` ` ` ` ` ` ` ` ` ` ` ` ` ` ` ` ` $.7 . . ",
". . 9 ` $.7 . . . . . . .       . . . ` ` ` ` ` u , ; ` ` ` ` ` ` ` ` ` ` ` ` ` &.%.$.#.$.%.&.&.$.` ` ` ` ` ` ` ` ` ` ` ` ` ` ` ` ` ` ` ` ` ` ` ` ` ` ` ` ` 0 . o ",
". . 7 ` ` 7 . .                 . . . ` ` ` ` $. .w.r.$.` ` ` ` ` ` ` ` ` ` ` ` z.D.J.l.r.r.V.V.z.` ` ` ` ` ` ` ` ` ` ` ` ` ` ` ` ` ` ` ` ` ` ` ` ` ` ` ` ` 7 . . ",
". . 6 ` ` 7 . .                 . . . &.` $.$.$. .w.r.&.$.` $.` ` ` ` ` $.` $.$.m.V.V.d.t.t.S.D.z.$.$.` $.` $.` ` ` ` ` $.` $.` ` ` $.` $.` $.` $.` ` ` ` ` 9 . . ",
". . 6 ` ` 7 . .                 . . . k.j.j.j.j.l.a.d.~ Q X.j.j.,.:.j.j.j.j.j.j.h.f.g.I P P f.g.h.j.j.j.j.j.j.j.,.:.j.j.j.j.! Q X.j.j.X.Q ~ Q Q Q ~ Q / ` ` 7 . . ",
". . 7 ` ` 7 . .                 . . . G.D.D.D.D.G.G.G.. . g S.G.D.D.D.D.D.D.D.D.K C V V N N B C J D.G.D.D.D.G.G.V.D.D.D.G.G.. . g D.D.j . . . . . . . 7 ` $.0 . . ",
". . 7 ` ` 7 . .                 . . . G.G.G.G.G.G.G.G.. . g D.G.D.G.D.G.G.G.G.D.K V V N N N N B J G.G.G.G.G.G.G.D.D.D.D.G.G.. . g D.D.g . . . . . . . 7 ` ` 9 . . ",
". . 7 ` $.7 . . . . . . .       . . . G.G.G.G.G.G.G.G.i.p.0.j j b.G.G.G.G.G.G.G.K V N N N V V V J G.G.G.G.G.G.G.G.G.D.0.g g i.i.0.g g >           . . 7 ` ` 0 . . ",
". . 7 ` ` 7 . . . . . . .       . . . G.G.G.G.G.G.G.G.G.D.p.. . i.G.G.G.G.G.G.G.K V N N N V V V J G.G.G.G.G.G.G.G.D.D.j . . G.G.i.. .             . . 6 ` $.0 . . ",
". . 7 ` ` R 7 7 7 7 * . .       . . . n.n.n.M.n.n.n.n.n.n.u.> < u.n.n.n.n.n.n.n.L N N N N N V V L n.n.n.M.n.n.n.n.n.n.n > < n.n.e.. .             . . 7 ` $.7 . o ",
". . 7 ` ` ` ` ` $.` ~ . .       . . . w.w.w.w.w.w.w.w.y.w.w.w.w.w.y.w.w.w.w.y.t.D V N N N N V C D w.w.y.w.w.w.w.w.w.w.w.w.w.w.w.v . .             . . 9 ` $.7 . . ",
". . 7 ` ` ` ` ` ` ` ! . .       . . . w.q.w.w.w.w.w.t.w.w.t.w.w.q.w.w.w.w.w.t.t.D N N N N N N B D w.w.w.w.w.w.w.q.w.w.w.w.w.t.w.v . .             . . 6 ` ` 7 . . ",
". . 7 ` ` ` ` ` ` ` ! . .       . . . H H H H H H H H H H H H H H H H H H H H H F N N N N N N B F H H H H H H H H H H H H H H H k . . . . . . . . . . 7 ` ` 7 . . ",
". . 9 ` ` ` ` ` ` ` ! . .       . . . l z z z z l l l l l l l l l z z z x z x z S V N N N N N C S z z z l l l l z l z z l l l l 2 . . . . . . . . . . 7 ` ` 7 . . ",
". . 7 #.$.$.$.` $.$.! . .       . . . l z l z z x l l l l l l l z z z z z z z z A Z C V N N C C S l x l l l z z z z z z l z l l 2 . . . . . . . . . . 7 ` $.7 . . ",
"      . . . . . . . o           . . . z z z z l # . . . . # z z z z z z l 3 . . X X X M N C G G 3 . . . . X z z z z z l z l . . . . . . . . Q $.` $.$.` ` ` 9 . . ",
"      . . . . . . . .           . . . l z z z l $ . . . . # z z z z l z l 3 . . . . . M C C z z 3 . . . . . l z z z z z l l . . . . . . . . ! ` ` ` ` ` ` ` 0 . . ",
"      o . . . . . .             . . . l z l z z 1 $ $ # # 1 z z z z z z l w $ $ o . . m S S z z w $ $ $ $ # l z l z z w 4 4 . . . . . . . . ! ` ` ` ` ` ` $.9 . . ",
"                                . . . l z z z z z z l l l z z z l z z z z z z l $ . . 3 z z z z z z l l l l z z z z l $ . . . . . . . . . . ! ` ` ` ` ` ` ` 9 . . ",
"                                . . . x l l l x z l l l l l z z z z z z z z x x $ . . 4 l z x x l z z z z z z z z z x # . . . . . . . . . . Q &.$.$.$.$.$.#.0 . . ",
"                                      $ $ $ $ $ $ $ $ # $ 1 z z z z z z l w $ $ @     $ $ $ $ $ 1 z z z z z z z z z l # . . . . . . . .                           ",
"                                      . . . . . . . . . . # l z z z z z z 2 . .       . . . . . $ z l z z z z z l l l # . . . . . . .                             ",
"                                      . . . . . . . . . . $ l l t r r z l 4 . .       . . . . . # x x l l x r r t l x # . . . . . . .                             ",
"                                                            . . Y ( ) . . .                           . . . ) ) Y . .                                             ",
"                                                            . . Y ( ) . . .                           . . . ) ( Y . .                                             ",
"                                                          > h h U Y T . . .                           d h g T T q . .                                             ",
"                                                      . . j G.G.g . . . . .                       . . i.G.G.. . . . .                                             ",
"                                                      . . j G.S.j . . . . .                       . . p.D.D.. . . . .                                             ",
"                                                      . . . . . v w.w.. . . . .                   . . . . . w.w.v . . . . .                                       ",
"                                                      . . . . . v w.w.. . . . .                   . . . . . w.w.v . . . . .                                       ",
"                                                      . . . . . f v v > > - . . .                 . . . . . v v g > < + . .                                       ",
"                                                      . . . . . . . . w.w.v . . . . .             . . . . . . . > w.w.> . . . . .                                 ",
"                                                      . . . . . . . . w.w.v . . . . .             . . . . . . . > w.w.> . . . . .                                 ",
"                                                      . . . . . . . . < < - . . . . .             . . . . . . . + < > + . . . . o                                 ",
"                                                      . . . . . . . . . . . . . . . .             . . . . . . . . . . . . . . . .                                 ",
"                                                      . . . . . o . . . . . . . . . .             . . . . . . . . . . . . . o . .                                 "
};
