/* XPM */
static char *result[] = {
/* columns rows colors chars-per-pixel */
"68 68 2 1 ",
"  c #48F7A0",
". c None",
/* pixels */
"                                                                    ",
"........ ...........................................................",
"........ ...........................................................",
"........ ...........................................................",
"........ .......................             .......................",
"........ ........................... ...............................",
"........ ........................... ...............................",
"........ ........................... .............................. ",
".................................... .........                      ",
".................................... ...............................",
".................................... ...............................",
"                                               .................... ",
"..................................................                  ",
"....................................................................",
"....................................................................",
" ...................................................................",
"                            ........................................",
"........................... ........................................",
"........................... .........                 ............. ",
"........  ................. ............... ......................  ",
"........  ................. ............... ........................",
"          ................. ............... ........................",
"........  ................. ............... ........................",
"........  ................. ............... ......... ............. ",
"........  ................................. ......... ......        ",
" .......  ................................. ......... ..............",
" ...                                 ...... ......... ..............",
"..................................................... ..............",
"..................................................... ..............",
"..................................................... ..............",
"                                                                    ",
"........... ....................................................... ",
"........... ........................................................",
" .......... ....... ................................................",
"       .... ....... ...............                                 ",
"................... ............................................... ",
"................... ................................................",
"                          ..... ....................................",
"............................... ....................................",
"............................... ............................        ",
"............................... ....................................",
"............................... ....................................",
"                           .... ....................................",
" ...............................                      ..............",
"....................................................................",
"....................................................................",
"                  ..................................................",
"                                                                    ",
"................ ...................................................",
"................ ...................................................",
"................ ...................................................",
"................ ...................................................",
"................ ...................................................",
"................ ...................................................",
"................ .................................................. ",
"................ .............                                      ",
" ...............  ..................... ............. ..............",
" .........                ............. ............. ..............",
"....................................... ............. ..............",
"....................................... ............. ..............",
"....................................... ............................",
".......................................        .....................",
"....................................... ............................",
"                    ................... ............................",
"................... .........                                       ",
"................... ................................................",
"....................................................................",
"                                                                    "
};
