/* XPM */
static char *result[] = {
/* columns rows colors chars-per-pixel */
"68 68 199 2 ",
"   c #25180D",
".  c #35251B",
"X  c #3B2B17",
"o  c #3F0131",
"O  c #422D1E",
"+  c #4C341A",
"@  c #583F1E",
"#  c #47043C",
"$  c #5A023F",
"%  c #4C3422",
"&  c #423421",
"*  c #533C25",
"=  c #573D2A",
"-  c #49363A",
";  c #4F401E",
":  c #5D4319",
">  c #634C1C",
",  c #594421",
"<  c #5A452A",
"1  c #5A4C23",
"2  c #61492A",
"3  c #644A26",
"4  c #6D5625",
"5  c #6B542B",
"6  c #6B582B",
"7  c #695526",
"8  c #725623",
"9  c #765C2D",
"0  c #725924",
"q  c #695531",
"w  c #755C31",
"e  c #7B642D",
"r  c #7D6828",
"t  c #7B6330",
"y  c #490941",
"u  c #540442",
"i  c #5B0444",
"p  c #5C0944",
"a  c #5B064A",
"s  c #5C094D",
"d  c #530B46",
"f  c #630544",
"g  c #630649",
"h  c #6A064C",
"j  c #620B4B",
"k  c #6C0A4D",
"l  c #690846",
"z  c #74064B",
"x  c #720A4E",
"c  c #79094E",
"v  c #790748",
"b  c #6B0B51",
"n  c #670C50",
"m  c #750752",
"M  c #730B51",
"N  c #7C0A52",
"B  c #7B0A54",
"V  c #7F1053",
"C  c #4C3B4B",
"Z  c #57424A",
"A  c #665050",
"S  c #8D6C1C",
"D  c #82672B",
"F  c #846B2A",
"G  c #8B6E29",
"H  c #816327",
"J  c #8B7124",
"K  c #8B7329",
"L  c #877327",
"P  c #977C2C",
"I  c #997E23",
"U  c #846C33",
"Y  c #8D7533",
"T  c #8A7339",
"R  c #957B34",
"E  c #9D7D30",
"W  c #850B4F",
"Q  c #8B0555",
"!  c #840B54",
"~  c #8D0B55",
"^  c #840D59",
"/  c #8C0D5A",
"(  c #930A55",
")  c #930758",
"_  c #940C5A",
"`  c #9D0C5C",
"'  c #990957",
"]  c #841055",
"[  c #881359",
"{  c #95115B",
"}  c #9C115D",
"|  c #A30B5C",
" . c #AB0C5D",
".. c #B60C5D",
"X. c #B3075F",
"o. c #A4115E",
"O. c #B8125F",
"+. c #9C0F60",
"@. c #A40E62",
"#. c #AD0D63",
"$. c #B40E63",
"%. c #BC0D63",
"&. c #BA0D68",
"*. c #A01360",
"=. c #B31264",
"-. c #BC1164",
";. c #BB146A",
":. c #B11668",
">. c #C50D65",
",. c #CB0D65",
"<. c #C40E69",
"1. c #CC0D6A",
"2. c #D40C66",
"3. c #D30D6B",
"4. c #DC0D6B",
"5. c #C31365",
"6. c #C41169",
"7. c #CD116B",
"8. c #CC1267",
"9. c #D4116B",
"0. c #DC116E",
"q. c #D11066",
"w. c #D60F72",
"e. c #DB0E71",
"r. c #DE1171",
"t. c #E30C6D",
"y. c #EC0B6C",
"u. c #EC0867",
"i. c #E3116E",
"p. c #E40C71",
"a. c #EB0B71",
"s. c #F00A75",
"d. c #E01173",
"f. c #8C7447",
"g. c #836853",
"h. c #9D842B",
"j. c #9B8237",
"k. c #A58D2B",
"l. c #A9872F",
"z. c #AE912C",
"x. c #AC9524",
"c. c #B2992C",
"v. c #B99E29",
"b. c #A48634",
"n. c #B28E31",
"m. c #B28E3A",
"M. c #AD9337",
"N. c #B29433",
"B. c #BC9C34",
"V. c #BDA133",
"C. c #BAA137",
"Z. c #CCAD2D",
"A. c #C6A429",
"S. c #D3B32E",
"D. c #DBBA2A",
"F. c #DAB925",
"G. c #C0A332",
"H. c #CFAD33",
"J. c #C4A33A",
"K. c #CEAB3D",
"L. c #CCA43B",
"P. c #D1AE3E",
"I. c #D6B433",
"U. c #D7B936",
"Y. c #DCBB33",
"T. c #DCBC3C",
"R. c #D8B733",
"E. c #FCCF06",
"W. c #FCCE0A",
"Q. c #FCD005",
"!. c #FBD10A",
"~. c #F7D10E",
"^. c #EECB1F",
"/. c #EDC71F",
"(. c #F6CE17",
"). c #FBCE13",
"_. c #F5CD1C",
"`. c #F9CE1C",
"'. c #EDD11A",
"]. c #F5D213",
"[. c #FAD114",
"{. c #F5D11B",
"}. c #FAD11B",
"|. c #D6C022",
" X c #ECC626",
".X c #E6C32D",
"XX c #EBC52B",
"oX c #E8C527",
"OX c #F3CD24",
"+X c #F1CB2A",
"@X c #EED020",
"#X c #F3D026",
"$X c #E4C232",
"%X c #E9C735",
"&X c #AC9D4D",
"*X c #BA9D4D",
"=X c #A5865C",
"-X c #BAA845",
";X c None",
/* pixels */
";X;X;X;X;X;X;X;X;X;X;X;X;X;X;X;X;X;X;X;X;X;X;X;X;X;X;X;X;X;X;X;X;X;X;X;X;X;X;X;X;X;X;X;X;X;X;X;X;X;X;X;X;X;X;X;X;X;X;X;X;X;X;X;X;X;X;X;X",
";X;X;X;X;X;X;X;X;X;X;X;X;X;X;X;X;X;X;X;X;X;X;X;X;X;X;X;X;X;X;X;X;X;X;X;X;X;X;X;X;X;X;X;X;X;X;X;X;X;X;X;X;X;X;X;X;X;X;X;X;X;X;X;X;X;X;X;X",
";X;X;X;X;X;X;X;X;X;X;X;X;X;X;X;X;X;X;X;X;X;X;X;X;X;X;X;X;X;X;X;X;X;X;X;X;X;X;X;X;X;X;X;X;X;X;X;X;X;X;X;X;X;X;X;X;X;X;X;X;X;X;X;X;X;X;X;X",
";X;X;X;X;X;X;X;X;X;X;X;X;X;X;X;X;X;X;X;X;X;X;X;X;X;X;X;X;X;X;X;X;X;X;X;X;X;X;X;X;X;X;X;X;X;X;X;X;X;X;X;X;X;X;X;X;X;X;X;X;X;X;X;X;X;X;X;X",
";X;X;X;X;X;X;X;X;X;X;X;X;X;X;X;X;X;X;X;X;X;X;X;X;X;X;X;X;X;Xa j j j j s ;X;X;X;X;X;X;X;X;X;X;X;X;X;X;X;X;X;X;X;X;X;X;X;X;X;X;X;X;X;X;X;X",
";X;X;X;X;X;X;X;X;X;X;X;X;X;X;X;X;X;X;X;X;X;X;X;X;X;X# x ] o.=.6.5.5.5.;.:.} ] k i ;X;X;X;X;X;X;X;X;X;X;X;X;X;X;X;X;X;X;X;X;X;X;X;X;X;X;X",
";X;X;X;X;X;X;X;X;X;X;X;X;X;X;X;X;X;X;X;X;X;X;X;XV =.9.e.0.4.4.1.,.>.>.1.3.0.t.t.4.=.] g ;X;X;X;X;X;X;X;X;X;X;X;X;X;X;X;X;X;X;X;X;X;X;X;X",
";X;X;X;X;X;X;X;X;X;X;X;X;X;X;X;X;X;X;X;X;Xp | 3.t.i.,.$.{ M a ;X;X;X;X;Xp k [  .,.i.d.3.o.k ;X;X;X;X;X;X;X;X;X;X;X;X;X;X;X;X;X;X;X;X;X;X",
";X;X;X;X;X;X;X;X;X;X;X;X;X;X;X;X;X;X;Xn ` 8.t.9.+.M a ;X;X;X;X;X;X;X;X;X;X;X;X;Xp k { q.i.3. .n ;X;X;X;X;X;X;X;X;X;X;X;X;X;X;X;X;X;X;X;X",
";X;X;X;X;X;X;X;X;X;X;X;X;X;X;X;X;X;X! 7.p.6.] i ;X;X;X;X;X;X;X;X;X;X;X;X;X;X;X;X;X;X;Xi ^ ;.p.0._ ;X;X;X;X;X;X;X;X;X;X;X;X;X;X;X;X;X;X;X",
";X;X;X;X;X;X;X;X;X;X;X;X;X;X;X;Xg +.9.t.@.h ;X;X;X;X;X;X;X;X;X;X;X;X;X;X;X;X;X;X;X;X;X;X;Xb ` 4.t.@.j ;X;X;X;X;X;X;X;X;X;X;X;X;X;X;X;X;X",
";X;X;X;X;X;X;X;X;X;X;X;X;X;X;Xb -.a.-.m ;X;X;X;X;X;X;X;X;X;X;X;X;Xg.;X;X;X;X;X;X;X;X;X;X;X;X;Xx =.a.;.k ;X;X;X;X;X;X;X;X;X;X;X;X;X;X;X;X",
";X;X;X;X;X;X;X;X;X;X;X;X;X;Xb 1.a. .a ;X;X;X;X;X;X;X;X;X;X;X;X;X> %XF ;X;X;X;X;X;X;X;X;X;X;X;X;X;X .p.3.B ;X;X;X;X;X;X;X;X;X;X;X;X;X;X;X",
";X;X;X;X;X;X;X;X;X;X;X;X;Xk 6.t._ ;X;X;X;X;X;X;X;X;X;X;X;X;X;X;XV.].T.* ;X;X;X;X;X;X;X;X;X;X;X;X;X;X/ w.4.c ;X;X;X;X;X;X;X;X;X;X;X;X;X;X",
";X;X;X;X;X;X;X;X;X;X;X;Xk 1.4.{ ;X;X;X;X;X;X;X;X;X;X;X;X;X;X;XD ].!.}.j.;X;X;X;X;X;X;X;X;X;X;X;X;X;X;X] t.4.x ;X;X;X;X;X;X;X;X;X;X;X;X;X",
";X;X;X;X;X;X;X;X;X;X;X;X>.y.` ;X;X;X;X;X;X;X;X;X;X;X;X;X;X;XO I.!.Q.Q.XX6 ;X;X;X;X;X;X;X;X;X;X;X;X;X;X;X! w.1.k ;X;X;X;X;X;X;X;X;X;X;X;X",
";X;X;X;X;X;X;X;X;X;X;X` t.@.;X;X;X;X;X;X;X;X;X;X;X;X;X;X;X;XK `.Q.Q.Q.W.C.;X;X;X;X;X;X;X;X;X;X;X;X;X;X;X;X_ a.#.;X;X;X;X;X;X;X;X;X;X;X;X",
";X;X;X;X;X;X;X;X;X;X! a.&.p ;X;X;X;X;X;X;X;X;X;X;X;X;X;X;X6 |.W.Q.E.W.E._.0 ;X;X;X;X;X;X;X;X;X;X;X;X;X;X;X;X%.t.@.;X;X;X;X;X;X;X;X;X;X;X",
";X;X;X;X;X;X;X;X;Xg 3.4.z ;X;X;X;X;X;X;X;X;X;X;X;X;X;X;X;XM.].Q.Q.E.Q.E.!.H.; ;X;X;X;X;X;X;X;X;X;X;X;X;X;X;Xl <.9.^ ;X;X;X;X;X;X;X;X;X;X",
";X;X;X;X;X;X;X;X;X_ t.| ;X;X;X;X;X;X;X;X;X;X;X;X;X;X;X;X9 XXQ.!.W.E.E.E.Q.{.Y ;X;X;X;X;X;X;X;X;X;X;X;X;X;X;X;X_ y.#.;X;X;X;X;X;X;X;X;X;X",
";X;X;X;X;X;X;X;Xl q.6.l ;X;X;X;X;X;X;X;X;X;X;X;X;X;X;XX B.[.Q.W.E.E.E.E.Q.Q.U.: ;X;X;X;X;X;X;X;X;X;X;X;X;X;X;Xf %.t.m ;X;X;X;X;X;X;X;X;X",
";X;X;X;X;X;X;X;X| u./ ;X;X;X;X;X;X;X;X;X;X;X;X;X;X;X;XU OXE.Q.E.E.E.E.E.Q.Q.}.h.;X;X;X;X;X;X;X;X;X;X;X;X;X;X;X;X^ t.#.;X;X;X;X;X;X;X;X;X",
";X;X;X;X;X;X;Xk t.>.u ;X;X;X;X;X;X;X;X;X;X;X;X;X;X;X< R.W.W.W.Q.Q.E.E.W.E.E.[.+X9 ;X;X;X;X;X;X;X;X;X;X;X;X;X;X;X;X%.4.M ;X;X;X;X;X;X;X;X",
";X;X;X;X;X;X;X~ y.{ ;X;X;X;X;X;X;X;X;X;X;X;X;X;X;X;XP ].E.Q.W.Q.W.W.Q.W.E.Q.E.[.C.;X;X;X;X;X;X;X;X;X;X;X;X;X;X;X;X^ y.@.;X;X;X;X;X;X;X;X",
";X;X;X;X;X;X;X%.t.l ;X;X;X;X;X;X;X;X;X;X;X;X;X;X;X3 $XE.E.!.Q.W.E.Q.E.W.Q.E.E.W.#Xe ;X;X;X;X;X;X;X;X;X;X;X;X;X;X;X$ 4.,.;X;X;X;X;X;X;X;X",
";X;X;X;X;X;Xl 9...;X;X;X;X;X;X;X;X;X;X;X;X;X;X;X;Xc.).E.E.!.E.E.E.W.Q.W.Q.!.E.W.!.Z.X ;X;X;X;X;X;X;X;X;X;X;X;X;X;X;X .t.m ;X;X;X;X;X;X;X",
";X;X;X;X;X;XW u.' ;X;X;X;X;X;X;X;X;X;X;X;X;X;X;XD /.W.E.E.E.Q.E.Q.Q.E.E.E.!.E.!.Q.].K ;X;X;X;X;X;X;X;X;X;X;X;X;X;X;XN a.| ;X;X;X;X;X;X;X",
";X;X;X;X;X;X_ 4.c ;X;X;X;X;X;X;X;X;X;X;X;X;X;XX Z.).Q.E.E.E.W.E.E.W.W.Q.E.E.!.Q.Q.E.Y.3 ;X;X;X;X;X;X;X;X;X;X;X;X;X;Xl e.%.;X;X;X;X;X;X;X",
";X;X;X;X;X;X$.,.u ;X;X;X;X;X;X;X;X;X;X;X;X;X;XJ (.W.Q.Q.E.E.!.E.Q.W.W.Q.E.Q.E.Q.E.W.).n.;X;X;X;X;X;X;X;X;X;X;X;X;X;X;X<.3.p ;X;X;X;X;X;X",
";X;X;X;X;Xz 2.X.;X;X;X;X;X;X;X;X;X;X;X;X;X;X@ D.W.!.!.Q.E.E.!.E.E.E.Q.W.!.Q.Q.Q.W.E.W. X8 ;X;X;X;X;X;X;X;X;X;X;X;X;X;X#.p.g ;X;X;X;X;X;X",
";X;X;X;X;X! u. .;X;X;X;X;X;X;X;X;X;X;X;X;X;Xl.).W.!.Q.!.E.E.Q.E.W.Q.E.Q.E.!.!.Q.E.E.!.~.v.;X;X;X;X;X;X;X;X;X;X;X;X;X;X` t.M ;X;X;X;X;X;X",
";X;X;X;X;X~ y.` ;X;X;X;X;X;X;X;X;X;X;X;X;Xw .XW.E.W.Q.Q.E.E.Q.Q.E.E.E.E.Q.E.E.Q.Q.W.W.W.OXY ;X;X;X;X;X;X;X;X;X;X;X;X;X! p.^ ;X;X;X;X;X;X",
";X;X;X;X;X' y.( ;X;X;X;X;X;X;X;X;X;X;X;X;Xv.[.Q.E.E.Q.Q.E.E.Q.Q.W.Q.E.Q.Q.E.E.E.Q.W.E.E.~.Z.+ ;X;X;X;X;X;X;X;X;X;X;X;Xm t./ ;X;X;X;X;X;X",
";X;X;X;X;X' y.[ ;X;X;X;X;X;X;X;X;X;X;X;XT '.Q.!.Q.Q.E.E.E.E.Q.W.W.E.W.Q.Q.W.E.E.Q.Q.E.E.E.(.j.;X;X;X;X;X;X;X;X;X;X;X;Xx p./ ;X;X;X;X;X;X",
";X;X;X;X;X( y.( ;X;X;X;X;X;X;X;X;X;X;X;X&X@X!.~.Q.Q.E.E.E.E.Q.E.Q.Q.E.Q.Q.W.W.Q.Q.E.W.W.W._.*X;X;X;X;X;X;X;X;X;X;X;X;Xb 4._ ;X;X;X;X;X;X",
";X;X;X;X;X) u.~ ;X;X;X;X;X;X;X;X;X;X;X;X< P $X~.W.E.Q.Q.E.Q.!.E.E.W.W.Q.Q.Q.Q.Q.Q.E.Q.]..XP = ;X;X;X;X;X;X;X;X;X;X;X;XB p./ ;X;X;X;X;X;X",
";X;X;X;X;X) y.' ;X;X;X;X;X;X;X;X;X;X;X;X;X;X3 c.XXW.W.W.E.W.Q.Q.E.Q.E.Q.Q.W.W.W.W.Q.#XJ.>   ;X;X;X;X;X;X;X;X;X;X;X;X;X! p./ ;X;X;X;X;X;X",
";X;X;X;X;X! t. .;X;X;X;X;X;X;X;X;X;X;X;XC ;X;X;Xe H.(.E.E.E.Q.Q.W.W.Q.Q.!.E.Q.Q.).S.F ;X;X;X- ;X;X;X;X;X;X;X;X;X;X;X;X) 4.! ;X;X;X;X;X;X",
";X;X;X;X;Xc 3.X.;X;X;X;X;X;X;X;X;X;X;X;XA =X3 ;X;X;Xk.$X{.W.W.E.Q.!.W.E.W.Q.~.XXN., ;X;X;Xf.g.;X;X;X;X;X;X;X;X;X;X;X;X` 4.M ;X;X;X;X;X;X",
";X;X;X;X;Xj 5.>.;X;X;X;X;X;X;X;X;X;X;X;X;XT T.R @ ;X;Xw V. X!.E.!.W.!.E.W.(.Z.t ;X;X;Xq K.-X;X;X;X;X;X;X;X;X;X;X;X;X;X$.0.g ;X;X;X;X;X;X",
";X;X;X;X;X;X*.3.j ;X;X;X;X;X;X;X;X;X;X;X;X. C.#XZ.f.;X;X. K F.(.!.W.W.).oXh.;X;X;X8 m.XX$Xq ;X;X;X;X;X;X;X;X;X;X;X;Xf 9.>.;X;X;X;X;X;X;X",
";X;X;X;X;X;X~ t.^ ;X;X;X;X;X;X;X;X;X;X;X;X;X6 |.).oXx.1 ;X;X5 M.XX[.+XG.8 ;X;X;XK F.}.@XK ;X;X;X;X;X;X;X;X;X;X;X;X;Xx t. .;X;X;X;X;X;X;X",
";X;X;X;X;X;Xx 4. .;X;X;X;X;X;X;X;X;X;X;X;X;X;XL OXW.[.D.R ;X;X;X0 *XU ;X;X;XH Z.OX!.~.V.. ;X;X;X;X;X;X;X;X;X;X;X;X;X( t./ ;X;X;X;X;X;X;X",
";X;X;X;X;X;X;X>.4.a ;X;X;X;X;X;X;X;X;X;X;X;X;X;XV.).Q.!.OXA.8 ;X;X;X;X;X: n.XX!.!.~.Y.2 ;X;X;X;X;X;X;X;X;X;X;X;X;X;X,.4.i ;X;X;X;X;X;X;X",
";X;X;X;X;X;X;X} t.! ;X;X;X;X;X;X;X;X;X;X;X;X;X;X5 F.Q.Q.!.W.%Xb.;X;X;XK Y.`.W.Q.W.OXY ;X;X;X;X;X;X;X;X;X;X;X;X;X;Xh t.-.;X;X;X;X;X;X;X;X",
";X;X;X;X;X;X;Xc t.$.;X;X;X;X;X;X;X;X;X;X;X;X;X;X;XF OXQ.!.W.W.{.P.S J.+X~.Q.Q.Q.}.z.;X;X;X;X;X;X;X;X;X;X;X;X;X;X;X*.t.! ;X;X;X;X;X;X;X;X",
";X;X;X;X;X;X;Xu ..t.M ;X;X;X;X;X;X;X;X;X;X;X;X;X;X;XN.].W.W.Q.W.W.!.~.!.E.E.E.Q.R.+ ;X;X;X;X;X;X;X;X;X;X;X;X;X;Xb 4.1.i ;X;X;X;X;X;X;X;X",
";X;X;X;X;X;X;X;Xv 0.=.;X;X;X;X;X;X;X;X;X;X;X;X;X;X;X< I.!.W.E.E.W.W.W.!.W.Q.Q. Xr ;X;X;X;X;X;X;X;X;X;X;X;X;X;X;X` t./ ;X;X;X;X;X;X;X;X;X",
";X;X;X;X;X;X;X;Xo -.t.! ;X;X;X;X;X;X;X;X;X;X;X;X;X;X;XU  XE.E.E.Q.E.E.E.Q.Q.}.l.;X;X;X;X;X;X;X;X;X;X;X;X;X;X;Xm 4.<.a ;X;X;X;X;X;X;X;X;X",
";X;X;X;X;X;X;X;X;Xx 4.>.l ;X;X;X;X;X;X;X;X;X;X;X;X;X;X. k.[.E.E.Q.E.E.!.Q.!.Z.3 ;X;X;X;X;X;X;X;X;X;X;X;X;X;X;X$.t.! ;X;X;X;X;X;X;X;X;X;X",
";X;X;X;X;X;X;X;X;X;X` t.| ;X;X;X;X;X;X;X;X;X;X;X;X;X;X;Xq D.!.Q.Q.!.W.Q.!. XD ;X;X;X;X;X;X;X;X;X;X;X;X;X;X;X' 4.=.;X;X;X;X;X;X;X;X;X;X;X",
";X;X;X;X;X;X;X;X;X;Xj >.4.N ;X;X;X;X;X;X;X;X;X;X;X;X;X;X;XF @X!.!.Q.W.W.}.I ;X;X;X;X;X;X;X;X;X;X;X;X;X;X;Xx t.3.k ;X;X;X;X;X;X;X;X;X;X;X",
";X;X;X;X;X;X;X;X;X;X;XM 9.4.x ;X;X;X;X;X;X;X;X;X;X;X;X;X;X;Xl.[.!.W.E.W.P.;X;X;X;X;X;X;X;X;X;X;X;X;X;X;Xp 5.d.^ ;X;X;X;X;X;X;X;X;X;X;X;X",
";X;X;X;X;X;X;X;X;X;X;X;X! u.,.x ;X;X;X;X;X;X;X;X;X;X;X;X;X;X& R.~.E.E. X4 ;X;X;X;X;X;X;X;X;X;X;X;X;X;Xp O.t._ ;X;X;X;X;X;X;X;X;X;X;X;X;X",
";X;X;X;X;X;X;X;X;X;X;X;X;X/ 9.3.M ;X;X;X;X;X;X;X;X;X;X;X;X;X;XU _.E._.E ;X;X;X;X;X;X;X;X;X;X;X;X;X;Xf =.s. .;X;X;X;X;X;X;X;X;X;X;X;X;X;X",
";X;X;X;X;X;X;X;X;X;X;X;X;X;X/ a.4.m ;X;X;X;X;X;X;X;X;X;X;X;X;X;Xz.}.L.% ;X;X;X;X;X;X;X;X;X;X;X;X;Xv 2.p.#.u ;X;X;X;X;X;X;X;X;X;X;X;X;X;X",
";X;X;X;X;X;X;X;X;X;X;X;X;X;X;X/ e.e./ ;X;X;X;X;X;X;X;X;X;X;X;X;X, -X2 ;X;X;X;X;X;X;X;X;X;X;X;X;X^ 3.t.+.;X;X;X;X;X;X;X;X;X;X;X;X;X;X;X;X",
";X;X;X;X;X;X;X;X;X;X;X;X;X;X;X;XB w.d.%.f ;X;X;X;X;X;X;X;X;X;X;X;XZ ;X;X;X;X;X;X;X;X;X;X;X;Xl @.4.4./ ;X;X;X;X;X;X;X;X;X;X;X;X;X;X;X;X;X",
";X;X;X;X;X;X;X;X;X;X;X;X;X;X;X;X;Xj $.t.4.} n ;X;X;X;X;X;X;X;X;X;X;X;X;X;X;X;X;X;X;X;X;Xd / 9.a.,.z ;X;X;X;X;X;X;X;X;X;X;X;X;X;X;X;X;X;X",
";X;X;X;X;X;X;X;X;X;X;X;X;X;X;X;X;X;X;X^ 7.i.3.` h ;X;X;X;X;X;X;X;X;X;X;X;X;X;X;X;X;Xf _ 5.y.4.{ p ;X;X;X;X;X;X;X;X;X;X;X;X;X;X;X;X;X;X;X",
";X;X;X;X;X;X;X;X;X;X;X;X;X;X;X;X;X;X;X;Xf _ q.d.r.;._ z s ;X;X;X;X;X;X;X;X;Xs m _ =.9.t.0.+.h ;X;X;X;X;X;X;X;X;X;X;X;X;X;X;X;X;X;X;X;X;X",
";X;X;X;X;X;X;X;X;X;X;X;X;X;X;X;X;X;X;X;X;X;Xl Q =.w.p.p.w.;.| Q Q Q Q Q +.&.<.r.r.9.:.) l ;X;X;X;X;X;X;X;X;X;X;X;X;X;X;X;X;X;X;X;X;X;X;X",
";X;X;X;X;X;X;X;X;X;X;X;X;X;X;X;X;X;X;X;X;X;X;X;Xy l ~ #.&.9.e.t.i.i.d.d.0.9.6.#._ m d ;X;X;X;X;X;X;X;X;X;X;X;X;X;X;X;X;X;X;X;X;X;X;X;X;X",
";X;X;X;X;X;X;X;X;X;X;X;X;X;X;X;X;X;X;X;X;X;X;X;X;X;X;X;Xy f x ! ! N N N x g u # ;X;X;X;X;X;X;X;X;X;X;X;X;X;X;X;X;X;X;X;X;X;X;X;X;X;X;X;X",
";X;X;X;X;X;X;X;X;X;X;X;X;X;X;X;X;X;X;X;X;X;X;X;X;X;X;X;X;X;X;X;X;X;X;X;X;X;X;X;X;X;X;X;X;X;X;X;X;X;X;X;X;X;X;X;X;X;X;X;X;X;X;X;X;X;X;X;X",
";X;X;X;X;X;X;X;X;X;X;X;X;X;X;X;X;X;X;X;X;X;X;X;X;X;X;X;X;X;X;X;X;X;X;X;X;X;X;X;X;X;X;X;X;X;X;X;X;X;X;X;X;X;X;X;X;X;X;X;X;X;X;X;X;X;X;X;X",
";X;X;X;X;X;X;X;X;X;X;X;X;X;X;X;X;X;X;X;X;X;X;X;X;X;X;X;X;X;X;X;X;X;X;X;X;X;X;X;X;X;X;X;X;X;X;X;X;X;X;X;X;X;X;X;X;X;X;X;X;X;X;X;X;X;X;X;X",
";X;X;X;X;X;X;X;X;X;X;X;X;X;X;X;X;X;X;X;X;X;X;X;X;X;X;X;X;X;X;X;X;X;X;X;X;X;X;X;X;X;X;X;X;X;X;X;X;X;X;X;X;X;X;X;X;X;X;X;X;X;X;X;X;X;X;X;X"
};
