/* XPM */
static char *result[] = {
/* columns rows colors chars-per-pixel */
"68 68 185 2 ",
"   c #131D0E",
".  c #1B1E1A",
"X  c #131C15",
"o  c #14230E",
"O  c #162C0D",
"+  c #192D0D",
"@  c #17340C",
"#  c #19340D",
"$  c #173B0B",
"%  c #193C0C",
"&  c #143C06",
"*  c #162410",
"=  c #1A2613",
"-  c #162B13",
";  c #192D12",
":  c #1E211B",
">  c #1E2B1A",
",  c #1B3312",
"<  c #1C3B11",
"1  c #1B311A",
"2  c #21261D",
"3  c #222D1E",
"4  c #202A16",
"5  c #253C1D",
"6  c #24341D",
"7  c #172626",
"8  c #1C3925",
"9  c #1E2E33",
"0  c #1E3A3B",
"q  c #242622",
"w  c #252A23",
"e  c #282B27",
"r  c #2B2B2A",
"t  c #273123",
"y  c #293624",
"u  c #2C3D26",
"i  c #2D342A",
"p  c #273820",
"a  c #323B2D",
"s  c #343533",
"d  c #363A34",
"f  c #3B3C3B",
"g  c #383E35",
"h  c #1B440B",
"j  c #1C4C0B",
"k  c #1D5C06",
"l  c #1D540A",
"z  c #1E5B09",
"x  c #1E4511",
"c  c #1E4B12",
"v  c #1F5110",
"b  c #21450C",
"n  c #244D0B",
"m  c #23550D",
"M  c #285B0A",
"N  c #20590B",
"B  c #214314",
"V  c #214B12",
"C  c #26411C",
"Z  c #29471E",
"A  c #225411",
"S  c #245B11",
"D  c #1E6307",
"F  c #1F6B07",
"G  c #1E6209",
"H  c #1F6908",
"J  c #216E07",
"K  c #206409",
"L  c #226C08",
"P  c #2C6C08",
"I  c #2A6609",
"U  c #227407",
"Y  c #247B06",
"T  c #237208",
"R  c #247908",
"E  c #307308",
"W  c #266411",
"Q  c #286613",
"!  c #266811",
"~  c #296B12",
"^  c #2B7312",
"/  c #2D7B13",
"(  c #2B4323",
")  c #2E4C23",
"_  c #2E4029",
"`  c #34452E",
"'  c #345329",
"]  c #354231",
"[  c #3C423A",
"{  c #233E42",
"}  c #3F4040",
"|  c #284C51",
" . c #274D52",
".. c #2B5156",
"X. c #2E575C",
"o. c #25484C",
"O. c #2D5A61",
"+. c #32646B",
"@. c #326067",
"#. c #366A72",
"$. c #39747D",
"%. c #424242",
"&. c #4D4D4D",
"*. c #258306",
"=. c #278A05",
"-. c #288C06",
";. c #368C06",
":. c #299405",
">. c #2A9B04",
",. c #3A9806",
"<. c #2E8313",
"1. c #2F8913",
"2. c #308514",
"3. c #318C13",
"4. c #349514",
"5. c #359A14",
"6. c #2CA404",
"7. c #2DAC03",
"8. c #3FAD04",
"9. c #3DA106",
"0. c #2FB302",
"q. c #2FBA02",
"w. c #30B503",
"e. c #31BB02",
"r. c #37A314",
"t. c #38A715",
"y. c #39AB14",
"u. c #3CB315",
"i. c #3DBB15",
"p. c #40BB17",
"a. c #32C402",
"s. c #34CB01",
"d. c #36D400",
"f. c #38D600",
"g. c #37DA00",
"h. c #39DB00",
"j. c #3FC115",
"k. c #3FCD14",
"l. c #4BD003",
"z. c #41C416",
"x. c #42CB16",
"c. c #44D316",
"v. c #45DB16",
"b. c #47C404",
"n. c #4EE101",
"m. c #4FE900",
"M. c #51E303",
"N. c #53ED02",
"B. c #55F302",
"V. c #47E317",
"C. c #48E517",
"Z. c #4AEC17",
"A. c #4BEC18",
"S. c #49E717",
"D. c #3F7F8A",
"F. c #3D7C86",
"G. c #41838E",
"H. c #448A95",
"J. c #458E98",
"K. c #47939D",
"L. c #4996A1",
"P. c #4B9BA7",
"I. c #4FA1AD",
"U. c #53A9B7",
"Y. c #58B3C0",
"T. c #5FC5D2",
"R. c #63CDDD",
"E. c #69D9E9",
"W. c #66D4E4",
"Q. c #6EE4F5",
"!. c #6FE8F8",
"~. c #71EBFD",
"^. c #7DECFB",
"/. c #8AEFFC",
"(. c #85EEFB",
"). c #92EFFB",
"_. c #9CF1FB",
"`. c #A4F2FC",
"'. c #A9F3FB",
"]. c #B9F4FB",
"[. c #C9F7FB",
"{. c #D7F8FC",
"}. c #EAFBFC",
"|. c #F0FCFC",
" X c None",
/* pixels */
" X X X X X X X X X X X X X X X X X X X X X X X X X X X X Xd e e w u t r q e s  X X X X X X X X X X X X X X X X X X X X X X X X X X X X X",
" X X X X X X X X X X X X X X X X X X X X X X X X X} q 4 V 3.u.<.b n.9.! z.t.4.^ V > i  X X X X X X X X X X X X X X X X X X X X X X X X X",
" X X X X X X X X X X X X X X X X X X X X X Xs 3 V 4.c.Z.Z.Z.Z.z.% N.8.^ Z.Z.A.A.Z.C.z.W w d  X X X X X X X X X X X X X X X X X X X X X X",
" X X X X X X X X X X X X X X X X X X X Xs . ^ x.A.Z.A.Z.Z.Z.Z.c.# M.8./ Z.Z.Z.Z.Z.Z.S.Z.c.~ :  X X X X X X X X X X X X X X X X X X X X X",
" X X X X X X X X X X X X X X X X X X X4 ,.m Q A.Z.Z.Z.Z.Z.Z.Z.c.O n.,./ Z.Z.Z.Z.S.Z.Z.Z.A.c.; M e  X X X X X X X X X X X X X X X X X X X",
" X X X X X X X X X X X X X X X X X%.> E B.l.% <.Z.Z.Z.Z.Z.Z.S.v.O n.;.^ Z.Z.Z.Z.A.A.Z.Z.Z.~ I B.I .  X X X X X X X X X X X X X X X X X X",
" X X X X X X X X X X X X X X X Xr b v.4.n M.B.n 2.A.A.Z.C.k.t.~ o h # O $ V W 5.x.S.A.A.y.b M.M., A :  X X X X X X X X X X X X X X X X X",
" X X X X X X X X X X X X X X X X6 c.A.Z./ M B.l.# 3.u.~ , h k :.0.a.s.s.s.e.>.L % V r.z.+ b.B.M 2.A.Q s  X X X X X X X X X X X X X X X X",
" X X X X X X X X X X X X X X X: u.Z.Z.A.Z.~ n M.;.  K 6.d.h.h.h.h.h.h.h.h.h.h.h.h.w.K   P N.P Q S.A.V.=  X X X X X X X X X X X X X X X X",
" X X X X X X X X X X X X X Xs A Z.Z.A.Z.Z.A.Q ; j w.h.h.h.h.g.g.a.6.=.-.w.s.h.h.h.h.h.7.h b V V.Z.A.A.A %. X X X X X X X X X X X X X X X",
" X X X X X X X X X X X X X Xq u.Z.Z.Z.Z.Z.z., *.h.h.h.h.h.s.T @ h L :.-.N $ j >.d.h.h.g.d.L < x.Z.Z.A.t.e  X X X X X X X X X X X X X X X",
" X X X X X X X X X X X X X X6 c.Z.Z.Z.Z.x., :.g.h.h.h.h.6.# T a.h.h.h.h.h.s.6.n j a.h.h.h.h.=., c.Z.S.x.2  X X X X X X X X X X X X X X X",
" X X X X X X X X X X X X X X, p.i.i.j.u.* U 0.7.7.7.0.7.o U 6.>.>.>.:.:.:.:.:.=.% # L L L L L O V ^ / ~    X X X X X X X X X X X X X X X",
" X X X X X X X X X X X X Xr * V W S A A S S W ~ ! ! W W ! ^ / <./ 2.4.4.4.5.5.t.i.i.j.z.z.z.z.z.z.z.i.i.=  X X X X X X X X X X X X X X X",
" X X X X X X X X X X X X X3 p.S.Z.A.Z.Z.A.Z.Z.Z.Z.Z.Z.Z.A.Z.Z.Z.Z.Z.Z.Z.Z.Z.Z.A.Z.A.A.Z.A.A.A.Z.Z.A.A.v.O  X X X X X X X X X X X X X X X",
" X X X X X X X X X X X X X> z.S.A.V.Z.Z.Z.Z.Z.Z.Z.Z.Z.Z.Z.Z.Z.Z.Z.Z.Z.Z.Z.Z.Z.A.Z.S.Z.S.V.v.v.v.v.c.Z.v.;  X X X X X X X X X X X X X X X",
" X X X X X X X X X X X X Xi i.Z.t.* j A A j c h S m c l W A l c v x h h $ % % $ $ $ $ # @ % % % O , V.V.O  X X X X X X X X X X X X X X X",
" X X X X X X X X X X X X Xa u.A.4.h a.a.s.s.a.s.a.a.s.a.q.a.a.s.s.s.s.s.d.d.s.d.d.d.d.d.g.h.h.g.>.< S.V.,  X X X X X X X X X X X X X X X",
" X X X X X X X X X X X X Xy j.A.1.k g.h.h.h.h.h.h.h.h.h.h.h.h.h.g.g.h.h.g.g.h.h.h.h.h.h.h.h.h.g.6.< S.S.,  X X X X X X X X X X X X X X X",
" X X X X X X X X X X X X X6 z.A.<.D h.h.h.h.h.h.h.h.h.g.h.d.s.w.>.6.w.a.d.g.g.h.h.h.h.h.h.h.h.g.6.# S.S.,  X X X X X X X X X X X X X X X",
" X X X X X X X X X X X X Xy z.A.2.L h.h.h.h.h.h.h.h.0.Y V 8 0 | +.@...{ 8 G 6.d.h.h.h.h.h.h.h.h.6., S.S.@  X X X X X X X X X X X X X X X",
" X X X X X X X X X X X X X] z.Z.<.L h.h.h.h.h.h.>.& 0 H.R.Q.~.~.~.~.~.~.E.Y...< -.d.h.h.h.h.h.h.0.@ V.C.,  X X X X X X X X X X X X X X X",
" X X X X X X X X X X X X X] i.Z./ R h.h.h.h.s.z o.U.~.~.~.~.~.~.~.~.~.~.~.~.~.T.X.v a.h.h.h.h.h.7.< Z.Z.<  X X X X X X X X X X X X X X X",
" X X X X X X X X X X X X Xd u.A.<.U h.h.h.d.& $.Q.~.~.~.~.~.'.].~.~.^.{._.~.~.~.!.G.- w.h.h.h.g.a.O V.C.$  X X X X X X X X X X X X X X X",
" X X X X X X X X X X X X Xi u.A.<.U g.h.g.k X.!.~.~.~.~.~._.|.).~.~.[.{.^.~.~.~.~.~.I.1 6.g.h.g.q., C.C.,  X X X X X X X X X X X X X X X",
" X X X X X X X X X X X X Xg u.Z.<.U h.h.7.7 E.~.~.~.~.~./.|.`.~.~.'.}./.~.~.~.~.~.~.~.I.- s.h.g.q.; C.V.,  X X X X X X X X X X X X X X X",
" X X X X X X X X X X X X X[ p.Z./ *.h.h.h L.~.~.~.~.~.~.`.].~.~./.}.`.~.~.~.~.~.~.~.~.~.O.*.h.g.e., C.V.1  X X X X X X X X X X X X X X X",
" X X X X X X X X X X X X X] j.Z./ *.h.a.7 W.~.~.~.~.~.~.~.~.~.~.(.`.~.~.~.~.~.~.~.~.~.~.H.k h.h.a.O C.V.<  X X X X X X X X X X X X X X X",
" X X X X X X X X X X X X Xg i.Z./ Y h.0.9 Q.~.~.~.~.!.~.~.~.~.~.~.!.~.~.~.~.~.~.~.~.~.~.K.k g.h.0.< S.V.6  X X X X X X X X X X X X X X X",
" X X X X X X X X X X X X X2 y.Z.<.R h.s.X P.K.K.L.L.K.J.L.J.D.F.D.$.F.G.$.#.+.@. .o.|  .9 *.h.g.6.x S.V.1  X X X X X X X X X X X X X X X",
" X X X X X X X X X X X X Xw t.Z.1.U h.h.*.z F U J J U *.U *.=.-.=.:.:.=.:.>.6.7.e.a.w.0.w.h.h.h.0.< S.V.1  X X X X X X X X X X X X X X X",
" X X X X X X X X X X X X Xw y.Z.<.R h.h.g.g.g.g.g.g.g.g.g.g.g.g.h.g.g.h.h.g.h.h.h.h.h.h.h.h.h.g.0.h S.v.;  X X X X X X X X X X X X X X X",
" X X X X X X X X X X X X X2 p.A.3.L h.h.h.h.h.h.h.h.h.h.h.h.h.h.h.h.h.h.h.h.h.h.h.h.h.h.h.h.h.h.7.V A.v.;  X X X X X X X X X X X X X X X",
" X X X X X X X X X X X X X: t.C.4.R h.h.h.h.h.h.h.h.h.h.h.h.h.h.h.h.h.h.h.h.h.h.h.h.h.h.h.h.h.h.7.h A.v.,  X X X X X X X X X X X X X X X",
" X X X X X X X X X X X X Xs p.V.4.L h.h.h.h.h.h.h.h.h.h.h.h.h.h.h.h.h.h.h.h.h.h.h.h.h.h.h.h.h.h.>.S A.v.;  X X X X X X X X X X X X X X X",
" X X X X X X X X X X X X Xf 5.A.4.D h.h.h.h.h.h.h.h.h.h.h.h.h.h.h.h.h.h.h.h.h.h.h.h.h.h.h.h.h.h.>.v Z.v.;  X X X X X X X X X X X X X X X",
" X X X X X X X X X X X X X{ 5.A.4.  j a.h.h.h.h.h.h.h.h.h.h.h.h.h.h.h.h.h.h.h.h.h.h.h.h.h.h.h.g.:.S Z.v.1  X X X X X X X X X X X X X X X",
" X X X X X X X X X X X X X[ 5.A.5.j O 0.h.h.h.h.h.h.h.h.h.h.h.h.h.h.h.h.h.h.h.h.h.h.h.h.h.h.h.g.>.v Z.v.,  X X X X X X X X X X X X X X X",
" X X X X X X X X X X X X Xd 5.S.r.j O 7.h.h.h.h.h.h.h.h.h.h.h.h.h.h.h.h.h.h.h.h.h.h.h.h.h.h.h.h.0.x Z.c.1  X X X X X X X X X X X X X X X",
" X X X X X X X X X X X X Xs 5.A.r.o @ w.h.h.h.h.h.h.h.h.h.h.h.h.h.h.h.h.h.h.h.h.h.h.h.h.h.h.h.g.7.v A.k.B  X X X X X X X X X X X X X X X",
" X X X X X X X X X X X X Xe 3.A.t.l h.h.h.h.h.h.g.g.h.h.h.h.h.h.h.h.h.h.h.h.h.h.h.h.h.h.g.h.h.g.>.A Z.x.C  X X X X X X X X X X X X X X X",
" X X X X X X X X X X X X Xr <.A.r.j a.a.s.s.s.e.a.q.e.a.e.a.a.q.e.w.w.w.0.7.6.6.6.6.6.6.6.>.:.:.G S A.x.C  X X X X X X X X X X X X X X X",
" X X X X X X X X X X X X Xr 2.A.5.o h & % $ % h h h h h j h h h o @ l l z k k L L G K K F T L U k A A.z.5  X X X X X X X X X X X X X X X",
" X X X X X X X X X X X X Xf / A.5.k g.g.g.g.d.g.g.g.g.g.h.g.g.g.K R g.h.g.g.h.h.h.h.h.h.h.h.h.g.>.W A.c.5  X X X X X X X X X X X X X X X",
" X X X X X X X X X X X X X%./ Z.t.j h.h.h.h.h.h.h.h.h.h.h.h.h.g.T T h.h.h.h.h.h.h.h.h.h.h.h.h.g.6.V S.c.p  X X X X X X X X X X X X X X X",
" X X X X X X X X X X X X X} ^ Z.5.K h.h.h.h.h.h.h.h.h.h.h.h.h.g.L Y h.h.h.h.h.h.h.h.h.h.h.h.h.h.>.A Z.c.u  X X X X X X X X X X X X X X X",
" X X X X X X X X X X X X X&.^ Z.5.k h.h.h.h.h.h.h.h.h.h.h.h.h.g.T U h.h.h.h.h.h.h.h.h.h.h.h.h.h.=.Q Z.x.`  X X X X X X X X X X X X X X X",
" X X X X X X X X X X X X X&.~ S.5.l h.h.h.h.h.h.h.h.h.h.h.h.h.g.*.D h.h.h.h.h.h.h.h.h.h.h.h.h.h.-.W Z.j.u  X X X X X X X X X X X X X X X",
" X X X X X X X X X X X X X X~ A.t.h g.h.h.h.h.h.h.h.h.h.h.h.h.g.Y L h.h.h.h.h.h.h.h.h.h.h.h.h.h.:.A Z.j.;  X X X X X X X X X X X X X X X",
" X X X X X X X X X X X X X XQ A.r.j g.g.h.h.h.h.h.h.h.h.h.h.h.g.Y K h.h.h.h.h.h.h.h.h.h.h.h.h.g.>.c A.z.-  X X X X X X X X X X X X X X X",
" X X X X X X X X X X X X X XW S.5.z h.h.h.h.h.h.h.h.h.h.h.h.h.g.=.G h.h.h.h.h.h.h.h.h.h.h.h.h.h.=.Q Z.x.*  X X X X X X X X X X X X X X X",
" X X X X X X X X X X X X X XK S.t.h g.h.h.h.h.h.h.h.h.h.h.h.h.g.:.k h.h.h.h.h.h.h.h.h.h.h.h.h.h.Y ~ Z.x.>  X X X X X X X X X X X X X X X",
" X X X X X X X X X X X X X XS A.u.& h.h.h.h.h.h.h.h.h.h.h.h.h.g.:.k g.h.h.h.h.h.h.h.h.h.h.h.h.h.U / Z.x.o  X X X X X X X X X X X X X X X",
" X X X X X X X X X X X X X XA C.i.% h.h.h.h.h.h.h.h.h.h.h.h.h.h.:.z h.h.h.h.h.h.h.h.h.h.h.h.h.h.R ^ Z.x.o  X X X X X X X X X X X X X X X",
" X X X X X X X X X X X X X XV A.i.@ h.h.h.h.h.h.h.h.h.h.h.h.h.h.:.k h.h.h.h.h.h.h.h.h.h.h.h.h.g.*.I A.c.>  X X X X X X X X X X X X X X X",
" X X X X X X X X X X X X X XS C.j.O f.h.h.h.h.h.h.h.h.h.h.h.h.h.:.l h.h.h.h.h.h.h.h.h.h.h.h.h.g.R ~ A.j.i  X X X X X X X X X X X X X X X",
" X X X X X X X X X X X X X XA A.j.@ g.h.h.h.h.h.h.h.h.h.h.h.h.g.>.j h.h.h.h.h.h.h.h.h.h.h.h.h.h.Y ~ A.j.t  X X X X X X X X X X X X X X X",
" X X X X X X X X X X X X X XA V.p.@ h.h.h.h.h.h.h.h.h.h.h.h.h.g.>.l h.g.h.h.h.h.h.h.h.h.h.h.h.h.*.~ A.z.i  X X X X X X X X X X X X X X X",
" X X X X X X X X X X X X X Xc S.z.O f.h.h.h.h.h.h.h.h.h.h.h.h.g.>.j g.g.h.h.h.h.h.h.h.h.h.h.h.h.*.Q A.x.i  X X X X X X X X X X X X X X X",
" X X X X X X X X X X X X X Xx V.j.O d.h.h.h.h.h.h.h.h.h.h.h.h.g.:.j g.g.h.h.h.h.h.h.h.h.h.h.h.h.Y Q Z.c.w  X X X X X X X X X X X X X X X",
" X X X X X X X X X X X X X XB V.k.O d.h.h.h.h.h.h.h.h.h.h.h.h.g.>.j h.h.h.h.h.h.h.h.h.h.h.h.h.g.Y ! Z.c.w  X X X X X X X X X X X X X X X",
" X X X X X X X X X X X X X Xx V.x.; s.h.h.h.h.h.h.h.h.h.h.h.h.h.>.j h.h.h.h.h.h.h.h.h.h.h.h.h.h.Y ~ A.j.r  X X X X X X X X X X X X X X X",
" X X X X X X X X X X X X X XV V.j.O f.h.h.h.h.h.h.h.h.h.h.h.g.g.>.j h.h.h.h.h.h.h.h.h.h.h.h.h.h.*.Q Z.x.2  X X X X X X X X X X X X X X X",
" X X X X X X X X X X X X X Xc S.x.O d.g.h.g.g.h.g.h.h.h.g.g.g.g.>.l g.g.h.h.g.h.g.g.h.g.g.h.h.h.Y S A.x.e  X X X X X X X X X X X X X X X",
" X X X X X X X X X X X X X Xc S.v.x l N N N N K K N K K K K L L l @ H F F U U U U L F U L L T T h 2.A.p.i  X X X X X X X X X X X X X X X",
" X X X X X X X X X X X X X XB V.S.c.x.c.c.x.x.x.x.x.z.j.z.j.i.y.y.y.u.u.y.y.t.r.t.y.y.y.u.y.y.y.i.S.A.z.r  X X X X X X X X X X X X X X X",
" X X X X X X X X X X X X X X< i.x.v.c.c.c.c.v.v.c.v.v.v.v.v.v.v.v.V.v.c.v.c.c.c.c.x.c.c.x.i.j.j.z.j.i.r.e  X X X X X X X X X X X X X X X",
" X X X X X X X X X X X X X Xw   O < C 5 5 5 C Z C C Z ' ) ( ) C ) ' ' C ( ( u ( _ w u ( t e w e e e i e s  X X X X X X X X X X X X X X X"
};
