/* XPM */
static char *result[] = {
/* columns rows colors chars-per-pixel */
"68 68 191 2 ",
"   c #000000",
".  c #060C04",
"X  c #080A07",
"o  c #0D0E0B",
"O  c #061202",
"+  c #0A1406",
"@  c #0A1C04",
"#  c #0D120B",
"$  c #0E1D09",
"%  c #071C00",
"&  c #121C0D",
"*  c #1B1E1A",
"=  c #161C11",
"-  c #092300",
";  c #0B2B01",
":  c #12210B",
">  c #152B0D",
",  c #192D0D",
"<  c #0D3400",
"1  c #0F3901",
"2  c #16340B",
"3  c #1A330E",
"4  c #1A3D0D",
"5  c #173A0C",
"6  c #162410",
"7  c #1A2613",
"8  c #172B10",
"9  c #192D12",
"0  c #1E211B",
"q  c #1E2B1A",
"w  c #1B3312",
"e  c #1C3B11",
"r  c #1B351A",
"t  c #21261D",
"y  c #222D1E",
"u  c #202A16",
"i  c #24341D",
"p  c #253C1D",
"a  c #1B3532",
"s  c #242622",
"d  c #252A23",
"f  c #282B27",
"g  c #2B2B2A",
"h  c #273123",
"j  c #293624",
"k  c #273820",
"l  c #2C3D26",
"z  c #2D342A",
"x  c #323B2D",
"c  c #343533",
"v  c #363A34",
"b  c #3B3C3B",
"n  c #383E35",
"m  c #17410C",
"M  c #1A440B",
"N  c #1C4C0B",
"B  c #1D540A",
"V  c #1E5B0A",
"C  c #1B5A04",
"Z  c #1E4611",
"A  c #1F4A11",
"S  c #1D401D",
"D  c #1F5110",
"F  c #21450C",
"G  c #244D0B",
"H  c #27560B",
"J  c #285B0A",
"K  c #225E0E",
"L  c #214314",
"P  c #214B12",
"I  c #26411C",
"U  c #29471E",
"Y  c #225311",
"T  c #245B11",
"R  c #1F6208",
"E  c #1C6705",
"W  c #216409",
"Q  c #226B09",
"!  c #2C6C08",
"~  c #2A6609",
"^  c #247C06",
"/  c #237108",
"(  c #237607",
")  c #307308",
"_  c #266411",
"`  c #286613",
"'  c #266811",
"]  c #296B12",
"[  c #2B7312",
"{  c #2D7B13",
"}  c #26721D",
"|  c #2B4323",
" . c #2E4C23",
".. c #2E4029",
"X. c #34452E",
"o. c #255B29",
"O. c #35522A",
"+. c #325526",
"@. c #234D3E",
"#. c #354231",
"$. c #3C423A",
"%. c #2B7629",
"&. c #266133",
"*. c #3F4040",
"=. c #28504F",
"-. c #2B5355",
";. c #2F6752",
":. c #3A757C",
">. c #424242",
",. c #4D4D4D",
"<. c #258406",
"1. c #278C05",
"2. c #288E05",
"3. c #2A890B",
"4. c #368C06",
"5. c #299305",
"6. c #2B9D04",
"7. c #2E9B0B",
"8. c #289705",
"9. c #3A9806",
"0. c #2E8312",
"q. c #2F8813",
"w. c #2A821E",
"e. c #308514",
"r. c #318C13",
"t. c #2D9311",
"y. c #349514",
"u. c #349A13",
"i. c #2DA404",
"p. c #2EAC03",
"a. c #3FAD04",
"s. c #36A708",
"d. c #2FB302",
"f. c #30B403",
"g. c #31BC01",
"h. c #36A414",
"j. c #39A715",
"k. c #39AB14",
"l. c #35AA10",
"z. c #3CB315",
"x. c #3DBB15",
"c. c #2E9223",
"v. c #2F8137",
"b. c #40BB17",
"n. c #32C301",
"m. c #35CB01",
"M. c #36D300",
"N. c #38D700",
"B. c #37DA00",
"V. c #39DB00",
"C. c #3FC115",
"Z. c #3FCD14",
"A. c #47C404",
"S. c #4BD003",
"D. c #41C416",
"F. c #42CB16",
"G. c #44D316",
"H. c #45DB16",
"J. c #4EE101",
"K. c #4FE900",
"L. c #51E303",
"P. c #53ED02",
"I. c #55F302",
"U. c #47E317",
"Y. c #48E517",
"T. c #4AEC17",
"R. c #4BEC18",
"E. c #49E717",
"W. c #318140",
"Q. c #3A9257",
"!. c #469E89",
"~. c #449191",
"^. c #4C9BA6",
"/. c #55ACB8",
"(. c #55B4B3",
"). c #5BBDCB",
"_. c #59B7C5",
"`. c #60C5D3",
"'. c #63CBDA",
"]. c #67D5E6",
"[. c #68D7E7",
"{. c #6FE6F7",
"}. c #71EBFD",
"|. c #79ECFC",
" X c #83EDFC",
".X c #89EEFC",
"XX c #92EFFC",
"oX c #97F0FC",
"OX c #ACF3FB",
"+X c #A6F2FC",
"@X c None",
/* pixels */
"@X@X@X@X@X@X@X@X@X@X@X@X@X@X@X@X@X@X@X@X@X@X@X@X@X@X@X@X@Xv f f d l d g t s c @X@X@X@X@X@X@X@X@X@X@X@X@X@X@X@X@X@X@X@X@X@X@X@X@X@X@X@X@X",
"@X@X@X@X@X@X@X@X@X@X@X@X@X@X@X@X@X@X@X@X@X@X@X@X@X*.s u G q.z.q.G S.s.' D.b.y.] P q z @X@X@X@X@X@X@X@X@X@X@X@X@X@X@X@X@X@X@X@X@X@X@X@X@X",
"@X@X@X@X@X@X@X@X@X@X@X@X@X@X@X@X@X@X@X@X@X@Xc y P y.G.T.T.T.T.D.4 P.a.{ T.R.R.R.T.Y.D._ d c @X@X@X@X@X@X@X@X@X@X@X@X@X@X@X@X@X@X@X@X@X@X",
"@X@X@X@X@X@X@X@X@X@X@X@X@X@X@X@X@X@X@X@Xc * [ F.R.T.T.T.T.T.T.F.2 P.a.[ T.R.R.R.T.T.T.T.G.] 0 @X@X@X@X@X@X@X@X@X@X@X@X@X@X@X@X@X@X@X@X@X",
"@X@X@X@X@X@X@X@X@X@X@X@X@X@X@X@X@X@X@Xu 9.H ` E.T.T.T.T.T.T.T.H.> J.9.{ T.T.T.T.T.T.T.T.R.G.9 J g @X@X@X@X@X@X@X@X@X@X@X@X@X@X@X@X@X@X@X",
"@X@X@X@X@X@X@X@X@X@X@X@X@X@X@X@X@X>.q ) I.S.4 e.T.T.T.T.T.T.E.H.> J.4.[ T.T.T.T.T.R.T.T.R.] ! I.~ * @X@X@X@X@X@X@X@X@X@X@X@X@X@X@X@X@X@X",
"@X@X@X@X@X@X@X@X@X@X@X@X@X@X@X@Xg L H.y.G L.P.F e.R.T.T.E.F.k.] : M 3 8 5 Z ` y.D.E.E.R.k.F L.L.4 Y 0 @X@X@X@X@X@X@X@X@X@X@X@X@X@X@X@X@X",
"@X@X@X@X@X@X@X@X@X@X@X@X@X@X@X@Xp F.R.R.{ J I.J.3 r.z.] w m V 5.d.n.m.m.m.g.i.Q 4 P j.D., A.I.J e.E.` c @X@X@X@X@X@X@X@X@X@X@X@X@X@X@X@X",
"@X@X@X@X@X@X@X@X@X@X@X@X@X@X@X0 z.T.T.T.R.] G L.4.& R i.M.V.V.V.V.V.V.V.V.V.V.V.B.g.W & ! P.! ` E.T.H.q @X@X@X@X@X@X@X@X@X@X@X@X@X@X@X@X",
"@X@X@X@X@X@X@X@X@X@X@X@X@X@Xc Y T.T.T.T.T.R.` 8 N f.V.B.V.V.B.B.n.i.1.2.f.m.B.V.V.V.V.p.4 F P U.R.T.T.Y >.@X@X@X@X@X@X@X@X@X@X@X@X@X@X@X",
"@X@X@X@X@X@X@X@X@X@X@X@X@X@Xs z.T.T.T.T.T.D.9 3.V.V.V.V.V.m./ 2 m Q 5.2.K 2 N 6.M.V.V.B.M./ e G.T.T.R.j.g @X@X@X@X@X@X@X@X@X@X@X@X@X@X@X",
"@X@X@X@X@X@X@X@X@X@X@X@X@X@Xi G.T.T.T.T.F.w 5.B.V.V.V.V.p.3 Q n.V.V.V.V.V.M.i.N N n.V.V.B.V.<.w G.T.T.D.t @X@X@X@X@X@X@X@X@X@X@X@X@X@X@X",
"@X@X@X@X@X@X@X@X@X@X@X@X@X@Xw b.z.x.D.z.6 / d.p.p.p.p.p.& ( p.i.6.6.8.5.8.8.8.<.4 3 Q Q Q W E , P [ 0.] = @X@X@X@X@X@X@X@X@X@X@X@X@X@X@X",
"@X@X@X@X@X@X@X@X@X@X@X@X@Xg 6 P _ T T Y T T ' ' ' ' ' ' ' [ [ 0.{ e.y.y.y.u.u.j.x.x.C.D.D.D.C.D.D.D.z.x.8 @X@X@X@X@X@X@X@X@X@X@X@X@X@X@X",
"@X@X@X@X@X@X@X@X@X@X@X@X@Xy b.E.T.R.T.T.T.T.T.T.T.T.T.T.T.R.T.T.R.T.T.T.R.R.T.R.T.T.R.T.R.R.R.T.T.T.R.U.8 @X@X@X@X@X@X@X@X@X@X@X@X@X@X@X",
"@X@X@X@X@X@X@X@X@X@X@X@X@Xq D.E.T.U.T.T.R.T.T.T.T.T.T.T.T.T.T.T.T.R.T.T.R.E.R.R.T.E.T.E.E.H.H.U.H.G.T.H.8 @X@X@X@X@X@X@X@X@X@X@X@X@X@X@X",
"@X@X@X@X@X@X@X@X@X@X@X@X@Xz x.R.j.& 5 m M 2 2 > N m 5 M K P M 4 5 3 > 2 & : : & $ $ $ + o o o + : 9 E.U.9 @X@X@X@X@X@X@X@X@X@X@X@X@X@X@X",
"@X@X@X@X@X@X@X@X@X@X@X@X@Xx z.R.t.                                                    O < E 8.n.p.4 R.U.w @X@X@X@X@X@X@X@X@X@X@X@X@X@X@X",
"@X@X@X@X@X@X@X@X@X@X@X@X@Xj C.R.q.                                        . - 1 C ^ d.B.B.B.B.V.f.4 E.E.3 @X@X@X@X@X@X@X@X@X@X@X@X@X@X@X",
"@X@X@X@X@X@X@X@X@X@X@X@X@Xi D.R.q.                                      - n.M.B.B.B.V.V.V.V.V.V.f.3 E.U.w @X@X@X@X@X@X@X@X@X@X@X@X@X@X@X",
"@X@X@X@X@X@X@X@X@X@X@X@X@Xj D.R.q.                                      ; V.V.V.B.M.f.d.M.B.B.V.g.w T.Y.3 @X@X@X@X@X@X@X@X@X@X@X@X@X@X@X",
"@X@X@X@X@X@X@X@X@X@X@X@X@X#.D.R.0.X                                     ; V.V.V.n.N -.-.S n.V.V.g.3 Y.Y.w @X@X@X@X@X@X@X@X@X@X@X@X@X@X@X",
"@X@X@X@X@X@X@X@X@X@X@X@X@X#.x.R.{ X                                     < V.B.m.&.).}.}.'.o.m.B.g.5 T.Y.e @X@X@X@X@X@X@X@X@X@X@X@X@X@X@X",
"@X@X@X@X@X@X@X@X@X@X@X@X@Xv z.R.0.                                      < V.B.} ).}.}.}.}./.t.B.n.3 U.Y.3 @X@X@X@X@X@X@X@X@X@X@X@X@X@X@X",
"@X@X@X@X@X@X@X@X@X@X@X@X@Xz z.R.{ X                                     < V.d.~.}..X X+X X}.;.M.n.9 U.E.w @X@X@X@X@X@X@X@X@X@X@X@X@X@X@X",
"@X@X@X@X@X@X@X@X@X@X@X@X@Xn z.R.q.                                      < V.c.[.}.OX.XOX|.}._.i.n.9 E.E.w @X@X@X@X@X@X@X@X@X@X@X@X@X@X@X",
"@X@X@X@X@X@X@X@X@X@X@X@X@X$.x.R.[ X                                     < V.Q.}.|.OX|.OX}.}.}.w.n.w E.H.w @X@X@X@X@X@X@X@X@X@X@X@X@X@X@X",
"@X@X@X@X@X@X@X@X@X@X@X@X@X#.C.T.[                                       < m.!.}.|.OXXXoX}.}.}.v.n.9 E.U.w @X@X@X@X@X@X@X@X@X@X@X@X@X@X@X",
"@X@X@X@X@X@X@X@X@X@X@X@X@Xn x.R.{ .                                     1 p.(.}.}.}..X|.}.}.}.v.g.4 E.U.i @X@X@X@X@X@X@X@X@X@X@X@X@X@X@X",
"@X@X@X@X@X@X@X@X@X@X@X@X@Xt k.T.{ .                                     1 7.`.}.}.}.}.}.}.]._.%.g.Z T.U.r @X@X@X@X@X@X@X@X@X@X@X@X@X@X@X",
"@X@X@X@X@X@X@X@X@X@X@X@X@Xd j.T.q.X                                     < 7.`.{.].).^.:.=.5 V p.n.e T.H.w @X@X@X@X@X@X@X@X@X@X@X@X@X@X@X",
"@X@X@X@X@X@X@X@X@X@X@X@X@Xd k.T.0.X                                     < 6.=.a r V <.p.m.B.V.V.g.e T.H.9 @X@X@X@X@X@X@X@X@X@X@X@X@X@X@X",
"@X@X@X@X@X@X@X@X@X@X@X@X@Xs z.T.q.X                                     < m.i.m.V.V.V.V.V.V.V.V.g.A T.H.9 @X@X@X@X@X@X@X@X@X@X@X@X@X@X@X",
"@X@X@X@X@X@X@X@X@X@X@X@X@Xs k.T.q.X                                     < V.B.B.V.V.V.V.V.V.V.V.g.Z T.H.9 @X@X@X@X@X@X@X@X@X@X@X@X@X@X@X",
"@X@X@X@X@X@X@X@X@X@X@X@X@Xc h.R.u..                                     < V.V.V.V.V.V.V.V.V.V.V.d.T T.H.9 @X@X@X@X@X@X@X@X@X@X@X@X@X@X@X",
"@X@X@X@X@X@X@X@X@X@X@X@X@Xn u.T.y..                                     < V.V.V.V.V.V.V.V.V.V.V.d.Y T.H.9 @X@X@X@X@X@X@X@X@X@X@X@X@X@X@X",
"@X@X@X@X@X@X@X@X@X@X@X@X@X$.u.T.y.X                                     < V.V.V.V.V.V.V.V.V.V.V.d.T T.H.r @X@X@X@X@X@X@X@X@X@X@X@X@X@X@X",
"@X@X@X@X@X@X@X@X@X@X@X@X@Xb u.T.u.X                                     ; B.V.V.V.V.V.V.V.V.V.V.d.Y T.H.w @X@X@X@X@X@X@X@X@X@X@X@X@X@X@X",
"@X@X@X@X@X@X@X@X@X@X@X@X@Xb u.T.u..                                     . 5.V.V.V.V.V.V.V.V.V.V.g.Z T.G.w @X@X@X@X@X@X@X@X@X@X@X@X@X@X@X",
"@X@X@X@X@X@X@X@X@X@X@X@X@Xc u.T.k.o                                     O 5.V.V.V.V.V.V.V.V.V.V.g.Y T.F.I @X@X@X@X@X@X@X@X@X@X@X@X@X@X@X",
"@X@X@X@X@X@X@X@X@X@X@X@X@Xf r.T.k.X                                     O 5.V.V.V.V.V.V.V.V.V.V.d.T R.G.I @X@X@X@X@X@X@X@X@X@X@X@X@X@X@X",
"@X@X@X@X@X@X@X@X@X@X@X@X@Xg 0.R.h.X                                     . 2.V.V.V.V.V.V.V.B.B.n.^ T R.D.I @X@X@X@X@X@X@X@X@X@X@X@X@X@X@X",
"@X@X@X@X@X@X@X@X@X@X@X@X@Xg e.R.u.X                                     ; B.V.V.V.M.n.i.<.C M M B T R.D.p @X@X@X@X@X@X@X@X@X@X@X@X@X@X@X",
"@X@X@X@X@X@X@X@X@X@X@X@X@Xb { R.u.                                      ; g.i.^ V B 2 W <.p.m.V.p._ T.G.p @X@X@X@X@X@X@X@X@X@X@X@X@X@X@X",
"@X@X@X@X@X@X@X@X@X@X@X@X@X>.{ T.h..                                     . M R 5.g.M.( B.B.V.V.V.f.D T.G.k @X@X@X@X@X@X@X@X@X@X@X@X@X@X@X",
"@X@X@X@X@X@X@X@X@X@X@X@X@X$.[ T.t.                                      ; B.V.B.V.V.^ M.V.V.V.V.f.H T.F.l @X@X@X@X@X@X@X@X@X@X@X@X@X@X@X",
"@X@X@X@X@X@X@X@X@X@X@X@X@X,.[ T.u.                                      ; V.V.V.V.V.^ V.V.V.V.V.p.` T.F.X.@X@X@X@X@X@X@X@X@X@X@X@X@X@X@X",
"@X@X@X@X@X@X@X@X@X@X@X@X@X,.] E.u..                                     ; V.V.V.V.V.<.V.V.V.V.V.p._ T.C.l @X@X@X@X@X@X@X@X@X@X@X@X@X@X@X",
"@X@X@X@X@X@X@X@X@X@X@X@X@X@X] E.h.                                      ; V.V.V.V.V.<.N.V.V.V.V.p.T T.x.9 @X@X@X@X@X@X@X@X@X@X@X@X@X@X@X",
"@X@X@X@X@X@X@X@X@X@X@X@X@X@X] T.h..                                     ; V.V.V.V.V.^ N.V.V.V.V.d.D R.D.> @X@X@X@X@X@X@X@X@X@X@X@X@X@X@X",
"@X@X@X@X@X@X@X@X@X@X@X@X@X@X_ T.u.                                      - V.V.V.V.V.<.N.V.V.V.V.p.` R.D.6 @X@X@X@X@X@X@X@X@X@X@X@X@X@X@X",
"@X@X@X@X@X@X@X@X@X@X@X@X@X@XT T.h..                                     - V.V.V.V.V.<.N.V.V.V.V.i.[ T.F.q @X@X@X@X@X@X@X@X@X@X@X@X@X@X@X",
"@X@X@X@X@X@X@X@X@X@X@X@X@X@XT E.z..                                     ; V.V.V.V.V.1.M.V.V.V.V.i.[ R.G.: @X@X@X@X@X@X@X@X@X@X@X@X@X@X@X",
"@X@X@X@X@X@X@X@X@X@X@X@X@X@XY E.z.+                                     - N.V.V.V.V.1.M.V.V.V.V.i.[ R.D.6 @X@X@X@X@X@X@X@X@X@X@X@X@X@X@X",
"@X@X@X@X@X@X@X@X@X@X@X@X@X@XY E.x.+                                     - N.V.V.V.V.1.M.V.V.V.V.p.` R.G.q @X@X@X@X@X@X@X@X@X@X@X@X@X@X@X",
"@X@X@X@X@X@X@X@X@X@X@X@X@X@XT E.C.+                                     - N.V.V.V.V.<.M.V.V.V.V.i.] R.D.z @X@X@X@X@X@X@X@X@X@X@X@X@X@X@X",
"@X@X@X@X@X@X@X@X@X@X@X@X@X@XY E.C.O                                     - N.V.V.V.V.1.m.V.V.V.V.i.] R.C.h @X@X@X@X@X@X@X@X@X@X@X@X@X@X@X",
"@X@X@X@X@X@X@X@X@X@X@X@X@X@XY E.C.+                                     % M.V.V.V.V.2.m.V.V.V.V.p.] R.D.z @X@X@X@X@X@X@X@X@X@X@X@X@X@X@X",
"@X@X@X@X@X@X@X@X@X@X@X@X@X@XA E.D.+                                     - N.V.V.V.V.2.m.V.V.V.V.i.] R.F.z @X@X@X@X@X@X@X@X@X@X@X@X@X@X@X",
"@X@X@X@X@X@X@X@X@X@X@X@X@X@XZ U.x.+                                     - M.V.V.V.V.2.m.V.V.V.V.i.` T.G.d @X@X@X@X@X@X@X@X@X@X@X@X@X@X@X",
"@X@X@X@X@X@X@X@X@X@X@X@X@X@XL U.D.@                                     % M.V.V.V.V.2.m.V.V.V.V.i.` E.G.d @X@X@X@X@X@X@X@X@X@X@X@X@X@X@X",
"@X@X@X@X@X@X@X@X@X@X@X@X@X@XZ U.F.@                                     % M.V.V.V.V.2.m.V.V.V.V.i.[ R.D.g @X@X@X@X@X@X@X@X@X@X@X@X@X@X@X",
"@X@X@X@X@X@X@X@X@X@X@X@X@X@XP U.C.@                                     @ M.V.V.V.V.2.m.V.V.V.V.i.` E.F.t @X@X@X@X@X@X@X@X@X@X@X@X@X@X@X",
"@X@X@X@X@X@X@X@X@X@X@X@X@X@XA E.D.@                                     % m.V.V.V.V.2.m.V.V.V.V.i._ R.D.g @X@X@X@X@X@X@X@X@X@X@X@X@X@X@X",
"@X@X@X@X@X@X@X@X@X@X@X@X@X@XL E.H.4 @ & : & $ : @ @ $ @ + + + . . X O . ; m.B.B.B.V.2.m.M.n.p.5.E e.T.b.z @X@X@X@X@X@X@X@X@X@X@X@X@X@X@X",
"@X@X@X@X@X@X@X@X@X@X@X@X@X@XZ U.T.G.F.F.G.G.F.F.D.D.D.D.C.D.x.k.k.k.z.z.z.M.m.d.i.i.3.7.h.k.h.k.C.E.R.D.g @X@X@X@X@X@X@X@X@X@X@X@X@X@X@X",
"@X@X@X@X@X@X@X@X@X@X@X@X@X@XZ x.Z.H.G.H.G.G.G.H.H.H.H.H.G.H.H.H.H.H.H.H.Z.k.h.l.z.z.D.G.F.x.D.C.D.x.x.h.d @X@X@X@X@X@X@X@X@X@X@X@X@X@X@X",
"@X@X@X@X@X@X@X@X@X@X@X@X@X@Xs & > e p p p p I U I L U O. . . .I  .+.O.I | | | | ..i ....h f d d d f c f b @X@X@X@X@X@X@X@X@X@X@X@X@X@X@X"
};
