/* XPM */
static char *result[] = {
/* columns rows colors chars-per-pixel */
"68 68 147 2 ",
"   c #15003E",
".  c #170340",
"X  c #1A0542",
"o  c #170942",
"O  c #1D0945",
"+  c #200C47",
"@  c #220E48",
"#  c #25124B",
"$  c #29164E",
"%  c #27194F",
"&  c #2A1750",
"*  c #2D1A52",
"=  c #301D54",
"-  c #13284A",
";  c #183450",
":  c #332157",
">  c #362459",
",  c #39275B",
"<  c #3C2B5E",
"1  c #3F2E60",
"2  c #402F62",
"3  c #443365",
"4  c #473868",
"5  c #4B3B6B",
"6  c #1B4155",
"7  c #174D57",
"8  c #164454",
"9  c #50416F",
"0  c #40586F",
"q  c #4E4A71",
"w  c #554572",
"e  c #564975",
"r  c #594B76",
"t  c #5D4E79",
"y  c #5E507B",
"u  c #62547D",
"i  c #57677F",
"p  c #168C6B",
"a  c #0FA66F",
"s  c #12AA72",
"d  c #12B977",
"f  c #0DCE7B",
"g  c #13CF7F",
"h  c #665981",
"j  c #6A5D84",
"k  c #6D6187",
"l  c #6F6289",
"z  c #72668B",
"x  c #766A8E",
"c  c #786C8F",
"v  c #796D90",
"b  c #7D7294",
"n  c #807596",
"m  c #827798",
"M  c #867B9B",
"N  c #897E9D",
"B  c #2DB382",
"V  c #37B388",
"C  c #53968B",
"Z  c #68BAA1",
"A  c #1ECE83",
"S  c #16D080",
"D  c #1AD182",
"F  c #23D287",
"G  c #27D389",
"H  c #34D791",
"J  c #38D793",
"K  c #3CD895",
"L  c #4EDB9F",
"P  c #44D999",
"I  c #59DEA5",
"U  c #57DDA3",
"Y  c #6FE3B1",
"T  c #7AE5B7",
"R  c #71E3B2",
"E  c #8A809F",
"W  c #8D83A1",
"Q  c #9087A4",
"!  c #948AA6",
"~  c #968DA8",
"^  c #988FAA",
"/  c #9B92AC",
"(  c #9F97B0",
")  c #A097B0",
"_  c #A39CB4",
"`  c #A7A0B7",
"'  c #ACA5BB",
"]  c #ADA8BC",
"[  c #B1AABE",
"{  c #A4BABE",
"}  c #81D3B5",
"|  c #90DABE",
" . c #84E6BD",
".. c #89E7BF",
"X. c #B4AEC1",
"o. c #B6B1C3",
"O. c #B9B3C5",
"+. c #BDB7C8",
"@. c #BEB9C9",
"#. c #C2BDCD",
"$. c #AEC7C6",
"%. c #B8CCCC",
"&. c #8FE1C0",
"*. c #8FE8C1",
"=. c #9AE7C7",
"-. c #93EAC5",
";. c #A4EDCE",
":. c #B4F0D6",
">. c #B7F1D8",
",. c #BAF1DA",
"<. c #C5C0CF",
"1. c #C6C1D0",
"2. c #CAC5D3",
"3. c #CDC9D6",
"4. c #CFCBD8",
"5. c #D2CEDA",
"6. c #C1DED7",
"7. c #D5D1DC",
"8. c #D8D5DF",
"9. c #C5EFDE",
"0. c #DAD7E0",
"q. c #DDDAE3",
"w. c #E1DEE6",
"e. c #DEE8E8",
"r. c #CCF4E3",
"t. c #D7F6E9",
"y. c #DAF7EB",
"u. c #DDF8ED",
"i. c #D0F5E5",
"p. c #E2E0E7",
"a. c #E5E3EA",
"s. c #E8E6EC",
"d. c #EAE9EE",
"f. c #E5F1EF",
"g. c #E1F9EF",
"h. c #EEECF1",
"j. c #F0EFF3",
"k. c #E5FAF1",
"l. c #ECFBF5",
"z. c #E9F4F1",
"x. c #F4F3F6",
"c. c #F0FCF7",
"v. c #F7F6F8",
"b. c #F8F7F9",
"n. c #F6FDFA",
"m. c #FDFDFD",
"M. c None",
/* pixels */
"M.M.M.M.M.M.M.M.M.M.M.M.M.M.M.M.M.M.M.M.M.M.M.M.M.M.M.M.M.M.M.M.M.M.M.M.M.M.M.M.M.M.M.M.M.M.M.M.M.M.M.M.M.M.M.M.M.M.M.M.M.M.M.M.M.M.M.M.",
"M.M.M.M.M.M.M.M.M.M.M.M.M.M.M.M.M.M.M.M.M.M.M.M.M.M.M.M.M.M.M.M.M.M.M.M.M.M.M.M.M.M.M.M.M.M.M.M.M.M.M.M.M.M.M.M.M.M.M.M.M.M.M.M.M.M.M.M.",
"M.M.M.M.M.M.M.M.M.M.M.M.M.M.M.M.M.M.M.M.M.M.M.M.m.b.m.m.M.M.M.M.M.m.m.b.b.m.M.M.M.M.M.M.M.M.M.M.M.M.M.M.M.M.M.M.M.M.M.M.M.M.M.M.M.M.M.M.",
"M.M.M.M.M.M.M.M.M.M.M.M.M.M.M.M.M.M.M.M.M.M.M.v.j.a.q.a.x.b.M.M.b.x.a.w.a.j.v.M.M.M.M.M.M.M.M.M.M.M.M.M.M.M.M.M.M.M.M.M.M.M.M.M.M.M.M.M.",
"M.M.M.M.M.M.M.M.M.M.M.M.M.M.M.M.M.M.M.M.M.M.M.h.4.Q z _ 8.x.m.m.x.8./ z ! 5.j.b.M.M.M.M.M.M.M.M.M.M.M.M.M.M.M.M.M.M.M.M.M.M.M.M.M.M.M.M.",
"M.M.M.M.M.M.M.M.M.M.M.M.M.M.M.M.M.M.M.M.M.M.b.q.M @ . > _ s.b.m.a.) =   $ Q w.b.m.M.M.M.M.M.M.M.M.M.M.M.M.M.M.M.M.M.M.M.M.M.M.M.M.M.M.M.",
"M.M.M.M.M.M.M.M.M.M.M.M.M.M.M.M.M.M.M.M.M.m.v.5.u     O v w.b.v.8.l X     h 3.v.m.m.m.m.M.M.M.M.M.M.M.M.M.M.M.M.M.M.M.M.M.M.M.M.M.M.M.M.",
"M.M.M.M.M.M.M.M.M.M.M.M.M.M.M.M.M.M.M.M.M.m.x.3.u     O v 0.v.x.7.j X     u <.j.m.m.m.m.m.m.m.M.M.M.M.M.M.M.M.M.M.M.M.M.M.M.M.M.M.M.M.M.",
"M.M.M.M.M.M.M.M.M.M.M.M.M.M.M.M.M.M.M.M.M.m.v.3.u     O z 5.d.w.@.u       r ' 7.p.s.d.x.v.b.m.m.m.M.M.M.M.M.M.M.M.M.M.M.M.M.M.M.M.M.M.M.",
"M.M.M.M.M.M.M.M.M.M.M.M.M.M.M.M.M.M.M.M.m.m.v.3.u     O u [ +.] W 5       4 c W _ [ @.4.8.s.x.v.m.m.m.m.M.M.M.M.M.M.M.M.M.M.M.M.M.M.M.M.",
"M.M.M.M.M.M.M.M.M.M.M.M.M.M.M.M.M.M.M.m.m.m.h.1.t     . , 5 < : # O       X O + # = < e c / +.7.a.j.b.m.m.m.M.M.M.M.M.M.M.M.M.M.M.M.M.M.",
"M.M.M.M.M.M.M.M.M.M.M.M.M.M.M.M.M.M.m.m.b.h.7._ 5         .                               O > r W O.8.d.v.m.m.M.M.M.M.M.M.M.M.M.M.M.M.M.",
"M.M.M.M.M.M.M.M.M.M.M.M.M.M.M.M.m.m.b.d.8.o.b < O                                               + < x ' 7.h.v.m.m.M.M.M.M.M.M.M.M.M.M.M.",
"M.M.M.M.M.M.M.M.M.M.M.M.M.M.M.m.m.v.a.<.N 3 X                                                       X > b @.w.x.m.m.M.M.M.M.M.M.M.M.M.M.",
"M.M.M.M.M.M.M.M.M.M.M.M.M.M.m.m.d.7.) e O                 @ > 4 u x M W Q E N c u 9 < # O               O 5 / 4.d.b.m.M.M.M.M.M.M.M.M.M.",
"M.M.M.M.M.M.M.M.M.M.M.M.M.m.v.s.<.b *                 X 4 E [ 1.7.0.p.p.s.p.p.q.8.3.+.) c w &             . * l @.a.v.m.M.M.M.M.M.M.M.M.",
"M.M.M.M.M.M.M.M.M.M.M.M.m.v.w.X.r O           . X     O l 2.d.b.b.m.m.m.m.m.m.m.b.b.x.h.q.3.] z < O           o 5 _ 8.x.b.M.M.M.M.M.M.M.",
"M.M.M.M.M.M.M.M.M.M.M.m.v.w.] e X           @ 4 >     O x 8.b.m.m.m.m.m.m.m.m.m.m.m.m.m.b.x.s.7.] z $             3 ) q.b.M.M.M.M.M.M.M.",
"M.M.M.M.M.M.M.M.M.M.m.v.a.O.w O         X < m ~ 9     O c 0.b.m.m.M.M.M.M.M.M.M.M.M.m.m.m.m.m.x.w.@.x =             3 X.x.m.M.M.M.M.M.M.",
"M.M.M.M.M.M.M.M.M.m.b.s.O.5 .         + j X.5.#.t     X c 0.b.m.M.M.M.M.M.M.M.M.M.M.M.M.m.m.m.v.w.O.t @           $ x 3.x.m.M.M.M.M.M.M.",
"M.M.M.M.M.M.M.M.m.m.d.#.y X         # b 2.s.h.2.u     O c q.b.m.M.M.M.M.M.M.M.M.M.M.M.m.m.m.v.q.' r O           * E 3.h.b.M.M.M.M.M.M.M.",
"M.M.M.M.M.M.M.M.m.j.2.x X         = Q 7.j.b.x.3.u     O c q.b.m.M.M.M.M.M.M.M.M.M.M.m.m.b.h.7.! <           O 1 ) 0.h.m.M.M.M.M.M.M.M.M.",
"M.M.M.M.M.M.M.m.b.p./ >         # x 3.h.b.m.v.3.u   . O v 0.b.m.M.M.M.M.M.M.M.M.M.m.m.m.d.5.Q > .         X 4 / 0.x.m.m.M.M.M.M.M.M.M.M.",
"M.M.M.M.M.M.m.m.j.#.w X       X l #.d.m.m.m.v.5.h     O b q.b.M.M.M.M.M.M.M.M.m.m.m.v.s.#.m &           X q ' 8.x.m.m.M.M.M.M.M.M.M.M.M.",
"M.M.M.M.M.M.m.v.0.M @         5 +.s.b.m.m.m.b.q.M @   > ( d.b.M.M.M.m.m.m.m.m.m.m.x.q.] e +           - p Z 9.z.m.m.m.M.M.M.M.M.M.M.M.M.",
"M.M.M.M.M.m.m.d.@.4         = ! w.v.m.m.M.M.b.x.4.! n _ 0.x.m.m.m.m.m.b.b.m.m.b.h.5./ 1 X           8 a g G &.u.n.m.m.M.M.M.M.M.M.M.M.M.",
"M.M.M.M.M.m.b.q.! @         u <.x.m.m.M.M.M.M.b.j.s.a.d.x.b.m.b.b.h.s.w.q.q.p.w.2.W >             6 d f f f U >.l.m.m.M.M.M.M.M.M.M.M.M.",
"M.M.M.M.M.m.x.1.u         $ / w.b.m.M.M.M.M.M.M.m.b.b.m.m.m.v.s.5.o.! m x b E ~ k $           O 0 B f f f f D T y.n.m.M.M.M.M.M.M.M.M.M.",
"M.M.M.M.m.m.d.' <         9 <.d.m.m.M.M.M.M.M.M.M.M.M.m.b.j.7.' u : @ X   X O $ O           % x { } D g f f f K >.l.m.m.M.M.M.M.M.M.M.M.",
"M.M.M.M.m.m.w.N @       X E q.v.m.M.M.M.M.M.M.M.M.M.M.m.h.2.x *                         O 1 ^ 7.e.9.U g f f f D  .u.m.m.M.M.M.M.M.M.M.M.",
"M.M.M.M.m.v.5.j X       & ' s.m.m.M.M.M.M.M.M.M.M.M.m.h.5.x +                         o 9 ( 0.x.n.k.-.G f f f f I r.n.m.M.M.M.M.M.M.M.M.",
"M.M.M.M.m.x.2.e         1 #.d.m.m.M.M.M.M.M.M.M.M.m.m.w._ =             X X           O z @.d.m.m.l.:.P f f f f J >.l.m.m.M.M.M.M.M.M.M.",
"M.M.M.m.m.j.#.3         9 3.x.m.m.M.M.M.M.M.M.M.M.m.x.1.u         X r ` <.X.l O         4 X.d.m.m.n.r.R f f f f F ;.k.m.m.M.M.M.M.M.M.M.",
"M.M.M.m.m.h.+.=         u 4.v.m.m.M.M.M.M.M.M.M.M.m.d.] <         y p.b.b.b.h.m         & ! p.m.m.m.u...g f f f D -.u.m.m.M.M.M.M.M.M.M.",
"M.M.M.m.m.h.+.*         k 5.v.m.m.M.M.M.M.M.M.M.m.m.a.~ #       O +.b.v.b.b.v.q.$       @ m q.b.m.m.u.-.D f f f S *.u.n.m.M.M.M.M.M.M.M.",
"M.M.M.m.m.h.+.*       O u 7.v.m.m.M.M.M.M.M.M.M.m.m.a.~ $       O @.b.v.b.b.b.q.$       O b q.b.m.m.u.*.S f f f S *.u.m.m.M.M.M.M.M.M.M.",
"M.M.M.m.m.d.+.>         u 5.v.m.m.M.M.M.M.M.M.M.M.m.d._ : .       x x.v.b.v.v.( o       # W p.b.m.m.u.*.f f f f D -.u.m.m.M.M.M.M.M.M.M.",
"M.M.M.M.m.x.<.3         9 2.x.m.m.M.M.M.M.M.M.M.M.m.x.<.r .       O z +.8.2.N #         4 X.h.m.m.n.i.R f f f f D =.k.m.m.M.M.M.M.M.M.M.",
"M.M.M.M.m.v.3.e         2 #.h.m.m.M.M.M.M.M.M.M.M.m.b.q.^ #           # : &           O c 2.x.m.m.c.,.L f f f f J >.l.m.m.M.M.M.M.M.M.M.",
"M.M.M.M.m.b.7.k O       & ' s.b.m.M.M.M.M.M.M.M.M.M.m.j.4.j O                         = E <.d.b.n.k.-.G f f f f I i.n.m.M.M.M.M.M.M.M.M.",
"M.M.M.M.m.m.q.M +       O E q.v.m.M.M.M.M.M.M.M.M.M.M.b.d.#.h $                       . , b 1.p.f.9.I g f f f D  .u.n.m.M.M.M.M.M.M.M.M.",
"M.M.M.M.m.m.d._ >         r 2.h.m.m.M.M.M.M.M.M.M.M.M.m.b.d.2.Q 4 @                       + e ` %.| F f f f f H :.l.m.m.M.M.M.M.M.M.M.M.",
"M.M.M.M.M.m.x.#.y         & ) p.m.m.M.M.M.M.M.M.M.M.M.M.m.m.x.a.2.` m h t u x r +             & i V f f f f D T t.c.m.M.M.M.M.M.M.M.M.M.",
"M.M.M.M.M.m.b.q.Q @         h <.x.m.m.M.M.M.M.M.M.M.M.M.M.m.m.b.v.d.p.8.8.8.7.#.W 1 X           O 6 s f f f L >.l.m.m.M.M.M.M.M.M.M.M.M.",
"M.M.M.M.M.m.m.d.o.<         > / p.v.m.m.M.M.M.M.M.M.M.M.M.M.M.m.m.b.b.b.v.v.v.d.5./ e O             ; p f A ..t.n.m.m.M.M.M.M.M.M.M.M.M.",
"M.M.M.M.M.M.m.x.8.v O       X 5 @.d.m.m.M.M.M.M.M.M.M.M.M.M.M.M.M.M.m.m.m.m.m.m.v.s.2.W 1 O           o 7 C $.p.b.m.m.M.M.M.M.M.M.M.M.M.",
"M.M.M.M.M.M.m.m.d.O.3         O v 2.h.m.m.M.M.M.M.M.M.M.M.M.M.M.M.M.M.M.M.m.m.m.m.m.j.0.] j $             % k o.q.x.b.m.M.M.M.M.M.M.M.M.",
"M.M.M.M.M.M.M.m.b.q.Q =         # n 5.h.m.m.M.M.M.M.M.M.M.M.M.M.M.M.M.M.M.M.M.M.m.m.m.b.d.5.) 5 O             < E 2.s.v.m.M.M.M.M.M.M.M.",
"M.M.M.M.M.M.M.M.m.j.2.l .         * Q 7.x.b.m.m.M.M.M.M.M.M.M.M.M.M.M.M.M.M.M.M.M.M.m.m.b.x.q.O.l *             # j o.a.b.M.M.M.M.M.M.M.",
"M.M.M.M.M.M.M.M.m.b.a.o.5           : Q 5.d.b.m.m.m.M.M.M.M.M.M.M.M.M.M.M.M.M.M.M.M.M.M.m.m.v.d.2.! < O           O 9 <.x.m.M.M.M.M.M.M.",
"M.M.M.M.M.M.M.M.M.m.b.p.' 3           # z O.w.x.m.m.m.m.M.M.M.M.M.M.M.M.M.M.M.M.M.M.M.M.M.m.m.m.j.e.O.c *           # ' d.m.M.M.M.M.M.M.",
"M.M.M.M.M.M.M.M.M.M.m.v.q._ <           @ 5 / 4.s.v.m.m.m.m.m.M.M.M.M.M.M.M.M.M.M.M.M.M.M.M.m.m.m.b.s.4.! 3         $ _ d.m.m.M.M.M.M.M.",
"M.M.M.M.M.M.M.M.M.M.M.m.v.q.) 2             $ l ] 5.s.x.b.m.m.m.m.m.m.m.m.m.m.m.m.m.m.m.m.m.m.m.m.m.b.j.3.x X       @ _ a.m.m.M.M.M.M.M.",
"M.M.M.M.M.M.M.M.M.M.M.m.m.x.q._ 3 O           X < v ' 3.q.d.x.v.b.m.m.m.m.m.m.m.m.m.m.m.m.m.m.m.m.m.m.v.8.b O     . # _ s.b.m.M.M.M.M.M.",
"M.M.M.M.M.M.M.M.M.M.M.M.m.m.x.w.] u @             X : y M ' <.5.q.w.s.d.s.d.d.d.d.d.d.d.s.d.s.d.d.d.s.a.2.c O       # _ s.m.m.M.M.M.M.M.",
"M.M.M.M.M.M.M.M.M.M.M.M.M.m.m.b.d.4.W < X               X $ 1 e j m E Q ^ ^ ^ / ^ / / / / / / / / / / ! N e X       # ) s.m.m.M.M.M.M.M.",
"M.M.M.M.M.M.M.M.M.M.M.M.M.M.M.m.m.x.0.o.z > X                     O O O + # # # # @ # @ @ # @ @ @ # @ # # O         # _ a.m.m.M.M.M.M.M.",
"M.M.M.M.M.M.M.M.M.M.M.M.M.M.M.M.m.m.v.a.2.( t & X                                                                   # _ s.m.m.M.M.M.M.M.",
"M.M.M.M.M.M.M.M.M.M.M.M.M.M.M.M.M.m.m.m.v.s.5.] b 5 $ X                                                             # _ s.m.M.M.M.M.M.M.",
"M.M.M.M.M.M.M.M.M.M.M.M.M.M.M.M.M.M.M.m.m.m.x.d.q.1._ M u 1 $ O X                                                   # ' d.m.M.M.M.M.M.M.",
"M.M.M.M.M.M.M.M.M.M.M.M.M.M.M.M.M.M.M.M.M.m.m.m.m.v.h.w.8.2.o._ Q l 4 > * * = = = = = = = = = = * * : * = * = = = : 4 #.h.m.M.M.M.M.M.M.",
"M.M.M.M.M.M.M.M.M.M.M.M.M.M.M.M.M.M.M.M.M.M.M.m.m.m.m.m.b.v.h.s.w.7.1.#.@.+.+.@.+.@.+.+.+.+.+.@.+.+.@.@.+.@.@.+.@.#.5.d.b.M.M.M.M.M.M.M.",
"M.M.M.M.M.M.M.M.M.M.M.M.M.M.M.M.M.M.M.M.M.M.M.M.M.M.m.m.m.m.m.m.b.v.x.h.j.h.d.h.h.h.h.h.d.h.h.h.h.h.d.h.h.h.h.h.h.j.x.b.M.M.M.M.M.M.M.M.",
"M.M.M.M.M.M.M.M.M.M.M.M.M.M.M.M.M.M.M.M.M.M.M.M.M.M.M.M.M.M.m.m.m.m.m.m.m.m.m.m.m.m.m.m.m.m.m.m.m.m.m.m.m.m.m.m.m.m.m.M.M.M.M.M.M.M.M.M.",
"M.M.M.M.M.M.M.M.M.M.M.M.M.M.M.M.M.M.M.M.M.M.M.M.M.M.M.M.M.M.M.M.M.M.M.m.m.m.m.m.m.m.m.m.m.m.m.m.m.m.m.m.m.m.m.M.M.M.M.M.M.M.M.M.M.M.M.M.",
"M.M.M.M.M.M.M.M.M.M.M.M.M.M.M.M.M.M.M.M.M.M.M.M.M.M.M.M.M.M.M.M.M.M.M.M.M.M.M.M.M.M.M.M.M.M.M.M.M.M.M.M.M.M.M.M.M.M.M.M.M.M.M.M.M.M.M.M.",
"M.M.M.M.M.M.M.M.M.M.M.M.M.M.M.M.M.M.M.M.M.M.M.M.M.M.M.M.M.M.M.M.M.M.M.M.M.M.M.M.M.M.M.M.M.M.M.M.M.M.M.M.M.M.M.M.M.M.M.M.M.M.M.M.M.M.M.M.",
"M.M.M.M.M.M.M.M.M.M.M.M.M.M.M.M.M.M.M.M.M.M.M.M.M.M.M.M.M.M.M.M.M.M.M.M.M.M.M.M.M.M.M.M.M.M.M.M.M.M.M.M.M.M.M.M.M.M.M.M.M.M.M.M.M.M.M.M."
};
